<?xml version="1.0" encoding="UTF-8"?>
<svg id="Layer_2" data-name="Layer 2" xmlns="http://www.w3.org/2000/svg" xmlns:xlink="http://www.w3.org/1999/xlink" viewBox="0 0 1450.73 266.77">
  <defs>
    <style>
      .cls-blindsig-1 {
        letter-spacing: 0em;
      }

      .cls-blindsig-2 {
        letter-spacing: -.02em;
      }

      .cls-blindsig-3 {
        fill: #0042b3;
      }

      .cls-blindsig-4, .cls-blindsig-5 {
        fill: #fff;
      }

      .cls-blindsig-6, .cls-blindsig-7 {
        fill: #0042b3;
      }

      .cls-blindsig-8 {
        filter: url(#dropshadow);
      }

      .cls-blindsig-9 {
        font-size: 17.82px;
      }

      .cls-blindsig-9, .cls-blindsig-5 {
        font-family: Montserrat-Regular, Montserrat;
      }

      .cls-blindsig-10 {
        filter: url(#dropshadow-2);
      }

      .cls-blindsig-11 {
        letter-spacing: -.02em;
      }

      .cls-blindsig-12 {
        fill: none;
        stroke: #0042b3;
        stroke-miterlimit: 10;
        stroke-width: 4px;
      }

      .cls-blindsig-7 {
        font-family: Impact, Impact;
        font-size: 44.61px;
      }

      .cls-blindsig-5 {
        font-size: 18.45px;
      }
    </style>
    <filter id="dropshadow">
      <feGaussianBlur in="SourceAlpha" stdDeviation="5"/>
      <feOffset dx="5" dy="5"/>
      <feComponentTransfer>
        <feFuncA slope="0.5" type="linear"/>
      </feComponentTransfer>
      <feMerge>
        <feMergeNode/>
        <feMergeNode in="SourceGraphic"/>
      </feMerge>
    </filter>
    <filter id="dropshadow-2" data-name="dropshadow">
      <feGaussianBlur in="SourceAlpha" stdDeviation="5"/>
      <feOffset dx="5" dy="5"/>
      <feComponentTransfer>
        <feFuncA slope="0.5" type="linear"/>
      </feComponentTransfer>
      <feMerge>
        <feMergeNode/>
        <feMergeNode in="SourceGraphic"/>
      </feMerge>
    </filter>
  </defs>
  <g id="tmp">
    <g id="signed-letter" data-id="signed-letter" class="fragment fade-in" data-fragment-index="1">
      <path id="blinded" class="cls-blindsig-6" d="M476.47,243.24h-231.34V91.06h231.34v152.17ZM252.27,239.24h217.05l-75.38-68.75-23.17,21.48c-5.58,5.17-14.31,5.17-19.88,0l-23.5-21.78-75.12,69.05ZM396.88,167.75l75.59,68.95V97.64l-75.59,70.11ZM249.14,97.64v139.04l75.31-69.22-75.31-69.82ZM252.24,95.06l101.37,93.97c4.05,3.76,10.4,3.75,14.45,0l101.32-93.97h-217.14Z"/>
    </g>
    <g id="signed-cert" class="fragment fade-out" data-fragment-index="1">
      <g id="to-blind">
        <path class="cls-blindsig-6" d="M475.7,243.12h-231.34V90.63l41.21-32.29V23.73h44.17L360.03,0l30.28,23.73h43.98v34.46l41.4,32.44v152.5ZM251.67,239.06h216.73l-76.55-71.21c-17.84-16.59-45.78-16.59-63.62,0h0s-76.55,71.21-76.55,71.21ZM396.32,166.38l75.2,69.95V96.36l-75.2,70.01ZM248.55,96.36v139.96l75.2-69.95-75.2-70.01ZM289.76,129.1l37.04,34.48c19-16.34,47.46-16.34,66.46,0l36.85-34.31V27.79h-140.35v101.31ZM434.3,63.41v61.97l36.14-33.65-36.14-28.32ZM249.62,91.73l35.95,33.48v-61.65l-35.95,28.17ZM336.42,23.73h47.23l-23.61-18.5-23.61,18.5Z"/>
        <line class="cls-blindsig-12" x1="316.24" y1="56.4" x2="405.37" y2="56.4"/>
        <line class="cls-blindsig-12" x1="316.24" y1="43.55" x2="405.37" y2="43.55"/>
        <g>
          <path class="cls-blindsig-6" d="M342.09,67.56v35.85h-9.01v-19.22c0-2.77-.07-4.44-.2-5-.13-.56-.5-.98-1.1-1.27-.6-.29-1.94-.43-4.03-.43h-.89v-4.18c4.36-.93,7.67-2.85,9.93-5.74h5.31Z"/>
          <path class="cls-blindsig-6" d="M366.85,79.69v11.96c0,2.72-.15,4.69-.45,5.93-.3,1.24-.91,2.4-1.85,3.48-.94,1.08-2.07,1.85-3.39,2.32-1.32.47-2.8.71-4.44.71-2.16,0-3.95-.25-5.38-.74-1.43-.49-2.57-1.27-3.41-2.31-.85-1.05-1.45-2.15-1.81-3.31s-.54-3-.54-5.52v-12.51c0-3.29.29-5.76.86-7.4.57-1.64,1.71-2.95,3.41-3.94,1.7-.99,3.77-1.48,6.19-1.48,1.98,0,3.75.34,5.31,1.03,1.56.69,2.73,1.52,3.5,2.51.77.99,1.3,2.1,1.57,3.34.27,1.24.41,3.22.41,5.93ZM357.84,76.68c0-1.9-.09-3.1-.28-3.58-.19-.48-.62-.72-1.31-.72s-1.11.26-1.33.76-.32,1.69-.32,3.53v17.49c0,2.08.1,3.34.3,3.76.2.43.64.64,1.31.64s1.11-.25,1.32-.75c.21-.5.31-1.63.31-3.39v-17.76Z"/>
          <path class="cls-blindsig-6" d="M391.2,78.01h-9.01v-1.48c0-1.58-.1-2.61-.31-3.1s-.65-.73-1.34-.73c-.55,0-.96.21-1.24.63-.27.42-.41,1.05-.41,1.89,0,1.4.28,2.38.85,2.94.55.56,2.17,1.65,4.86,3.28,2.29,1.37,3.85,2.43,4.68,3.16.83.73,1.54,1.76,2.11,3.1.57,1.34.86,3,.86,4.99,0,3.19-.77,5.69-2.32,7.51s-3.87,2.94-6.96,3.37v3.37h-4.15v-3.48c-2.41-.24-4.51-1.16-6.31-2.76-1.8-1.6-2.7-4.4-2.7-8.38v-1.75h9.01v2.19c0,2.41.09,3.9.28,4.48.19.58.64.87,1.35.87.61,0,1.06-.2,1.36-.61s.45-1.01.45-1.8c0-2.01-.14-3.44-.42-4.31-.28-.86-1.25-1.8-2.9-2.82-2.75-1.71-4.62-2.97-5.61-3.78-.99-.81-1.84-1.94-2.56-3.4-.72-1.46-1.08-3.12-1.08-4.96,0-2.67.76-4.77,2.29-6.29,1.52-1.52,3.81-2.46,6.86-2.81v-2.86h4.15v2.86c2.78.35,4.86,1.28,6.24,2.78,1.38,1.5,2.07,3.57,2.07,6.21,0,.37-.03.93-.09,1.68Z"/>
        </g>
      </g>
    </g>
<g id="agents" data-id="agents">
      <g id="customer">
        <g class="cls-blindsig-8">
          <ellipse class="cls-blindsig-4" cx="97.1" cy="159.46" rx="80.92" ry="80.02"/>
        </g>
        <text class="cls-blindsig-9" transform="translate(52.54 206.16) scale(1.01 1)"><tspan class="cls-blindsig-2" x="0" y="0">C</tspan><tspan x="12.49" y="0">us</tspan><tspan class="cls-blindsig-11" x="33.21" y="0">t</tspan><tspan x="40.1" y="0">o</tspan><tspan class="cls-blindsig-1" x="51.28" y="0">m</tspan><tspan x="70.23" y="0">er</tspan></text>
        <path class="cls-blindsig-3" d="M125.76,178.05h-2.3v-1.15c0-5.59-4.8-7.73-10.36-10.21-3.53-1.58-7.19-3.21-9.93-5.91-2.15-2.12-.57-3.79.81-5.25,2.14-2.26,5.72-6.05,5.72-15.89,0-10.62-4.12-15.79-12.6-15.79s-12.6,5.17-12.6,15.79c0,9.85,3.58,13.63,5.72,15.89,1.39,1.47,2.96,3.14.82,5.25-2.74,2.7-6.39,4.33-9.93,5.91-5.56,2.48-10.36,4.62-10.36,10.21v1.15h-2.3v-1.15c0-7.08,5.96-9.74,11.72-12.32,3.35-1.5,6.81-3.04,9.25-5.45q.54-.54-.87-2.03c-2.22-2.35-6.35-6.71-6.35-17.48,0-12,5.01-18.09,14.9-18.09s14.9,6.09,14.9,18.09c0,10.76-4.13,15.13-6.35,17.48q-1.42,1.5-.87,2.03c2.44,2.4,5.9,3.95,9.25,5.44,5.76,2.57,11.72,5.23,11.72,12.32v1.15Z"/>
      </g>
      <g id="bank-complete">
        <g id="bank">
          <g class="cls-blindsig-10">
            <ellipse class="cls-blindsig-6" cx="1270.2" cy="167.15" rx="80.9" ry="82.81"/>
          </g>
          <g>
            <path class="cls-blindsig-4" d="M1301.7,186.22c0-2.46-1.94-4.45-4.32-4.45h-2.16v-32.28h6.49c1.94,0,3.64-1.33,4.16-3.25.52-1.92-.26-3.97-1.92-5.01l-30.26-18.92c-.69-.43-1.47-.65-2.24-.65s-1.55.21-2.24.65l-30.26,18.92c-1.66,1.04-2.44,3.08-1.92,5.01.52,1.92,2.22,3.25,4.16,3.25h6.49v32.28h-2.16c-2.39,0-4.32,1.99-4.32,4.45-2.39,0-4.32,1.99-4.32,4.45v2.23h69.18v-2.23c0-2.46-1.94-4.45-4.32-4.45h0ZM1293.05,181.77h-4.32v-32.28h4.32v32.28h0ZM1256.3,149.49h4.32v32.28h-4.32v-32.28h0ZM1262.79,149.49h4.32v32.28h-4.32v-32.28h0ZM1269.27,149.49h4.32v32.28h-4.32v-32.28h0ZM1275.76,149.49h4.32v32.28h-4.32v-32.28h0ZM1282.24,149.49h4.32v32.28h-4.32v-32.28h0ZM1241.17,147.26c-.97,0-1.82-.67-2.08-1.63-.26-.96.13-1.99.96-2.5l30.26-18.92c.34-.21.73-.32,1.12-.32s.78.11,1.12.32l30.26,18.92c.83.52,1.22,1.55.96,2.5-.26.96-1.12,1.63-2.08,1.63h-60.53ZM1249.82,149.49h4.32v32.28h-4.32v-32.28h0ZM1245.49,183.99h51.88c1.19,0,2.16,1,2.16,2.23h-56.21c0-1.23.97-2.23,2.16-2.23h0ZM1239.01,190.67c0-1.23.97-2.23,2.16-2.23h60.53c1.19,0,2.16,1,2.16,2.23h-64.85Z"/>
            <path class="cls-blindsig-4" d="M1271.44,131.68c-2.99,0-5.4,2.49-5.4,5.57s2.42,5.57,5.4,5.57,5.4-2.49,5.4-5.57-2.42-5.57-5.4-5.57h0ZM1271.44,140.58c-1.79,0-3.24-1.49-3.24-3.34s1.45-3.34,3.24-3.34,3.24,1.49,3.24,3.34-1.45,3.34-3.24,3.34h0Z"/>
          </g>
          <text class="cls-blindsig-5" transform="translate(1247.3741 221.6239) scale(.9769 1)"><tspan x="0" y="0">Bank</tspan></text>
        </g>
      </g>
    </g>
  </g>
</svg>