<?xml version="1.0" encoding="UTF-8"?>
<svg id="Layer_2" data-name="Layer 2" xmlns="http://www.w3.org/2000/svg" xmlns:xlink="http://www.w3.org/1999/xlink" viewBox="0 0 1450.73 266.77">
  <defs>
    <style>
      .cls-blindsig-1 {
        letter-spacing: 0em;
      }

      .cls-blindsig-2 {
        letter-spacing: -.02em;
      }

      .cls-blindsig-3 {
        fill: #0042b3;
      }

      .cls-blindsig-4, .cls-blindsig-5 {
        fill: #fff;
      }

      .cls-blindsig-6, .cls-blindsig-7 {
        fill: #0042b3;
      }

      .cls-blindsig-8 {
        filter: url(#dropshadow);
      }

      .cls-blindsig-9 {
        font-size: 17.82px;
      }

      .cls-blindsig-9, .cls-blindsig-5 {
        font-family: Montserrat-Regular, Montserrat;
      }

      .cls-blindsig-10 {
        filter: url(#dropshadow-2);
      }

      .cls-blindsig-11 {
        letter-spacing: -.02em;
      }

      .cls-blindsig-12 {
        fill: none;
        stroke: #0042b3;
        stroke-miterlimit: 10;
        stroke-width: 4px;
      }

      .cls-blindsig-7 {
        font-family: Impact, Impact;
        font-size: 44.61px;
      }

      .cls-blindsig-5 {
        font-size: 18.45px;
      }
    </style>
    <filter id="dropshadow">
      <feGaussianBlur in="SourceAlpha" stdDeviation="5"/>
      <feOffset dx="5" dy="5"/>
      <feComponentTransfer>
        <feFuncA slope="0.5" type="linear"/>
      </feComponentTransfer>
      <feMerge>
        <feMergeNode/>
        <feMergeNode in="SourceGraphic"/>
      </feMerge>
    </filter>
    <filter id="dropshadow-2" data-name="dropshadow">
      <feGaussianBlur in="SourceAlpha" stdDeviation="5"/>
      <feOffset dx="5" dy="5"/>
      <feComponentTransfer>
        <feFuncA slope="0.5" type="linear"/>
      </feComponentTransfer>
      <feMerge>
        <feMergeNode/>
        <feMergeNode in="SourceGraphic"/>
      </feMerge>
    </filter>
  </defs>
  <g id="tmp" data-id="tmp">
    <g id="pen" class="fragment fade-in-then-out" data-fragment-index="1">
      <g>
        <path class="cls-blindsig-6" d="M1136.7,48.19l-1.47-1.6,2.28-2.59c1.2-1.47,1.49-4.44-1.63-7.96-3.15-3.43-6.39-3.1-7.58-1.81l-34.45,35,10.99,11.97,27.25-31.04,1.39,1.52c.54.53.59,1.42.11,2.02l-20.78,22.62c-.9.95-.93,2.51-.06,3.49.87.98,2.3,1.01,3.21.06.02-.02.04-.04.06-.06l20.78-22.62c2.25-2.52,2.19-6.54-.12-9h0Z"/>
        <path class="cls-blindsig-6" d="M1068.28,97.97c-.86.96-1.69,1.95-2.49,2.97l-9.82,12.07,8.66,9.42,11.09-10.7c.94-.87,1.85-1.77,2.73-2.71l22.96-24.07-11-11.98-22.12,24.99h0Z"/>
        <path class="cls-blindsig-6" d="M1044.73,128.86c-.32.62-.2,1.4.29,1.88l-2.59,4.58c-.35.62-.17,1.43.4,1.81.19.12.4.19.62.19.23,0,.45-.07.64-.21l4.17-2.85c.43.52,1.13.65,1.7.31l10.77-8.81-7.84-8.53-8.16,11.62h0Z"/>
      </g>
      <g>
        <path class="cls-blindsig-6" d="M1074.08,39.89l18.28,19.27-5.36,5.08-9.8-10.33c-1.41-1.49-2.3-2.35-2.67-2.58-.36-.23-.8-.25-1.3-.06-.5.19-1.38.87-2.61,2.04l-.53.5-2.13-2.25c2.12-2.96,3.11-5.85,2.97-8.68l3.16-2.99Z"/>
        <path class="cls-blindsig-6" d="M1094.98,32.46l6.1,6.43c1.38,1.46,2.31,2.61,2.76,3.44.46.83.68,1.81.67,2.91,0,1.11-.28,2.16-.83,3.16-.55,1-1.3,1.96-2.28,2.88-1.28,1.22-2.47,2.09-3.57,2.63-1.1.54-2.17.77-3.21.68-1.04-.09-1.96-.34-2.76-.76s-1.85-1.31-3.13-2.67l-6.38-6.72c-1.68-1.77-2.77-3.26-3.26-4.46s-.49-2.55.02-4.04c.51-1.49,1.48-2.92,2.92-4.29,1.18-1.11,2.4-1.93,3.68-2.44,1.28-.51,2.4-.72,3.36-.62.96.1,1.84.4,2.64.91.8.51,1.89,1.5,3.27,2.96ZM1088.09,35.92c-.97-1.02-1.63-1.61-1.99-1.76-.36-.15-.74-.04-1.14.35-.4.38-.53.76-.4,1.16.13.4.67,1.09,1.61,2.08l8.92,9.4c1.06,1.12,1.76,1.74,2.1,1.85.34.12.71-.01,1.1-.39s.53-.76.4-1.15c-.13-.39-.65-1.05-1.54-2l-9.05-9.55Z"/>
        <path class="cls-blindsig-6" d="M1108.6,17.82l-5.36,5.08-.76-.8c-.8-.85-1.39-1.35-1.77-1.49-.37-.14-.76-.02-1.17.36-.33.31-.46.66-.41,1.04.05.38.29.8.72,1.25.71.75,1.38,1.12,2.01,1.1.61,0,2.13-.33,4.56-.98,2.06-.55,3.52-.87,4.39-.95.87-.08,1.81.08,2.83.48,1.02.4,2.04,1.13,3.06,2.2,1.63,1.71,2.44,3.5,2.45,5.34,0,1.85-.8,3.76-2.42,5.73l1.71,1.81-2.47,2.34-1.77-1.87c-1.55,1.23-3.27,1.92-5.16,2.08-1.89.15-3.84-.84-5.88-2.98l-.89-.94,5.36-5.08,1.12,1.18c1.23,1.29,2.04,2.04,2.45,2.25.41.21.82.11,1.25-.29.36-.34.53-.71.5-1.09-.03-.39-.25-.79-.65-1.22-1.02-1.08-1.84-1.77-2.45-2.08-.61-.31-1.66-.27-3.16.12-2.51.63-4.26,1.01-5.26,1.13s-2.08,0-3.26-.38c-1.17-.38-2.23-1.06-3.17-2.06-1.36-1.44-1.98-2.99-1.85-4.67.13-1.68,1.01-3.47,2.64-5.38l-1.46-1.54,2.47-2.34,1.46,1.54c1.83-1.38,3.54-2.05,5.13-2.03,1.59.03,3.05.75,4.4,2.17.19.2.46.52.81.95Z"/>
      </g>
    </g>
    <g id="signed-letter" data-id="signed-letter">
      <g transform="translate(635 0)">
        <path id="blinded" class="cls-blindsig-6" d="M476.47,243.24h-231.34V91.06h231.34v152.17ZM252.27,239.24h217.05l-75.38-68.75-23.17,21.48c-5.58,5.17-14.31,5.17-19.88,0l-23.5-21.78-75.12,69.05ZM396.88,167.75l75.59,68.95V97.64l-75.59,70.11ZM249.14,97.64v139.04l75.31-69.22-75.31-69.82ZM252.24,95.06l101.37,93.97c4.05,3.76,10.4,3.75,14.45,0l101.32-93.97h-217.14Z"/>
        <g id="sig-on-blinded" class="fragment fade" data-fragment-index="1">
          <path class="cls-blindsig-6" d="M323.47,145.08c-.04-.66.18-1.06.48-1.63l8.58-16.9c.22-.48.7-.79,1.28-.79.79,0,1.41.62,1.41,1.41,0,.22-.04.48-.18.66l-8.41,16.5h.44c3.83,0,11.44-2.02,13.29-3.08-.48-1.01-2.6-3.21-4-4.53-.57-.53-.75-1.06-.66-1.8v-.18c.09-.75.35-1.19.88-1.45l.75-.35c4.45-2.24,13.99-7,13.99-9.46,0-.62-6.87-1.8-15.09-1.8-6.82,0-15.18,1.85-22.36,5.37-.22.13-.44.18-.66.18-.79,0-1.41-.62-1.41-1.41,0-.57.35-1.06.84-1.28,7.48-3.7,16.41-5.68,23.59-5.68,9.02,0,17.91,1.23,17.91,4.62,0,4.36-10.52,9.46-15.23,11.79,1.85,1.8,4.4,4.62,4.4,6.34,0,.48-.18.97-.48,1.28-1.58,1.8-11.35,4.27-15.75,4.27-2.38,0-3.56-.88-3.61-2.07Z"/>
          <path class="cls-blindsig-6" d="M345.99,141.7c0-6.91,7.39-11.66,14.35-12.1h.18c.79-.04,1.41.62,1.41,1.41,0,.7-.53,1.32-1.23,1.41-6.16.75-11.88,4.09-11.88,9.29,0,1.1.22,1.36.92,1.36,1.01,0,6.34-3.78,10.03-7.75l.18-.35c.31-.66.7-1.23,1.36-1.28,2.82-.18,2.86.88,1.36,2.6l-.57.66c-.35.66-.7,1.36-1.06,2.02-.79,1.54-1.45,2.77-1.8,3.65,2.2-.88,6.03-3.92,10.65-7.88.26-.22.57-.35.92-.35.79,0,1.41.62,1.41,1.41,0,.44-.18.79-.48,1.06-5.46,4.71-10.47,8.76-13.51,8.8-1.28,0-2.07-.88-2.07-2.07,0-.44.09-.92.26-1.45-2.77,2.16-5.46,3.74-6.69,3.74-1.94,0-3.74-1.58-3.74-4.18Z"/>
          <path class="cls-blindsig-6" d="M365.09,145.22c-.22-.75.48-1.45.75-1.72l.35-.4c1.5-3.65,2.33-5.59,4.05-9.51l1.1-2.55c.22-.53.75-.88,1.32-.88.79,0,1.41.62,1.41,1.41,0,.22-.04.4-.13.57l-1.1,2.6c-.48,1.01-.84,1.94-1.23,2.77,5.68-5.63,9.02-8.14,11.44-8.14,1.41,0,2.33.88,2.33,2.2,0,1.58-1.58,4.09-3.34,7-.84,1.36-1.5,2.51-1.94,3.34,1.72-.88,4.8-3.17,10.21-7.22.22-.18.53-.26.84-.26.79,0,1.41.62,1.41,1.41,0,.44-.22.88-.57,1.14-7.17,5.37-10.91,8.19-13.16,8.19-1.19,0-2.02-.84-2.02-1.98,0-1.41,1.36-3.65,2.86-6.12,1.32-2.16,2.29-3.78,2.68-4.75-2.07.66-5.98,4.18-13.77,12.37,0,0-.26,1.23-.88,1.5-.62.31-2.38-.04-2.6-.97Z"/>
          <path class="cls-blindsig-6" d="M386.12,145.13l-.04-.13c-.22-.75-.18-1.23.18-1.63l.44-.57,11.88-27.42c.31-.7.44-1.19.53-1.5-.13.04-.26.04-.48.04-3.92,0-11.66,3.26-19.41,9.37-.26.18-.53.31-.88.31-.79,0-1.41-.62-1.41-1.41,0-.44.22-.84.53-1.1,8.1-6.43,16.63-9.99,21.17-9.99,2.73,0,3.3,1.45,3.3,2.6,0,.75-.31,1.67-.79,2.82l-8.41,19.5c4.49-4.58,7.88-6.65,10.65-6.65,1.19,0,2.02.97,2.02,2.77,0,4.36-2.6,6.16-9.37,7.61,1.14,1.23,2.6,2.6,3.21,2.6.88,0,3.43-2.2,9.59-7.57.26-.22.57-.35.92-.35.79,0,1.41.62,1.41,1.41,0,.44-.18.79-.48,1.06-6.12,5.33-9.33,8.27-11.44,8.27s-5.37-3.52-6.6-5.02c-1.06,1.23-2.24,2.6-3.48,4.09l-.53,1.19c-.35.79-.79,1.14-1.36.97-.57-.18-.88-.53-1.14-1.28ZM402.58,132.28c-1.72.35-3.92,1.8-6.87,4.66,5.59-1.14,6.82-2.11,6.87-4.66Z"/>
        </g>
      </g>
    </g>
    <g id="agents" data-id="agents">
      <g id="customer">
        <g class="cls-blindsig-8">
          <ellipse class="cls-blindsig-4" cx="97.1" cy="159.46" rx="80.92" ry="80.02"/>
        </g>
        <text class="cls-blindsig-9" transform="translate(52.54 206.16) scale(1.01 1)"><tspan class="cls-blindsig-2" x="0" y="0">C</tspan><tspan x="12.49" y="0">us</tspan><tspan class="cls-blindsig-11" x="33.21" y="0">t</tspan><tspan x="40.1" y="0">o</tspan><tspan class="cls-blindsig-1" x="51.28" y="0">m</tspan><tspan x="70.23" y="0">er</tspan></text>
        <path class="cls-blindsig-3" d="M125.76,178.05h-2.3v-1.15c0-5.59-4.8-7.73-10.36-10.21-3.53-1.58-7.19-3.21-9.93-5.91-2.15-2.12-.57-3.79.81-5.25,2.14-2.26,5.72-6.05,5.72-15.89,0-10.62-4.12-15.79-12.6-15.79s-12.6,5.17-12.6,15.79c0,9.85,3.58,13.63,5.72,15.89,1.39,1.47,2.96,3.14.82,5.25-2.74,2.7-6.39,4.33-9.93,5.91-5.56,2.48-10.36,4.62-10.36,10.21v1.15h-2.3v-1.15c0-7.08,5.96-9.74,11.72-12.32,3.35-1.5,6.81-3.04,9.25-5.45q.54-.54-.87-2.03c-2.22-2.35-6.35-6.71-6.35-17.48,0-12,5.01-18.09,14.9-18.09s14.9,6.09,14.9,18.09c0,10.76-4.13,15.13-6.35,17.48q-1.42,1.5-.87,2.03c2.44,2.4,5.9,3.95,9.25,5.44,5.76,2.57,11.72,5.23,11.72,12.32v1.15Z"/>
      </g>
      <g id="bank-complete">
        <g id="bank">
          <g class="cls-blindsig-10">
            <ellipse class="cls-blindsig-6" cx="1270.2" cy="167.15" rx="80.9" ry="82.81"/>
          </g>
          <g>
            <path class="cls-blindsig-4" d="M1301.7,186.22c0-2.46-1.94-4.45-4.32-4.45h-2.16v-32.28h6.49c1.94,0,3.64-1.33,4.16-3.25.52-1.92-.26-3.97-1.92-5.01l-30.26-18.92c-.69-.43-1.47-.65-2.24-.65s-1.55.21-2.24.65l-30.26,18.92c-1.66,1.04-2.44,3.08-1.92,5.01.52,1.92,2.22,3.25,4.16,3.25h6.49v32.28h-2.16c-2.39,0-4.32,1.99-4.32,4.45-2.39,0-4.32,1.99-4.32,4.45v2.23h69.18v-2.23c0-2.46-1.94-4.45-4.32-4.45h0ZM1293.05,181.77h-4.32v-32.28h4.32v32.28h0ZM1256.3,149.49h4.32v32.28h-4.32v-32.28h0ZM1262.79,149.49h4.32v32.28h-4.32v-32.28h0ZM1269.27,149.49h4.32v32.28h-4.32v-32.28h0ZM1275.76,149.49h4.32v32.28h-4.32v-32.28h0ZM1282.24,149.49h4.32v32.28h-4.32v-32.28h0ZM1241.17,147.26c-.97,0-1.82-.67-2.08-1.63-.26-.96.13-1.99.96-2.5l30.26-18.92c.34-.21.73-.32,1.12-.32s.78.11,1.12.32l30.26,18.92c.83.52,1.22,1.55.96,2.5-.26.96-1.12,1.63-2.08,1.63h-60.53ZM1249.82,149.49h4.32v32.28h-4.32v-32.28h0ZM1245.49,183.99h51.88c1.19,0,2.16,1,2.16,2.23h-56.21c0-1.23.97-2.23,2.16-2.23h0ZM1239.01,190.67c0-1.23.97-2.23,2.16-2.23h60.53c1.19,0,2.16,1,2.16,2.23h-64.85Z"/>
            <path class="cls-blindsig-4" d="M1271.44,131.68c-2.99,0-5.4,2.49-5.4,5.57s2.42,5.57,5.4,5.57,5.4-2.49,5.4-5.57-2.42-5.57-5.4-5.57h0ZM1271.44,140.58c-1.79,0-3.24-1.49-3.24-3.34s1.45-3.34,3.24-3.34,3.24,1.49,3.24,3.34-1.45,3.34-3.24,3.34h0Z"/>
          </g>
          <text class="cls-blindsig-5" transform="translate(1247.3741 221.6239) scale(.9769 1)"><tspan x="0" y="0">Bank</tspan></text>
        </g>
      </g>
    </g>
    <g id="sub-amount" data-id="sub-amount" class="fragment fade" data-fragment-index="1">
      <g>
        <rect class="cls-blindsig-4" x="1305.02" y="79.99" width="144.71" height="75.43" rx="13.85" ry="13.85"/>
        <path class="cls-blindsig-6" d="M1435.88,156.42h-117.01c-8.19,0-14.85-6.66-14.85-14.85v-47.73c0-8.19,6.66-14.85,14.85-14.85h117.01c8.19,0,14.85,6.66,14.85,14.85v47.73c0,8.19-6.66,14.85-14.85,14.85ZM1318.87,80.99c-7.08,0-12.85,5.76-12.85,12.85v47.73c0,7.09,5.76,12.85,12.85,12.85h117.01c7.08,0,12.85-5.76,12.85-12.85v-47.73c0-7.09-5.76-12.85-12.85-12.85h-117.01Z"/>
      </g>
      <path class="cls-blindsig-3" d="M1440.99,140.88h-2.3v-1.15c0-4.41-3.75-6.12-8.09-8.11-2.83-1.29-5.75-2.63-7.95-4.85-1.84-1.86-.47-3.35.64-4.55,1.68-1.82,4.48-4.85,4.48-12.78,0-8.49-3.19-12.62-9.76-12.62s-9.76,4.13-9.76,12.62c0,7.92,2.81,10.96,4.48,12.78,1.11,1.2,2.49,2.69.64,4.55-2.2,2.22-5.12,3.56-7.95,4.85-4.34,1.98-8.09,3.7-8.09,8.11v1.15h-2.3v-1.15c0-5.89,4.8-8.08,9.43-10.2,2.64-1.21,5.37-2.45,7.27-4.38.19-.2.23-.29.23-.29-.05-.13-.54-.65-.93-1.08-1.78-1.93-5.09-5.52-5.09-14.34,0-12.33,6.56-14.92,12.07-14.92s12.07,2.59,12.07,14.92c0,8.83-3.31,12.41-5.09,14.34-.38.41-.84.91-.92,1.12.02,0,.07.1.22.24,1.91,1.92,4.63,3.17,7.27,4.38,4.64,2.12,9.43,4.31,9.43,10.2v1.15Z"/>
      <g>
        <path class="cls-blindsig-6" d="M1326.76,118.16v6.08h-11.31v-6.08h11.31Z"/>
        <path class="cls-blindsig-6" d="M1342.34,100.39v35.27h-8.61v-18.91c0-2.73-.06-4.37-.19-4.92-.13-.55-.48-.97-1.05-1.25-.58-.28-1.86-.42-3.85-.42h-.85v-4.11c4.16-.92,7.32-2.8,9.48-5.65h5.07Z"/>
        <path class="cls-blindsig-6" d="M1365.99,112.33v11.76c0,2.67-.14,4.62-.43,5.84s-.87,2.36-1.77,3.42c-.9,1.06-1.97,1.82-3.24,2.29-1.26.46-2.68.7-4.24.7-2.06,0-3.77-.24-5.14-.73-1.36-.49-2.45-1.25-3.26-2.28-.81-1.03-1.38-2.12-1.73-3.26s-.51-2.95-.51-5.43v-12.31c0-3.24.27-5.66.82-7.28.55-1.61,1.63-2.9,3.26-3.88,1.63-.97,3.6-1.46,5.91-1.46,1.89,0,3.58.34,5.07,1.01,1.49.67,2.61,1.5,3.35,2.47.74.97,1.24,2.07,1.5,3.29.26,1.22.39,3.17.39,5.84ZM1357.38,109.36c0-1.87-.09-3.05-.27-3.52-.18-.47-.59-.71-1.25-.71s-1.06.25-1.27.75-.31,1.66-.31,3.47v17.21c0,2.05.1,3.28.29,3.7.19.42.61.63,1.25.63s1.06-.25,1.26-.74c.2-.49.3-1.6.3-3.33v-17.47Z"/>
        <path class="cls-blindsig-6" d="M1389.26,110.67h-8.61v-1.46c0-1.55-.1-2.57-.3-3.05s-.62-.72-1.28-.72c-.53,0-.92.21-1.18.62-.26.41-.39,1.04-.39,1.86,0,1.38.27,2.34.81,2.9.53.55,2.07,1.63,4.65,3.22,2.19,1.35,3.68,2.39,4.47,3.1.79.72,1.47,1.74,2.01,3.05.55,1.31.82,2.95.82,4.91,0,3.14-.74,5.6-2.22,7.38s-3.69,2.89-6.65,3.31v3.31h-3.96v-3.42c-2.3-.23-4.31-1.14-6.03-2.71-1.72-1.58-2.58-4.32-2.58-8.25v-1.72h8.61v2.16c0,2.37.09,3.84.27,4.41.18.57.61.86,1.29.86.58,0,1.02-.2,1.3-.6s.43-.99.43-1.78c0-1.97-.13-3.39-.4-4.24-.27-.85-1.19-1.77-2.77-2.78-2.63-1.68-4.42-2.92-5.36-3.71-.95-.79-1.76-1.91-2.45-3.34-.69-1.44-1.03-3.06-1.03-4.88,0-2.63.73-4.69,2.18-6.19,1.46-1.5,3.64-2.42,6.55-2.77v-2.81h3.96v2.81c2.66.35,4.65,1.26,5.97,2.73,1.32,1.47,1.98,3.51,1.98,6.11,0,.36-.03.92-.08,1.66Z"/>
      </g>
    </g>
  </g>
</svg>