<svg xmlns="http://www.w3.org/2000/svg" xmlns:xlink="http://www.w3.org/1999/xlink" version="1.1" x="0" y="0" viewBox="0 0 220 220" width="220" height="220">
<rect x="0" y="0" width="220" fill="none" height="220" stroke="none"></rect>
<g transform="translate(10, 10)">
<g fill="#ffffff">
<rect x="70.34779310344827" y="1.3891724137931034" width="4.13751724137931" height="4.13751724137931" rx="4"></rect>
<rect x="84.13951724137931" y="1.3891724137931034" width="4.13751724137931" height="4.13751724137931" rx="4"></rect>
<rect x="97.93124137931035" y="1.3891724137931034" width="4.13751724137931" height="4.13751724137931" rx="4"></rect>
<rect x="104.82710344827586" y="1.3891724137931034" width="4.13751724137931" height="4.13751724137931" rx="4"></rect>
<rect x="111.72296551724138" y="1.3891724137931034" width="4.13751724137931" height="4.13751724137931" rx="4"></rect>
<rect x="125.5146896551724" y="1.3891724137931034" width="4.13751724137931" height="4.13751724137931" rx="4"></rect>
<rect x="70.34779310344827" y="8.28503448275862" width="4.13751724137931" height="4.13751724137931" rx="4"></rect>
<rect x="77.2436551724138" y="8.28503448275862" width="4.13751724137931" height="4.13751724137931" rx="4"></rect>
<rect x="84.13951724137931" y="8.28503448275862" width="4.13751724137931" height="4.13751724137931" rx="4"></rect>
<rect x="139.30641379310342" y="8.28503448275862" width="4.13751724137931" height="4.13751724137931" rx="4"></rect>
<rect x="63.451931034482755" y="15.180896551724137" width="4.13751724137931" height="4.13751724137931" rx="4"></rect>
<rect x="104.82710344827586" y="15.180896551724137" width="4.13751724137931" height="4.13751724137931" rx="4"></rect>
<rect x="111.72296551724138" y="15.180896551724137" width="4.13751724137931" height="4.13751724137931" rx="4"></rect>
<rect x="118.61882758620689" y="15.180896551724137" width="4.13751724137931" height="4.13751724137931" rx="4"></rect>
<rect x="132.41055172413792" y="15.180896551724137" width="4.13751724137931" height="4.13751724137931" rx="4"></rect>
<rect x="139.30641379310342" y="15.180896551724137" width="4.13751724137931" height="4.13751724137931" rx="4"></rect>
<rect x="56.55606896551724" y="22.076758620689656" width="4.13751724137931" height="4.13751724137931" rx="4"></rect>
<rect x="63.451931034482755" y="22.076758620689656" width="4.13751724137931" height="4.13751724137931" rx="4"></rect>
<rect x="70.34779310344827" y="22.076758620689656" width="4.13751724137931" height="4.13751724137931" rx="4"></rect>
<rect x="91.03537931034482" y="22.076758620689656" width="4.13751724137931" height="4.13751724137931" rx="4"></rect>
<rect x="111.72296551724138" y="22.076758620689656" width="4.13751724137931" height="4.13751724137931" rx="4"></rect>
<rect x="118.61882758620689" y="22.076758620689656" width="4.13751724137931" height="4.13751724137931" rx="4"></rect>
<rect x="125.5146896551724" y="22.076758620689656" width="4.13751724137931" height="4.13751724137931" rx="4"></rect>
<rect x="132.41055172413792" y="22.076758620689656" width="4.13751724137931" height="4.13751724137931" rx="4"></rect>
<rect x="70.34779310344827" y="28.972620689655173" width="4.13751724137931" height="4.13751724137931" rx="4"></rect>
<rect x="77.2436551724138" y="28.972620689655173" width="4.13751724137931" height="4.13751724137931" rx="4"></rect>
<rect x="84.13951724137931" y="28.972620689655173" width="4.13751724137931" height="4.13751724137931" rx="4"></rect>
<rect x="97.93124137931035" y="28.972620689655173" width="4.13751724137931" height="4.13751724137931" rx="4"></rect>
<rect x="104.82710344827586" y="28.972620689655173" width="4.13751724137931" height="4.13751724137931" rx="4"></rect>
<rect x="125.5146896551724" y="28.972620689655173" width="4.13751724137931" height="4.13751724137931" rx="4"></rect>
<rect x="56.55606896551724" y="35.86848275862069" width="4.13751724137931" height="4.13751724137931" rx="4"></rect>
<rect x="63.451931034482755" y="35.86848275862069" width="4.13751724137931" height="4.13751724137931" rx="4"></rect>
<rect x="70.34779310344827" y="35.86848275862069" width="4.13751724137931" height="4.13751724137931" rx="4"></rect>
<rect x="84.13951724137931" y="35.86848275862069" width="4.13751724137931" height="4.13751724137931" rx="4"></rect>
<rect x="97.93124137931035" y="35.86848275862069" width="4.13751724137931" height="4.13751724137931" rx="4"></rect>
<rect x="118.61882758620689" y="35.86848275862069" width="4.13751724137931" height="4.13751724137931" rx="4"></rect>
<rect x="125.5146896551724" y="35.86848275862069" width="4.13751724137931" height="4.13751724137931" rx="4"></rect>
<rect x="56.55606896551724" y="42.7643448275862" width="4.13751724137931" height="4.13751724137931" rx="4"></rect>
<rect x="70.34779310344827" y="42.7643448275862" width="4.13751724137931" height="4.13751724137931" rx="4"></rect>
<rect x="84.13951724137931" y="42.7643448275862" width="4.13751724137931" height="4.13751724137931" rx="4"></rect>
<rect x="97.93124137931035" y="42.7643448275862" width="4.13751724137931" height="4.13751724137931" rx="4"></rect>
<rect x="111.72296551724138" y="42.7643448275862" width="4.13751724137931" height="4.13751724137931" rx="4"></rect>
<rect x="125.5146896551724" y="42.7643448275862" width="4.13751724137931" height="4.13751724137931" rx="4"></rect>
<rect x="139.30641379310342" y="42.7643448275862" width="4.13751724137931" height="4.13751724137931" rx="4"></rect>
<rect x="56.55606896551724" y="49.66020689655173" width="4.13751724137931" height="4.13751724137931" rx="4"></rect>
<rect x="70.34779310344827" y="49.66020689655173" width="4.13751724137931" height="4.13751724137931" rx="4"></rect>
<rect x="104.82710344827586" y="49.66020689655173" width="4.13751724137931" height="4.13751724137931" rx="4"></rect>
<rect x="8.28503448275862" y="56.55606896551724" width="4.13751724137931" height="4.13751724137931" rx="4"></rect>
<rect x="15.180896551724137" y="56.55606896551724" width="4.13751724137931" height="4.13751724137931" rx="4"></rect>
<rect x="42.7643448275862" y="56.55606896551724" width="4.13751724137931" height="4.13751724137931" rx="4"></rect>
<rect x="63.451931034482755" y="56.55606896551724" width="4.13751724137931" height="4.13751724137931" rx="4"></rect>
<rect x="77.2436551724138" y="56.55606896551724" width="4.13751724137931" height="4.13751724137931" rx="4"></rect>
<rect x="91.03537931034482" y="56.55606896551724" width="4.13751724137931" height="4.13751724137931" rx="4"></rect>
<rect x="97.93124137931035" y="56.55606896551724" width="4.13751724137931" height="4.13751724137931" rx="4"></rect>
<rect x="111.72296551724138" y="56.55606896551724" width="4.13751724137931" height="4.13751724137931" rx="4"></rect>
<rect x="132.41055172413792" y="56.55606896551724" width="4.13751724137931" height="4.13751724137931" rx="4"></rect>
<rect x="139.30641379310342" y="56.55606896551724" width="4.13751724137931" height="4.13751724137931" rx="4"></rect>
<rect x="153.09813793103447" y="56.55606896551724" width="4.13751724137931" height="4.13751724137931" rx="4"></rect>
<rect x="159.99399999999997" y="56.55606896551724" width="4.13751724137931" height="4.13751724137931" rx="4"></rect>
<rect x="173.78572413793103" y="56.55606896551724" width="4.13751724137931" height="4.13751724137931" rx="4"></rect>
<rect x="1.3891724137931034" y="63.451931034482755" width="4.13751724137931" height="4.13751724137931" rx="4"></rect>
<rect x="8.28503448275862" y="63.451931034482755" width="4.13751724137931" height="4.13751724137931" rx="4"></rect>
<rect x="15.180896551724137" y="63.451931034482755" width="4.13751724137931" height="4.13751724137931" rx="4"></rect>
<rect x="28.972620689655173" y="63.451931034482755" width="4.13751724137931" height="4.13751724137931" rx="4"></rect>
<rect x="35.86848275862069" y="63.451931034482755" width="4.13751724137931" height="4.13751724137931" rx="4"></rect>
<rect x="49.66020689655173" y="63.451931034482755" width="4.13751724137931" height="4.13751724137931" rx="4"></rect>
<rect x="56.55606896551724" y="63.451931034482755" width="4.13751724137931" height="4.13751724137931" rx="4"></rect>
<rect x="70.34779310344827" y="63.451931034482755" width="4.13751724137931" height="4.13751724137931" rx="4"></rect>
<rect x="84.13951724137931" y="63.451931034482755" width="4.13751724137931" height="4.13751724137931" rx="4"></rect>
<rect x="104.82710344827586" y="63.451931034482755" width="4.13751724137931" height="4.13751724137931" rx="4"></rect>
<rect x="118.61882758620689" y="63.451931034482755" width="4.13751724137931" height="4.13751724137931" rx="4"></rect>
<rect x="125.5146896551724" y="63.451931034482755" width="4.13751724137931" height="4.13751724137931" rx="4"></rect>
<rect x="132.41055172413792" y="63.451931034482755" width="4.13751724137931" height="4.13751724137931" rx="4"></rect>
<rect x="139.30641379310342" y="63.451931034482755" width="4.13751724137931" height="4.13751724137931" rx="4"></rect>
<rect x="153.09813793103447" y="63.451931034482755" width="4.13751724137931" height="4.13751724137931" rx="4"></rect>
<rect x="159.99399999999997" y="63.451931034482755" width="4.13751724137931" height="4.13751724137931" rx="4"></rect>
<rect x="173.78572413793103" y="63.451931034482755" width="4.13751724137931" height="4.13751724137931" rx="4"></rect>
<rect x="187.57744827586205" y="63.451931034482755" width="4.13751724137931" height="4.13751724137931" rx="4"></rect>
<rect x="194.47331034482758" y="63.451931034482755" width="4.13751724137931" height="4.13751724137931" rx="4"></rect>
<rect x="35.86848275862069" y="70.34779310344827" width="4.13751724137931" height="4.13751724137931" rx="4"></rect>
<rect x="42.7643448275862" y="70.34779310344827" width="4.13751724137931" height="4.13751724137931" rx="4"></rect>
<rect x="49.66020689655173" y="70.34779310344827" width="4.13751724137931" height="4.13751724137931" rx="4"></rect>
<rect x="56.55606896551724" y="70.34779310344827" width="4.13751724137931" height="4.13751724137931" rx="4"></rect>
<rect x="63.451931034482755" y="70.34779310344827" width="4.13751724137931" height="4.13751724137931" rx="4"></rect>
<rect x="91.03537931034482" y="70.34779310344827" width="4.13751724137931" height="4.13751724137931" rx="4"></rect>
<rect x="104.82710344827586" y="70.34779310344827" width="4.13751724137931" height="4.13751724137931" rx="4"></rect>
<rect x="132.41055172413792" y="70.34779310344827" width="4.13751724137931" height="4.13751724137931" rx="4"></rect>
<rect x="166.8898620689655" y="70.34779310344827" width="4.13751724137931" height="4.13751724137931" rx="4"></rect>
<rect x="180.68158620689653" y="70.34779310344827" width="4.13751724137931" height="4.13751724137931" rx="4"></rect>
<rect x="194.47331034482758" y="70.34779310344827" width="4.13751724137931" height="4.13751724137931" rx="4"></rect>
<rect x="8.28503448275862" y="77.2436551724138" width="4.13751724137931" height="4.13751724137931" rx="4"></rect>
<rect x="15.180896551724137" y="77.2436551724138" width="4.13751724137931" height="4.13751724137931" rx="4"></rect>
<rect x="22.076758620689656" y="77.2436551724138" width="4.13751724137931" height="4.13751724137931" rx="4"></rect>
<rect x="70.34779310344827" y="77.2436551724138" width="4.13751724137931" height="4.13751724137931" rx="4"></rect>
<rect x="84.13951724137931" y="77.2436551724138" width="4.13751724137931" height="4.13751724137931" rx="4"></rect>
<rect x="111.72296551724138" y="77.2436551724138" width="4.13751724137931" height="4.13751724137931" rx="4"></rect>
<rect x="125.5146896551724" y="77.2436551724138" width="4.13751724137931" height="4.13751724137931" rx="4"></rect>
<rect x="139.30641379310342" y="77.2436551724138" width="4.13751724137931" height="4.13751724137931" rx="4"></rect>
<rect x="146.20227586206894" y="77.2436551724138" width="4.13751724137931" height="4.13751724137931" rx="4"></rect>
<rect x="153.09813793103447" y="77.2436551724138" width="4.13751724137931" height="4.13751724137931" rx="4"></rect>
<rect x="173.78572413793103" y="77.2436551724138" width="4.13751724137931" height="4.13751724137931" rx="4"></rect>
<rect x="8.28503448275862" y="84.13951724137931" width="4.13751724137931" height="4.13751724137931" rx="4"></rect>
<rect x="15.180896551724137" y="84.13951724137931" width="4.13751724137931" height="4.13751724137931" rx="4"></rect>
<rect x="28.972620689655173" y="84.13951724137931" width="4.13751724137931" height="4.13751724137931" rx="4"></rect>
<rect x="42.7643448275862" y="84.13951724137931" width="4.13751724137931" height="4.13751724137931" rx="4"></rect>
<rect x="49.66020689655173" y="84.13951724137931" width="4.13751724137931" height="4.13751724137931" rx="4"></rect>
<rect x="56.55606896551724" y="84.13951724137931" width="4.13751724137931" height="4.13751724137931" rx="4"></rect>
<rect x="63.451931034482755" y="84.13951724137931" width="4.13751724137931" height="4.13751724137931" rx="4"></rect>
<rect x="97.93124137931035" y="84.13951724137931" width="4.13751724137931" height="4.13751724137931" rx="4"></rect>
<rect x="111.72296551724138" y="84.13951724137931" width="4.13751724137931" height="4.13751724137931" rx="4"></rect>
<rect x="146.20227586206894" y="84.13951724137931" width="4.13751724137931" height="4.13751724137931" rx="4"></rect>
<rect x="153.09813793103447" y="84.13951724137931" width="4.13751724137931" height="4.13751724137931" rx="4"></rect>
<rect x="159.99399999999997" y="84.13951724137931" width="4.13751724137931" height="4.13751724137931" rx="4"></rect>
<rect x="187.57744827586205" y="84.13951724137931" width="4.13751724137931" height="4.13751724137931" rx="4"></rect>
<rect x="15.180896551724137" y="91.03537931034482" width="4.13751724137931" height="4.13751724137931" rx="4"></rect>
<rect x="22.076758620689656" y="91.03537931034482" width="4.13751724137931" height="4.13751724137931" rx="4"></rect>
<rect x="28.972620689655173" y="91.03537931034482" width="4.13751724137931" height="4.13751724137931" rx="4"></rect>
<rect x="35.86848275862069" y="91.03537931034482" width="4.13751724137931" height="4.13751724137931" rx="4"></rect>
<rect x="56.55606896551724" y="91.03537931034482" width="4.13751724137931" height="4.13751724137931" rx="4"></rect>
<rect x="70.34779310344827" y="91.03537931034482" width="4.13751724137931" height="4.13751724137931" rx="4"></rect>
<rect x="84.13951724137931" y="91.03537931034482" width="4.13751724137931" height="4.13751724137931" rx="4"></rect>
<rect x="91.03537931034482" y="91.03537931034482" width="4.13751724137931" height="4.13751724137931" rx="4"></rect>
<rect x="97.93124137931035" y="91.03537931034482" width="4.13751724137931" height="4.13751724137931" rx="4"></rect>
<rect x="132.41055172413792" y="91.03537931034482" width="4.13751724137931" height="4.13751724137931" rx="4"></rect>
<rect x="139.30641379310342" y="91.03537931034482" width="4.13751724137931" height="4.13751724137931" rx="4"></rect>
<rect x="153.09813793103447" y="91.03537931034482" width="4.13751724137931" height="4.13751724137931" rx="4"></rect>
<rect x="173.78572413793103" y="91.03537931034482" width="4.13751724137931" height="4.13751724137931" rx="4"></rect>
<rect x="194.47331034482758" y="91.03537931034482" width="4.13751724137931" height="4.13751724137931" rx="4"></rect>
<rect x="1.3891724137931034" y="97.93124137931035" width="4.13751724137931" height="4.13751724137931" rx="4"></rect>
<rect x="15.180896551724137" y="97.93124137931035" width="4.13751724137931" height="4.13751724137931" rx="4"></rect>
<rect x="22.076758620689656" y="97.93124137931035" width="4.13751724137931" height="4.13751724137931" rx="4"></rect>
<rect x="42.7643448275862" y="97.93124137931035" width="4.13751724137931" height="4.13751724137931" rx="4"></rect>
<rect x="56.55606896551724" y="97.93124137931035" width="4.13751724137931" height="4.13751724137931" rx="4"></rect>
<rect x="77.2436551724138" y="97.93124137931035" width="4.13751724137931" height="4.13751724137931" rx="4"></rect>
<rect x="91.03537931034482" y="97.93124137931035" width="4.13751724137931" height="4.13751724137931" rx="4"></rect>
<rect x="97.93124137931035" y="97.93124137931035" width="4.13751724137931" height="4.13751724137931" rx="4"></rect>
<rect x="111.72296551724138" y="97.93124137931035" width="4.13751724137931" height="4.13751724137931" rx="4"></rect>
<rect x="118.61882758620689" y="97.93124137931035" width="4.13751724137931" height="4.13751724137931" rx="4"></rect>
<rect x="132.41055172413792" y="97.93124137931035" width="4.13751724137931" height="4.13751724137931" rx="4"></rect>
<rect x="139.30641379310342" y="97.93124137931035" width="4.13751724137931" height="4.13751724137931" rx="4"></rect>
<rect x="159.99399999999997" y="97.93124137931035" width="4.13751724137931" height="4.13751724137931" rx="4"></rect>
<rect x="173.78572413793103" y="97.93124137931035" width="4.13751724137931" height="4.13751724137931" rx="4"></rect>
<rect x="180.68158620689653" y="97.93124137931035" width="4.13751724137931" height="4.13751724137931" rx="4"></rect>
<rect x="194.47331034482758" y="97.93124137931035" width="4.13751724137931" height="4.13751724137931" rx="4"></rect>
<rect x="1.3891724137931034" y="104.82710344827586" width="4.13751724137931" height="4.13751724137931" rx="4"></rect>
<rect x="15.180896551724137" y="104.82710344827586" width="4.13751724137931" height="4.13751724137931" rx="4"></rect>
<rect x="35.86848275862069" y="104.82710344827586" width="4.13751724137931" height="4.13751724137931" rx="4"></rect>
<rect x="49.66020689655173" y="104.82710344827586" width="4.13751724137931" height="4.13751724137931" rx="4"></rect>
<rect x="56.55606896551724" y="104.82710344827586" width="4.13751724137931" height="4.13751724137931" rx="4"></rect>
<rect x="63.451931034482755" y="104.82710344827586" width="4.13751724137931" height="4.13751724137931" rx="4"></rect>
<rect x="70.34779310344827" y="104.82710344827586" width="4.13751724137931" height="4.13751724137931" rx="4"></rect>
<rect x="77.2436551724138" y="104.82710344827586" width="4.13751724137931" height="4.13751724137931" rx="4"></rect>
<rect x="104.82710344827586" y="104.82710344827586" width="4.13751724137931" height="4.13751724137931" rx="4"></rect>
<rect x="132.41055172413792" y="104.82710344827586" width="4.13751724137931" height="4.13751724137931" rx="4"></rect>
<rect x="139.30641379310342" y="104.82710344827586" width="4.13751724137931" height="4.13751724137931" rx="4"></rect>
<rect x="166.8898620689655" y="104.82710344827586" width="4.13751724137931" height="4.13751724137931" rx="4"></rect>
<rect x="173.78572413793103" y="104.82710344827586" width="4.13751724137931" height="4.13751724137931" rx="4"></rect>
<rect x="194.47331034482758" y="104.82710344827586" width="4.13751724137931" height="4.13751724137931" rx="4"></rect>
<rect x="8.28503448275862" y="111.72296551724138" width="4.13751724137931" height="4.13751724137931" rx="4"></rect>
<rect x="15.180896551724137" y="111.72296551724138" width="4.13751724137931" height="4.13751724137931" rx="4"></rect>
<rect x="28.972620689655173" y="111.72296551724138" width="4.13751724137931" height="4.13751724137931" rx="4"></rect>
<rect x="35.86848275862069" y="111.72296551724138" width="4.13751724137931" height="4.13751724137931" rx="4"></rect>
<rect x="42.7643448275862" y="111.72296551724138" width="4.13751724137931" height="4.13751724137931" rx="4"></rect>
<rect x="49.66020689655173" y="111.72296551724138" width="4.13751724137931" height="4.13751724137931" rx="4"></rect>
<rect x="63.451931034482755" y="111.72296551724138" width="4.13751724137931" height="4.13751724137931" rx="4"></rect>
<rect x="70.34779310344827" y="111.72296551724138" width="4.13751724137931" height="4.13751724137931" rx="4"></rect>
<rect x="84.13951724137931" y="111.72296551724138" width="4.13751724137931" height="4.13751724137931" rx="4"></rect>
<rect x="97.93124137931035" y="111.72296551724138" width="4.13751724137931" height="4.13751724137931" rx="4"></rect>
<rect x="104.82710344827586" y="111.72296551724138" width="4.13751724137931" height="4.13751724137931" rx="4"></rect>
<rect x="111.72296551724138" y="111.72296551724138" width="4.13751724137931" height="4.13751724137931" rx="4"></rect>
<rect x="139.30641379310342" y="111.72296551724138" width="4.13751724137931" height="4.13751724137931" rx="4"></rect>
<rect x="153.09813793103447" y="111.72296551724138" width="4.13751724137931" height="4.13751724137931" rx="4"></rect>
<rect x="159.99399999999997" y="111.72296551724138" width="4.13751724137931" height="4.13751724137931" rx="4"></rect>
<rect x="15.180896551724137" y="118.61882758620689" width="4.13751724137931" height="4.13751724137931" rx="4"></rect>
<rect x="22.076758620689656" y="118.61882758620689" width="4.13751724137931" height="4.13751724137931" rx="4"></rect>
<rect x="49.66020689655173" y="118.61882758620689" width="4.13751724137931" height="4.13751724137931" rx="4"></rect>
<rect x="77.2436551724138" y="118.61882758620689" width="4.13751724137931" height="4.13751724137931" rx="4"></rect>
<rect x="84.13951724137931" y="118.61882758620689" width="4.13751724137931" height="4.13751724137931" rx="4"></rect>
<rect x="91.03537931034482" y="118.61882758620689" width="4.13751724137931" height="4.13751724137931" rx="4"></rect>
<rect x="97.93124137931035" y="118.61882758620689" width="4.13751724137931" height="4.13751724137931" rx="4"></rect>
<rect x="111.72296551724138" y="118.61882758620689" width="4.13751724137931" height="4.13751724137931" rx="4"></rect>
<rect x="118.61882758620689" y="118.61882758620689" width="4.13751724137931" height="4.13751724137931" rx="4"></rect>
<rect x="125.5146896551724" y="118.61882758620689" width="4.13751724137931" height="4.13751724137931" rx="4"></rect>
<rect x="132.41055172413792" y="118.61882758620689" width="4.13751724137931" height="4.13751724137931" rx="4"></rect>
<rect x="153.09813793103447" y="118.61882758620689" width="4.13751724137931" height="4.13751724137931" rx="4"></rect>
<rect x="159.99399999999997" y="118.61882758620689" width="4.13751724137931" height="4.13751724137931" rx="4"></rect>
<rect x="173.78572413793103" y="118.61882758620689" width="4.13751724137931" height="4.13751724137931" rx="4"></rect>
<rect x="194.47331034482758" y="118.61882758620689" width="4.13751724137931" height="4.13751724137931" rx="4"></rect>
<rect x="1.3891724137931034" y="125.5146896551724" width="4.13751724137931" height="4.13751724137931" rx="4"></rect>
<rect x="8.28503448275862" y="125.5146896551724" width="4.13751724137931" height="4.13751724137931" rx="4"></rect>
<rect x="15.180896551724137" y="125.5146896551724" width="4.13751724137931" height="4.13751724137931" rx="4"></rect>
<rect x="42.7643448275862" y="125.5146896551724" width="4.13751724137931" height="4.13751724137931" rx="4"></rect>
<rect x="56.55606896551724" y="125.5146896551724" width="4.13751724137931" height="4.13751724137931" rx="4"></rect>
<rect x="63.451931034482755" y="125.5146896551724" width="4.13751724137931" height="4.13751724137931" rx="4"></rect>
<rect x="84.13951724137931" y="125.5146896551724" width="4.13751724137931" height="4.13751724137931" rx="4"></rect>
<rect x="91.03537931034482" y="125.5146896551724" width="4.13751724137931" height="4.13751724137931" rx="4"></rect>
<rect x="97.93124137931035" y="125.5146896551724" width="4.13751724137931" height="4.13751724137931" rx="4"></rect>
<rect x="111.72296551724138" y="125.5146896551724" width="4.13751724137931" height="4.13751724137931" rx="4"></rect>
<rect x="118.61882758620689" y="125.5146896551724" width="4.13751724137931" height="4.13751724137931" rx="4"></rect>
<rect x="132.41055172413792" y="125.5146896551724" width="4.13751724137931" height="4.13751724137931" rx="4"></rect>
<rect x="139.30641379310342" y="125.5146896551724" width="4.13751724137931" height="4.13751724137931" rx="4"></rect>
<rect x="159.99399999999997" y="125.5146896551724" width="4.13751724137931" height="4.13751724137931" rx="4"></rect>
<rect x="166.8898620689655" y="125.5146896551724" width="4.13751724137931" height="4.13751724137931" rx="4"></rect>
<rect x="173.78572413793103" y="125.5146896551724" width="4.13751724137931" height="4.13751724137931" rx="4"></rect>
<rect x="180.68158620689653" y="125.5146896551724" width="4.13751724137931" height="4.13751724137931" rx="4"></rect>
<rect x="194.47331034482758" y="125.5146896551724" width="4.13751724137931" height="4.13751724137931" rx="4"></rect>
<rect x="28.972620689655173" y="132.41055172413792" width="4.13751724137931" height="4.13751724137931" rx="4"></rect>
<rect x="56.55606896551724" y="132.41055172413792" width="4.13751724137931" height="4.13751724137931" rx="4"></rect>
<rect x="63.451931034482755" y="132.41055172413792" width="4.13751724137931" height="4.13751724137931" rx="4"></rect>
<rect x="70.34779310344827" y="132.41055172413792" width="4.13751724137931" height="4.13751724137931" rx="4"></rect>
<rect x="84.13951724137931" y="132.41055172413792" width="4.13751724137931" height="4.13751724137931" rx="4"></rect>
<rect x="91.03537931034482" y="132.41055172413792" width="4.13751724137931" height="4.13751724137931" rx="4"></rect>
<rect x="104.82710344827586" y="132.41055172413792" width="4.13751724137931" height="4.13751724137931" rx="4"></rect>
<rect x="111.72296551724138" y="132.41055172413792" width="4.13751724137931" height="4.13751724137931" rx="4"></rect>
<rect x="132.41055172413792" y="132.41055172413792" width="4.13751724137931" height="4.13751724137931" rx="4"></rect>
<rect x="146.20227586206894" y="132.41055172413792" width="4.13751724137931" height="4.13751724137931" rx="4"></rect>
<rect x="153.09813793103447" y="132.41055172413792" width="4.13751724137931" height="4.13751724137931" rx="4"></rect>
<rect x="159.99399999999997" y="132.41055172413792" width="4.13751724137931" height="4.13751724137931" rx="4"></rect>
<rect x="187.57744827586205" y="132.41055172413792" width="4.13751724137931" height="4.13751724137931" rx="4"></rect>
<rect x="194.47331034482758" y="132.41055172413792" width="4.13751724137931" height="4.13751724137931" rx="4"></rect>
<rect x="1.3891724137931034" y="139.30641379310342" width="4.13751724137931" height="4.13751724137931" rx="4"></rect>
<rect x="8.28503448275862" y="139.30641379310342" width="4.13751724137931" height="4.13751724137931" rx="4"></rect>
<rect x="28.972620689655173" y="139.30641379310342" width="4.13751724137931" height="4.13751724137931" rx="4"></rect>
<rect x="35.86848275862069" y="139.30641379310342" width="4.13751724137931" height="4.13751724137931" rx="4"></rect>
<rect x="42.7643448275862" y="139.30641379310342" width="4.13751724137931" height="4.13751724137931" rx="4"></rect>
<rect x="49.66020689655173" y="139.30641379310342" width="4.13751724137931" height="4.13751724137931" rx="4"></rect>
<rect x="84.13951724137931" y="139.30641379310342" width="4.13751724137931" height="4.13751724137931" rx="4"></rect>
<rect x="97.93124137931035" y="139.30641379310342" width="4.13751724137931" height="4.13751724137931" rx="4"></rect>
<rect x="111.72296551724138" y="139.30641379310342" width="4.13751724137931" height="4.13751724137931" rx="4"></rect>
<rect x="132.41055172413792" y="139.30641379310342" width="4.13751724137931" height="4.13751724137931" rx="4"></rect>
<rect x="173.78572413793103" y="139.30641379310342" width="4.13751724137931" height="4.13751724137931" rx="4"></rect>
<rect x="56.55606896551724" y="146.20227586206894" width="4.13751724137931" height="4.13751724137931" rx="4"></rect>
<rect x="63.451931034482755" y="146.20227586206894" width="4.13751724137931" height="4.13751724137931" rx="4"></rect>
<rect x="77.2436551724138" y="146.20227586206894" width="4.13751724137931" height="4.13751724137931" rx="4"></rect>
<rect x="104.82710344827586" y="146.20227586206894" width="4.13751724137931" height="4.13751724137931" rx="4"></rect>
<rect x="173.78572413793103" y="146.20227586206894" width="4.13751724137931" height="4.13751724137931" rx="4"></rect>
<rect x="194.47331034482758" y="146.20227586206894" width="4.13751724137931" height="4.13751724137931" rx="4"></rect>
<rect x="63.451931034482755" y="153.09813793103447" width="4.13751724137931" height="4.13751724137931" rx="4"></rect>
<rect x="70.34779310344827" y="153.09813793103447" width="4.13751724137931" height="4.13751724137931" rx="4"></rect>
<rect x="84.13951724137931" y="153.09813793103447" width="4.13751724137931" height="4.13751724137931" rx="4"></rect>
<rect x="97.93124137931035" y="153.09813793103447" width="4.13751724137931" height="4.13751724137931" rx="4"></rect>
<rect x="104.82710344827586" y="153.09813793103447" width="4.13751724137931" height="4.13751724137931" rx="4"></rect>
<rect x="125.5146896551724" y="153.09813793103447" width="4.13751724137931" height="4.13751724137931" rx="4"></rect>
<rect x="146.20227586206894" y="139.30641379310345" width="24.82510344827586" height="4.13751724137931" rx="2"></rect>
<rect x="166.8898620689655" y="146.20227586206894" width="4.13751724137931" height="24.82510344827586" rx="2"></rect>
<rect x="139.30641379310345" y="166.8898620689655" width="24.82510344827586" height="4.13751724137931" rx="2"></rect>
<rect x="139.30641379310345" y="139.30641379310345" width="4.13751724137931" height="24.82510344827586" rx="2"></rect>
<rect x="153.09813793103447" y="153.09813793103447" width="4.13751724137931" height="4.13751724137931" rx="4"></rect>
<rect x="173.78572413793103" y="153.09813793103447" width="4.13751724137931" height="4.13751724137931" rx="4"></rect>
<rect x="180.68158620689653" y="153.09813793103447" width="4.13751724137931" height="4.13751724137931" rx="4"></rect>
<rect x="194.47331034482758" y="153.09813793103447" width="4.13751724137931" height="4.13751724137931" rx="4"></rect>
<rect x="77.2436551724138" y="159.99399999999997" width="4.13751724137931" height="4.13751724137931" rx="4"></rect>
<rect x="91.03537931034482" y="159.99399999999997" width="4.13751724137931" height="4.13751724137931" rx="4"></rect>
<rect x="173.78572413793103" y="159.99399999999997" width="4.13751724137931" height="4.13751724137931" rx="4"></rect>
<rect x="194.47331034482758" y="159.99399999999997" width="4.13751724137931" height="4.13751724137931" rx="4"></rect>
<rect x="63.451931034482755" y="166.8898620689655" width="4.13751724137931" height="4.13751724137931" rx="4"></rect>
<rect x="70.34779310344827" y="166.8898620689655" width="4.13751724137931" height="4.13751724137931" rx="4"></rect>
<rect x="77.2436551724138" y="166.8898620689655" width="4.13751724137931" height="4.13751724137931" rx="4"></rect>
<rect x="91.03537931034482" y="166.8898620689655" width="4.13751724137931" height="4.13751724137931" rx="4"></rect>
<rect x="111.72296551724138" y="166.8898620689655" width="4.13751724137931" height="4.13751724137931" rx="4"></rect>
<rect x="132.41055172413792" y="166.8898620689655" width="4.13751724137931" height="4.13751724137931" rx="4"></rect>
<rect x="63.451931034482755" y="173.78572413793103" width="4.13751724137931" height="4.13751724137931" rx="4"></rect>
<rect x="70.34779310344827" y="173.78572413793103" width="4.13751724137931" height="4.13751724137931" rx="4"></rect>
<rect x="132.41055172413792" y="173.78572413793103" width="4.13751724137931" height="4.13751724137931" rx="4"></rect>
<rect x="146.20227586206894" y="173.78572413793103" width="4.13751724137931" height="4.13751724137931" rx="4"></rect>
<rect x="159.99399999999997" y="173.78572413793103" width="4.13751724137931" height="4.13751724137931" rx="4"></rect>
<rect x="166.8898620689655" y="173.78572413793103" width="4.13751724137931" height="4.13751724137931" rx="4"></rect>
<rect x="173.78572413793103" y="173.78572413793103" width="4.13751724137931" height="4.13751724137931" rx="4"></rect>
<rect x="180.68158620689653" y="173.78572413793103" width="4.13751724137931" height="4.13751724137931" rx="4"></rect>
<rect x="187.57744827586205" y="173.78572413793103" width="4.13751724137931" height="4.13751724137931" rx="4"></rect>
<rect x="56.55606896551724" y="180.68158620689653" width="4.13751724137931" height="4.13751724137931" rx="4"></rect>
<rect x="63.451931034482755" y="180.68158620689653" width="4.13751724137931" height="4.13751724137931" rx="4"></rect>
<rect x="70.34779310344827" y="180.68158620689653" width="4.13751724137931" height="4.13751724137931" rx="4"></rect>
<rect x="97.93124137931035" y="180.68158620689653" width="4.13751724137931" height="4.13751724137931" rx="4"></rect>
<rect x="104.82710344827586" y="180.68158620689653" width="4.13751724137931" height="4.13751724137931" rx="4"></rect>
<rect x="118.61882758620689" y="180.68158620689653" width="4.13751724137931" height="4.13751724137931" rx="4"></rect>
<rect x="139.30641379310342" y="180.68158620689653" width="4.13751724137931" height="4.13751724137931" rx="4"></rect>
<rect x="146.20227586206894" y="180.68158620689653" width="4.13751724137931" height="4.13751724137931" rx="4"></rect>
<rect x="159.99399999999997" y="180.68158620689653" width="4.13751724137931" height="4.13751724137931" rx="4"></rect>
<rect x="166.8898620689655" y="180.68158620689653" width="4.13751724137931" height="4.13751724137931" rx="4"></rect>
<rect x="187.57744827586205" y="180.68158620689653" width="4.13751724137931" height="4.13751724137931" rx="4"></rect>
<rect x="194.47331034482758" y="180.68158620689653" width="4.13751724137931" height="4.13751724137931" rx="4"></rect>
<rect x="56.55606896551724" y="187.57744827586205" width="4.13751724137931" height="4.13751724137931" rx="4"></rect>
<rect x="63.451931034482755" y="187.57744827586205" width="4.13751724137931" height="4.13751724137931" rx="4"></rect>
<rect x="104.82710344827586" y="187.57744827586205" width="4.13751724137931" height="4.13751724137931" rx="4"></rect>
<rect x="111.72296551724138" y="187.57744827586205" width="4.13751724137931" height="4.13751724137931" rx="4"></rect>
<rect x="132.41055172413792" y="187.57744827586205" width="4.13751724137931" height="4.13751724137931" rx="4"></rect>
<rect x="139.30641379310342" y="187.57744827586205" width="4.13751724137931" height="4.13751724137931" rx="4"></rect>
<rect x="146.20227586206894" y="187.57744827586205" width="4.13751724137931" height="4.13751724137931" rx="4"></rect>
<rect x="173.78572413793103" y="187.57744827586205" width="4.13751724137931" height="4.13751724137931" rx="4"></rect>
<rect x="77.2436551724138" y="194.47331034482758" width="4.13751724137931" height="4.13751724137931" rx="4"></rect>
<rect x="84.13951724137931" y="194.47331034482758" width="4.13751724137931" height="4.13751724137931" rx="4"></rect>
<rect x="97.93124137931035" y="194.47331034482758" width="4.13751724137931" height="4.13751724137931" rx="4"></rect>
<rect x="111.72296551724138" y="194.47331034482758" width="4.13751724137931" height="4.13751724137931" rx="4"></rect>
<rect x="139.30641379310342" y="194.47331034482758" width="4.13751724137931" height="4.13751724137931" rx="4"></rect>
<rect x="153.09813793103447" y="194.47331034482758" width="4.13751724137931" height="4.13751724137931" rx="4"></rect>
<rect x="159.99399999999997" y="194.47331034482758" width="4.13751724137931" height="4.13751724137931" rx="4"></rect>
<rect x="166.8898620689655" y="194.47331034482758" width="4.13751724137931" height="4.13751724137931" rx="4"></rect>
<rect x="194.47331034482758" y="194.47331034482758" width="4.13751724137931" height="4.13751724137931" rx="4"></rect>
<rect x="1.3891724137931034" y="139.30641379310342" width="11.033379310344827" height="4.13751724137931" rx="2"></rect>
<rect x="28.972620689655173" y="139.30641379310342" width="24.82510344827586" height="4.13751724137931" rx="2"></rect>
<rect x="166.8898620689655" y="173.78572413793103" width="4.13751724137931" height="11.033379310344827" rx="2"></rect>
<rect x="77.2436551724138" y="194.47331034482758" width="11.033379310344827" height="4.13751724137931" rx="2"></rect>
<rect x="153.09813793103447" y="194.47331034482758" width="17.929241379310344" height="4.13751724137931" rx="2"></rect>
<rect x="63.451931034482755" y="173.78572413793103" width="11.033379310344827" height="4.13751724137931" rx="2"></rect>
<rect x="8.28503448275862" y="56.55606896551724" width="4.13751724137931" height="11.033379310344827" rx="2"></rect>
<rect x="8.28503448275862" y="77.2436551724138" width="4.13751724137931" height="11.033379310344827" rx="2"></rect>
<rect x="139.30641379310342" y="77.2436551724138" width="17.929241379310344" height="4.13751724137931" rx="2"></rect>
<rect x="153.09813793103447" y="56.55606896551724" width="4.13751724137931" height="11.033379310344827" rx="2"></rect>
<rect x="153.09813793103447" y="84.13951724137931" width="4.13751724137931" height="11.033379310344827" rx="2"></rect>
<rect x="153.09813793103447" y="111.72296551724138" width="4.13751724137931" height="11.033379310344827" rx="2"></rect>
<rect x="77.2436551724138" y="97.93124137931035" width="4.13751724137931" height="11.033379310344827" rx="2"></rect>
<rect x="77.2436551724138" y="159.99399999999997" width="4.13751724137931" height="11.033379310344827" rx="2"></rect>
<rect x="8.28503448275862" y="111.72296551724138" width="11.033379310344827" height="4.13751724137931" rx="2"></rect>
<rect x="28.972620689655173" y="111.72296551724138" width="24.82510344827586" height="4.13751724137931" rx="2"></rect>
<rect x="63.451931034482755" y="111.72296551724138" width="11.033379310344827" height="4.13751724137931" rx="2"></rect>
<rect x="97.93124137931035" y="111.72296551724138" width="17.929241379310344" height="4.13751724137931" rx="2"></rect>
<rect x="132.41055172413792" y="15.180896551724137" width="4.13751724137931" height="11.033379310344827" rx="2"></rect>
<rect x="132.41055172413792" y="56.55606896551724" width="4.13751724137931" height="17.929241379310344" rx="2"></rect>
<rect x="132.41055172413792" y="91.03537931034482" width="4.13751724137931" height="17.929241379310344" rx="2"></rect>
<rect x="132.41055172413792" y="118.61882758620689" width="4.13751724137931" height="24.82510344827586" rx="2"></rect>
<rect x="132.41055172413792" y="166.8898620689655" width="4.13751724137931" height="11.033379310344827" rx="2"></rect>
<rect x="63.451931034482755" y="153.09813793103447" width="11.033379310344827" height="4.13751724137931" rx="2"></rect>
<rect x="97.93124137931035" y="153.09813793103447" width="11.033379310344827" height="4.13751724137931" rx="2"></rect>
<rect x="173.78572413793103" y="153.09813793103447" width="11.033379310344827" height="4.13751724137931" rx="2"></rect>
<rect x="42.7643448275862" y="84.13951724137931" width="24.82510344827586" height="4.13751724137931" rx="2"></rect>
<rect x="28.972620689655173" y="84.13951724137931" width="4.13751724137931" height="11.033379310344827" rx="2"></rect>
<rect x="28.972620689655173" y="132.41055172413792" width="4.13751724137931" height="4.13751724137931" rx="2"></rect>
<rect x="56.55606896551724" y="132.41055172413792" width="17.929241379310344" height="4.13751724137931" rx="2"></rect>
<rect x="84.13951724137931" y="132.41055172413792" width="11.033379310344827" height="4.13751724137931" rx="2"></rect>
<rect x="104.82710344827586" y="132.41055172413792" width="11.033379310344827" height="4.13751724137931" rx="2"></rect>
<rect x="146.20227586206894" y="132.41055172413792" width="17.929241379310344" height="4.13751724137931" rx="2"></rect>
<rect x="187.57744827586205" y="132.41055172413792" width="11.033379310344827" height="4.13751724137931" rx="2"></rect>
<rect x="159.99399999999997" y="56.55606896551724" width="4.13751724137931" height="11.033379310344827" rx="2"></rect>
<rect x="159.99399999999997" y="111.72296551724138" width="4.13751724137931" height="17.929241379310344" rx="2"></rect>
<rect x="159.99399999999997" y="173.78572413793103" width="4.13751724137931" height="11.033379310344827" rx="2"></rect>
<rect x="91.03537931034482" y="91.03537931034482" width="4.13751724137931" height="11.033379310344827" rx="2"></rect>
<rect x="91.03537931034482" y="118.61882758620689" width="4.13751724137931" height="11.033379310344827" rx="2"></rect>
<rect x="91.03537931034482" y="159.99399999999997" width="4.13751724137931" height="11.033379310344827" rx="2"></rect>
<rect x="63.451931034482755" y="15.180896551724137" width="4.13751724137931" height="11.033379310344827" rx="2"></rect>
<rect x="63.451931034482755" y="104.82710344827586" width="4.13751724137931" height="4.13751724137931" rx="2"></rect>
<rect x="63.451931034482755" y="125.5146896551724" width="4.13751724137931" height="4.13751724137931" rx="2"></rect>
<rect x="63.451931034482755" y="146.20227586206894" width="4.13751724137931" height="4.13751724137931" rx="2"></rect>
<rect x="63.451931034482755" y="166.8898620689655" width="4.13751724137931" height="4.13751724137931" rx="2"></rect>
<rect x="63.451931034482755" y="180.68158620689653" width="4.13751724137931" height="11.033379310344827" rx="2"></rect>
<rect x="1.3891724137931034" y="125.5146896551724" width="17.929241379310344" height="4.13751724137931" rx="2"></rect>
<rect x="111.72296551724138" y="125.5146896551724" width="11.033379310344827" height="4.13751724137931" rx="2"></rect>
<rect x="28.972620689655173" y="63.451931034482755" width="11.033379310344827" height="4.13751724137931" rx="2"></rect>
<rect x="49.66020689655173" y="63.451931034482755" width="11.033379310344827" height="4.13751724137931" rx="2"></rect>
<rect x="187.57744827586205" y="63.451931034482755" width="11.033379310344827" height="4.13751724137931" rx="2"></rect>
<rect x="15.180896551724137" y="56.55606896551724" width="4.13751724137931" height="11.033379310344827" rx="2"></rect>
<rect x="15.180896551724137" y="77.2436551724138" width="4.13751724137931" height="31.720965517241375" rx="2"></rect>
<rect x="15.180896551724137" y="118.61882758620689" width="4.13751724137931" height="4.13751724137931" rx="2"></rect>
<rect x="1.3891724137931034" y="97.93124137931035" width="4.13751724137931" height="11.033379310344827" rx="2"></rect>
<rect x="22.076758620689656" y="91.03537931034482" width="4.13751724137931" height="11.033379310344827" rx="2"></rect>
<rect x="70.34779310344827" y="1.3891724137931034" width="4.13751724137931" height="11.033379310344827" rx="2"></rect>
<rect x="70.34779310344827" y="22.076758620689656" width="4.13751724137931" height="31.720965517241375" rx="2"></rect>
<rect x="70.34779310344827" y="104.82710344827586" width="4.13751724137931" height="4.13751724137931" rx="2"></rect>
<rect x="70.34779310344827" y="166.8898620689655" width="4.13751724137931" height="4.13751724137931" rx="2"></rect>
<rect x="146.20227586206894" y="173.78572413793103" width="4.13751724137931" height="17.929241379310344" rx="2"></rect>
<rect x="104.82710344827586" y="63.451931034482755" width="4.13751724137931" height="11.033379310344827" rx="2"></rect>
<rect x="104.82710344827586" y="104.82710344827586" width="4.13751724137931" height="4.13751724137931" rx="2"></rect>
<rect x="104.82710344827586" y="146.20227586206894" width="4.13751724137931" height="4.13751724137931" rx="2"></rect>
<rect x="104.82710344827586" y="180.68158620689653" width="4.13751724137931" height="11.033379310344827" rx="2"></rect>
<rect x="111.72296551724138" y="97.93124137931035" width="11.033379310344827" height="4.13751724137931" rx="2"></rect>
<rect x="173.78572413793103" y="97.93124137931035" width="11.033379310344827" height="4.13751724137931" rx="2"></rect>
<rect x="56.55606896551724" y="35.86848275862069" width="4.13751724137931" height="17.929241379310344" rx="2"></rect>
<rect x="56.55606896551724" y="91.03537931034482" width="4.13751724137931" height="17.929241379310344" rx="2"></rect>
<rect x="56.55606896551724" y="125.5146896551724" width="4.13751724137931" height="4.13751724137931" rx="2"></rect>
<rect x="56.55606896551724" y="180.68158620689653" width="4.13751724137931" height="11.033379310344827" rx="2"></rect>
<rect x="49.66020689655173" y="104.82710344827586" width="4.13751724137931" height="4.13751724137931" rx="2"></rect>
<rect x="97.93124137931035" y="28.972620689655173" width="11.033379310344827" height="4.13751724137931" rx="2"></rect>
<rect x="173.78572413793103" y="56.55606896551724" width="4.13751724137931" height="11.033379310344827" rx="2"></rect>
<rect x="173.78572413793103" y="91.03537931034482" width="4.13751724137931" height="4.13751724137931" rx="2"></rect>
<rect x="173.78572413793103" y="118.61882758620689" width="4.13751724137931" height="11.033379310344827" rx="2"></rect>
<rect x="173.78572413793103" y="139.30641379310342" width="4.13751724137931" height="11.033379310344827" rx="2"></rect>
<rect x="97.93124137931035" y="1.3891724137931034" width="17.929241379310344" height="4.13751724137931" rx="2"></rect>
<rect x="97.93124137931035" y="35.86848275862069" width="4.13751724137931" height="11.033379310344827" rx="2"></rect>
<rect x="97.93124137931035" y="84.13951724137931" width="4.13751724137931" height="17.929241379310344" rx="2"></rect>
<rect x="97.93124137931035" y="118.61882758620689" width="4.13751724137931" height="11.033379310344827" rx="2"></rect>
<rect x="166.8898620689655" y="104.82710344827586" width="11.033379310344827" height="4.13751724137931" rx="2"></rect>
<rect x="84.13951724137931" y="1.3891724137931034" width="4.13751724137931" height="11.033379310344827" rx="2"></rect>
<rect x="84.13951724137931" y="28.972620689655173" width="4.13751724137931" height="17.929241379310344" rx="2"></rect>
<rect x="84.13951724137931" y="111.72296551724138" width="4.13751724137931" height="17.929241379310344" rx="2"></rect>
<rect x="125.5146896551724" y="22.076758620689656" width="4.13751724137931" height="24.82510344827586" rx="2"></rect>
<rect x="111.72296551724138" y="15.180896551724137" width="4.13751724137931" height="11.033379310344827" rx="2"></rect>
<rect x="111.72296551724138" y="77.2436551724138" width="4.13751724137931" height="11.033379310344827" rx="2"></rect>
<rect x="111.72296551724138" y="118.61882758620689" width="4.13751724137931" height="4.13751724137931" rx="2"></rect>
<rect x="111.72296551724138" y="187.57744827586205" width="4.13751724137931" height="11.033379310344827" rx="2"></rect>
<rect x="91.03537931034482" y="56.55606896551724" width="11.033379310344827" height="4.13751724137931" rx="2"></rect>
<rect x="35.86848275862069" y="70.34779310344827" width="31.720965517241375" height="4.13751724137931" rx="2"></rect>
<rect x="194.47331034482758" y="91.03537931034482" width="4.13751724137931" height="17.929241379310344" rx="2"></rect>
<rect x="194.47331034482758" y="118.61882758620689" width="4.13751724137931" height="11.033379310344827" rx="2"></rect>
<rect x="194.47331034482758" y="146.20227586206894" width="4.13751724137931" height="17.929241379310344" rx="2"></rect>
<rect x="118.61882758620689" y="15.180896551724137" width="4.13751724137931" height="11.033379310344827" rx="2"></rect>
<rect x="118.61882758620689" y="118.61882758620689" width="4.13751724137931" height="4.13751724137931" rx="2"></rect>
<rect x="35.86848275862069" y="104.82710344827586" width="4.13751724137931" height="4.13751724137931" rx="2"></rect>
<rect x="187.57744827586205" y="173.78572413793103" width="4.13751724137931" height="11.033379310344827" rx="2"></rect>
<rect x="139.30641379310342" y="8.28503448275862" width="4.13751724137931" height="11.033379310344827" rx="2"></rect>
<rect x="139.30641379310342" y="56.55606896551724" width="4.13751724137931" height="11.033379310344827" rx="2"></rect>
<rect x="139.30641379310342" y="91.03537931034482" width="4.13751724137931" height="24.82510344827586" rx="2"></rect>
<rect x="139.30641379310342" y="180.68158620689653" width="4.13751724137931" height="17.929241379310344" rx="2"></rect>
</g>
<g shape-rendering="geometricPrecision">
<path d="M 10.343793103448276,0.0 h 27.58344827586207 a 10.343793103448276,10.343793103448276 0 0 1 10.343793103448276,10.343793103448276 v 27.58344827586207 a 10.343793103448276,10.343793103448276 0 0 1 -10.343793103448276,10.343793103448276 h -27.58344827586207 a 10.343793103448276,10.343793103448276 0 0 1 -10.343793103448276,-10.343793103448276 v -27.58344827586207 a 10.343793103448276,10.343793103448276 0 0 1 10.343793103448276,-10.343793103448276 z M 10.343793103448276,6.895862068965517 h 27.583448275862064 a 3.4479310344827585,3.4479310344827585 0 0 1 3.4479310344827585,3.4479310344827585 v 27.583448275862064 a 3.4479310344827585,3.4479310344827585 0 0 1 -3.4479310344827585,3.4479310344827585 h -27.583448275862064 a 3.4479310344827585,3.4479310344827585 0 0 1 -3.4479310344827585,-3.4479310344827585 v -27.583448275862064 a 3.4479310344827585,3.4479310344827585 0 0 1 3.4479310344827585,-3.4479310344827585 z" fill="#ffffff" fill-rule="evenodd"></path>
<path d="M 162.07275862068963,0.0 h 27.58344827586207 a 10.343793103448276,10.343793103448276 0 0 1 10.343793103448276,10.343793103448276 v 27.58344827586207 a 10.343793103448276,10.343793103448276 0 0 1 -10.343793103448276,10.343793103448276 h -27.58344827586207 a 10.343793103448276,10.343793103448276 0 0 1 -10.343793103448276,-10.343793103448276 v -27.58344827586207 a 10.343793103448276,10.343793103448276 0 0 1 10.343793103448276,-10.343793103448276 z M 162.07275862068965,6.895862068965517 h 27.583448275862064 a 3.4479310344827585,3.4479310344827585 0 0 1 3.4479310344827585,3.4479310344827585 v 27.583448275862064 a 3.4479310344827585,3.4479310344827585 0 0 1 -3.4479310344827585,3.4479310344827585 h -27.583448275862064 a 3.4479310344827585,3.4479310344827585 0 0 1 -3.4479310344827585,-3.4479310344827585 v -27.583448275862064 a 3.4479310344827585,3.4479310344827585 0 0 1 3.4479310344827585,-3.4479310344827585 z" fill="#ffffff" fill-rule="evenodd"></path>
<path d="M 10.343793103448276,151.72896551724136 h 27.58344827586207 a 10.343793103448276,10.343793103448276 0 0 1 10.343793103448276,10.343793103448276 v 27.58344827586207 a 10.343793103448276,10.343793103448276 0 0 1 -10.343793103448276,10.343793103448276 h -27.58344827586207 a 10.343793103448276,10.343793103448276 0 0 1 -10.343793103448276,-10.343793103448276 v -27.58344827586207 a 10.343793103448276,10.343793103448276 0 0 1 10.343793103448276,-10.343793103448276 z M 10.343793103448276,158.6248275862069 h 27.583448275862064 a 3.4479310344827585,3.4479310344827585 0 0 1 3.4479310344827585,3.4479310344827585 v 27.583448275862064 a 3.4479310344827585,3.4479310344827585 0 0 1 -3.4479310344827585,3.4479310344827585 h -27.583448275862064 a 3.4479310344827585,3.4479310344827585 0 0 1 -3.4479310344827585,-3.4479310344827585 v -27.583448275862064 a 3.4479310344827585,3.4479310344827585 0 0 1 3.4479310344827585,-3.4479310344827585 z" fill="#ffffff" fill-rule="evenodd"></path>
<rect x="13.791724137931034" y="13.791724137931034" width="20.68758620689655" height="20.68758620689655" fill="#ffffff" rx="3.4479310344827585"></rect>
<rect x="165.52068965517242" y="13.791724137931034" width="20.68758620689655" height="20.68758620689655" fill="#ffffff" rx="3.4479310344827585"></rect>
<rect x="13.791724137931034" y="165.52068965517242" width="20.68758620689655" height="20.68758620689655" fill="#ffffff" rx="3.4479310344827585"></rect>
</g>
</g>
</svg>