<?xml version="1.0" encoding="UTF-8"?>
<svg id="Layer_2" data-name="Layer 2" xmlns="http://www.w3.org/2000/svg" xmlns:xlink="http://www.w3.org/1999/xlink" viewBox="0 0 1079 537.96">
  <defs>
    <style>
      .cls-streaming-1 {
        filter: url(#dropshadow-5);
      }

      .cls-streaming-2 {
        letter-spacing: -.01em;
      }

      .cls-streaming-3 {
        stroke: #0042b3;
      }

      .cls-streaming-3, .cls-streaming-4 {
        stroke-miterlimit: 10;
        stroke-width: 2px;
      }

      .cls-streaming-3, .cls-streaming-4, .cls-streaming-5 {
        fill: none;
      }

      .cls-streaming-6 {
        letter-spacing: -.01em;
      }

      .cls-streaming-7 {
        letter-spacing: 0em;
      }

      .cls-streaming-8 {
        letter-spacing: 0em;
      }

      .cls-streaming-9 {
        letter-spacing: 0em;
      }

      .cls-streaming-10 {
        letter-spacing: 0em;
      }

      .cls-streaming-11 {
        fill: #fff;
      }

      .cls-streaming-12 {
        font-size: 19.65px;
      }

      .cls-streaming-12, .cls-streaming-13, .cls-streaming-14, .cls-streaming-15 {
        font-family: Montserrat-Regular, Montserrat;
      }

      .cls-streaming-16 {
        filter: url(#dropshadow-4);
      }

      .cls-streaming-17, .cls-streaming-13, .cls-streaming-18, .cls-streaming-19, .cls-streaming-14, .cls-streaming-15 {
        fill: #0042b3;
      }

      .cls-streaming-20 {
        filter: url(#dropshadow-3);
      }

      .cls-streaming-21 {
        letter-spacing: -.01em;
      }

      .cls-streaming-22 {
        filter: url(#dropshadow);
      }

      .cls-streaming-23 {
        letter-spacing: -.02em;
      }

      .cls-streaming-24 {
        opacity: .36;
      }

      .cls-streaming-25 {
        letter-spacing: 0em;
      }

      .cls-streaming-26 {
        letter-spacing: 0em;
      }

      .cls-streaming-27 {
        filter: url(#dropshadow-2);
      }

      .cls-streaming-13 {
        font-size: 23px;
      }

      .cls-streaming-28 {
        letter-spacing: 0em;
      }

      .cls-streaming-4 {
        stroke: #fff;
      }

      .cls-streaming-29 {
        letter-spacing: 0em;
      }

      .cls-streaming-18 {
        opacity: .2;
      }

      .cls-streaming-30 {
        fill: #87a6db;
      }

      .cls-streaming-19 {
        fill-rule: evenodd;
      }

      .cls-streaming-14 {
        font-size: 22px;
      }

      .cls-streaming-31 {
        letter-spacing: -.02em;
      }

      .cls-streaming-5 {
        stroke: #0042b3;
        stroke-linecap: square;
        stroke-width: 2.3px;
      }

      .cls-streaming-15 {
        font-size: 19px;
      }

      .cls-streaming-32 {
        letter-spacing: 0em;
      }

      .cls-streaming-33 {
        letter-spacing: 0em;
      }
    </style>
    <filter id="dropshadow">
      <feGaussianBlur in="SourceAlpha" stdDeviation="5"/>
      <feOffset dx="5" dy="5"/>
      <feComponentTransfer>
        <feFuncA slope="0.5" type="linear"/>
      </feComponentTransfer>
      <feMerge>
        <feMergeNode/>
        <feMergeNode in="SourceGraphic"/>
      </feMerge>
    </filter>
    <filter id="dropshadow-2" data-name="dropshadow">
      <feGaussianBlur in="SourceAlpha" stdDeviation="5"/>
      <feOffset dx="5" dy="5"/>
      <feComponentTransfer>
        <feFuncA slope="0.5" type="linear"/>
      </feComponentTransfer>
      <feMerge>
        <feMergeNode/>
        <feMergeNode in="SourceGraphic"/>
      </feMerge>
    </filter>
    <filter id="dropshadow-3" data-name="dropshadow">
      <feGaussianBlur in="SourceAlpha" stdDeviation="5"/>
      <feOffset dx="5" dy="5"/>
      <feComponentTransfer>
        <feFuncA slope="0.5" type="linear"/>
      </feComponentTransfer>
      <feMerge>
        <feMergeNode/>
        <feMergeNode in="SourceGraphic"/>
      </feMerge>
    </filter>
    <filter id="dropshadow-4" data-name="dropshadow">
      <feGaussianBlur in="SourceAlpha" stdDeviation="5"/>
      <feOffset dx="5" dy="5"/>
      <feComponentTransfer>
        <feFuncA slope="0.5" type="linear"/>
      </feComponentTransfer>
      <feMerge>
        <feMergeNode/>
        <feMergeNode in="SourceGraphic"/>
      </feMerge>
    </filter>
    <filter id="dropshadow-5" data-name="dropshadow">
      <feGaussianBlur in="SourceAlpha" stdDeviation="5"/>
      <feOffset dx="5" dy="5"/>
      <feComponentTransfer>
        <feFuncA slope="0.5" type="linear"/>
      </feComponentTransfer>
      <feMerge>
        <feMergeNode/>
        <feMergeNode in="SourceGraphic"/>
      </feMerge>
    </filter>
  </defs>
  <g id="Tokens">
    <g class="fragment fade">
    <rect class="cls-streaming-18" x="506.03" width="572.96" height="537.96" rx="51.3" ry="51.3"/>
    <g id="streaming1">
      <g>
        <line class="cls-streaming-3" x1="847.48" y1="126.45" x2="723.46" y2="126.45"/>
        <path class="cls-streaming-17" d="M833.81,116.85c-.3.46-.16,1.08.31,1.38l12.91,8.22-12.91,8.22c-.47.3-.6.92-.31,1.38s.92.6,1.38.31l14.23-9.06c.29-.18.46-.5.46-.84s-.17-.66-.46-.84l-14.23-9.06c-.17-.11-.35-.16-.54-.16-.33,0-.65.16-.84.46Z"/>
      </g>
      <text class="cls-streaming-13" transform="translate(749.93 111.96) scale(.93 1)"><tspan x="0" y="0">Spe</tspan><tspan class="cls-streaming-8" x="43.63" y="0">n</tspan><tspan x="59.25" y="0">d</tspan></text>
      <g>
        <g class="cls-streaming-22">
          <ellipse class="cls-streaming-30" cx="628.93" cy="126.45" rx="70.38" ry="69.05"/>
        </g>
        <ellipse class="cls-streaming-4" cx="629.26" cy="126.39" rx="63.05" ry="61.99"/>
        <path class="cls-streaming-11" d="M615.97,103v50.59h-12.87v-27.12c0-3.92-.09-6.27-.29-7.06-.19-.79-.72-1.39-1.58-1.8s-2.78-.61-5.75-.61h-1.27v-5.9c6.22-1.31,10.95-4.01,14.17-8.1h7.58Z"/>
        <path class="cls-streaming-17" d="M653.75,90.27h-18.84c-3.2,0-5.65,2.94-5.65,6.78v58.8c0,3.84,2.45,6.78,5.65,6.78h18.84c3.2,0,5.65-2.94,5.65-6.78v-58.8c0-3.84-2.45-6.78-5.65-6.78ZM644.33,106.1c1.13,0,1.88,1.13,1.88,2.26s-.94,2.26-1.88,2.26-1.88-1.13-1.88-2.26.75-2.26,1.88-2.26ZM644.33,112.88c1.13,0,1.88,1.13,1.88,2.26s-.94,2.26-1.88,2.26-1.88-1.13-1.88-2.26.75-2.26,1.88-2.26ZM644.33,119.67c1.13,0,1.88,1.13,1.88,2.26s-.94,2.26-1.88,2.26-1.88-1.13-1.88-2.26.75-2.26,1.88-2.26ZM646.21,137.76v2.26c0,1.36-.75,2.26-1.88,2.26s-1.88-.9-1.88-2.26v-2.26c0-1.36.75-2.26,1.88-2.26s1.88.9,1.88,2.26ZM642.45,128.71c0,1.36-.75,2.26-1.88,2.26h-1.88c-1.13,0-1.88-.9-1.88-2.26s.75-2.26,1.88-2.26h1.88c1.13,0,1.88.9,1.88,2.26ZM638.68,99.31c1.13,0,1.88,1.13,1.88,2.26s-.94,2.26-1.88,2.26-1.88-1.13-1.88-2.26.75-2.26,1.88-2.26ZM638.68,106.1c1.13,0,1.88,1.13,1.88,2.26s-.94,2.26-1.88,2.26-1.88-1.13-1.88-2.26.75-2.26,1.88-2.26ZM638.68,112.88c1.13,0,1.88,1.13,1.88,2.26s-.94,2.26-1.88,2.26-1.88-1.13-1.88-2.26.75-2.26,1.88-2.26ZM638.68,119.67c1.13,0,1.88,1.13,1.88,2.26s-.94,2.26-1.88,2.26-1.88-1.13-1.88-2.26.75-2.26,1.88-2.26ZM640.56,146.8h-1.88c-1.13,0-1.88-.9-1.88-2.26s.75-2.26,1.88-2.26h1.88c1.13,0,1.88.9,1.88,2.26s-.75,2.26-1.88,2.26ZM646.21,151.33c0,1.36-.75,2.26-1.88,2.26s-1.88-.9-1.88-2.26v-2.26c0-1.36.75-2.26,1.88-2.26s1.88.9,1.88,2.26v2.26ZM649.98,146.8h-1.88c-1.13,0-1.88-.9-1.88-2.26s.75-2.26,1.88-2.26h1.88c1.13,0,1.88.9,1.88,2.26s-.75,2.26-1.88,2.26ZM649.98,130.97h-1.88c-1.13,0-1.88-.9-1.88-2.26s.75-2.26,1.88-2.26h1.88c1.13,0,1.88.9,1.88,2.26s-.75,2.26-1.88,2.26ZM649.98,124.19c-1.13,0-1.88-1.13-1.88-2.26s.94-2.26,1.88-2.26,1.88,1.13,1.88,2.26-.75,2.26-1.88,2.26ZM649.98,117.41c-1.13,0-1.88-1.13-1.88-2.26s.94-2.26,1.88-2.26,1.88,1.13,1.88,2.26-.75,2.26-1.88,2.26ZM649.98,110.62c-1.13,0-1.88-1.13-1.88-2.26s.94-2.26,1.88-2.26,1.88,1.13,1.88,2.26-.75,2.26-1.88,2.26Z"/>
      </g>
      <g id="Page-1">
        <g id="Icon-Set-Filled">
          <path id="tv-television" class="cls-streaming-19" d="M977.24,122.02c-5.84,0-10.57-4.63-10.57-10.34s4.73-10.34,10.57-10.34,10.57,4.63,10.57,10.34-4.73,10.34-10.57,10.34h0ZM984.29,146.15h-14.1c-1.95,0-3.52-1.54-3.52-3.45s1.58-3.45,3.52-3.45h14.1c1.95,0,3.52,1.54,3.52,3.45s-1.58,3.45-3.52,3.45h0ZM984.29,156.49h-14.1c-1.95,0-3.52-1.54-3.52-3.45s1.58-3.45,3.52-3.45h14.1c1.95,0,3.52,1.54,3.52,3.45s-1.58,3.45-3.52,3.45h0ZM959.62,149.59c0,3.81-3.16,6.89-7.05,6.89h-42.29c-3.89,0-7.05-3.09-7.05-6.89v-41.36c0-3.81,3.16-6.89,7.05-6.89h42.29c3.89,0,7.05,3.09,7.05,6.89v41.36h0ZM987.81,87.55h-32.61l30.91-20.8c1.63-1.1,2.1-3.37,1.04-5.06-1.05-1.7-3.23-2.18-4.87-1.08,0,0-33.86,22.87-36.73,24.56l-36.79-24.56c-1.63-1.1-3.82-.61-4.87,1.08-1.06,1.7-.59,3.96,1.04,5.06l30.91,20.8h-32.61c-7.78,0-14.1,6.17-14.1,13.79v55.15c0,7.61,6.31,13.79,14.1,13.79h84.57c7.78,0,14.1-6.17,14.1-13.79v-55.15c0-7.61-6.31-13.79-14.1-13.79h0ZM973.72,115.12h7.05v-6.89h-7.05v6.89ZM949.05,108.23h-35.24c-1.95,0-3.52,1.54-3.52,3.45v34.47c0,1.91,1.58,3.45,3.52,3.45h35.24c1.95,0,3.52-1.54,3.52-3.45v-34.47c0-1.9-1.58-3.45-3.52-3.45h0Z"/>
        </g>
      </g>
    </g>
    <g id="streaming2">
      <g>
        <line class="cls-streaming-3" x1="628.92" y1="311.33" x2="628.52" y2="225.19"/>
        <path class="cls-streaming-17" d="M638.45,297.62c-.47-.29-1.08-.15-1.38.31l-8.16,12.94-8.28-12.87c-.3-.46-.92-.6-1.38-.3-.46.3-.6.92-.3,1.38l9.13,14.19c.19.29.5.46.85.46.34,0,.66-.18.84-.47l9-14.27c.1-.17.15-.35.15-.54,0-.33-.17-.65-.47-.84Z"/>
      </g>
      <g>
        <g class="cls-streaming-27">
          <ellipse class="cls-streaming-30" cx="629.26" cy="404.48" rx="70.38" ry="69.05"/>
        </g>
        <ellipse class="cls-streaming-4" cx="629.59" cy="404.43" rx="63.05" ry="61.99"/>
        <path class="cls-streaming-11" d="M616.3,381.03v50.59h-12.87v-27.12c0-3.92-.09-6.27-.29-7.06-.19-.79-.72-1.39-1.58-1.8s-2.78-.61-5.75-.61h-1.27v-5.9c6.22-1.31,10.95-4.01,14.17-8.1h7.58Z"/>
        <path class="cls-streaming-17" d="M654.08,368.3h-18.84c-3.2,0-5.65,2.94-5.65,6.78v58.8c0,3.84,2.45,6.78,5.65,6.78h18.84c3.2,0,5.65-2.94,5.65-6.78v-58.8c0-3.84-2.45-6.78-5.65-6.78ZM644.66,384.13c1.13,0,1.88,1.13,1.88,2.26s-.94,2.26-1.88,2.26-1.88-1.13-1.88-2.26.75-2.26,1.88-2.26ZM644.66,390.91c1.13,0,1.88,1.13,1.88,2.26s-.94,2.26-1.88,2.26-1.88-1.13-1.88-2.26.75-2.26,1.88-2.26ZM644.66,397.7c1.13,0,1.88,1.13,1.88,2.26s-.94,2.26-1.88,2.26-1.88-1.13-1.88-2.26.75-2.26,1.88-2.26ZM646.55,415.79v2.26c0,1.36-.75,2.26-1.88,2.26s-1.88-.9-1.88-2.26v-2.26c0-1.36.75-2.26,1.88-2.26s1.88.9,1.88,2.26ZM642.78,406.74c0,1.36-.75,2.26-1.88,2.26h-1.88c-1.13,0-1.88-.9-1.88-2.26s.75-2.26,1.88-2.26h1.88c1.13,0,1.88.9,1.88,2.26ZM639.01,377.35c1.13,0,1.88,1.13,1.88,2.26s-.94,2.26-1.88,2.26-1.88-1.13-1.88-2.26.75-2.26,1.88-2.26ZM639.01,384.13c1.13,0,1.88,1.13,1.88,2.26s-.94,2.26-1.88,2.26-1.88-1.13-1.88-2.26.75-2.26,1.88-2.26ZM639.01,390.91c1.13,0,1.88,1.13,1.88,2.26s-.94,2.26-1.88,2.26-1.88-1.13-1.88-2.26.75-2.26,1.88-2.26ZM639.01,397.7c1.13,0,1.88,1.13,1.88,2.26s-.94,2.26-1.88,2.26-1.88-1.13-1.88-2.26.75-2.26,1.88-2.26ZM640.89,424.84h-1.88c-1.13,0-1.88-.9-1.88-2.26s.75-2.26,1.88-2.26h1.88c1.13,0,1.88.9,1.88,2.26s-.75,2.26-1.88,2.26ZM646.55,429.36c0,1.36-.75,2.26-1.88,2.26s-1.88-.9-1.88-2.26v-2.26c0-1.36.75-2.26,1.88-2.26s1.88.9,1.88,2.26v2.26ZM650.31,424.84h-1.88c-1.13,0-1.88-.9-1.88-2.26s.75-2.26,1.88-2.26h1.88c1.13,0,1.88.9,1.88,2.26s-.75,2.26-1.88,2.26ZM650.31,409.01h-1.88c-1.13,0-1.88-.9-1.88-2.26s.75-2.26,1.88-2.26h1.88c1.13,0,1.88.9,1.88,2.26s-.75,2.26-1.88,2.26ZM650.31,402.22c-1.13,0-1.88-1.13-1.88-2.26s.94-2.26,1.88-2.26,1.88,1.13,1.88,2.26-.75,2.26-1.88,2.26ZM650.31,395.44c-1.13,0-1.88-1.13-1.88-2.26s.94-2.26,1.88-2.26,1.88,1.13,1.88,2.26-.75,2.26-1.88,2.26ZM650.31,388.65c-1.13,0-1.88-1.13-1.88-2.26s.94-2.26,1.88-2.26,1.88,1.13,1.88,2.26-.75,2.26-1.88,2.26Z"/>
        <path class="cls-streaming-24" d="M628.69,335.44c38.87,0,70.38,30.91,70.38,69.05s-31.51,69.05-70.38,69.05h-.33c-38.87,0-70.38-30.91-70.38-69.05s31.51-69.05,70.38-69.05"/>
      </g>
    </g>
    <g id="streaming3">
      <g>
        <line class="cls-streaming-3" x1="850.17" y1="409.53" x2="726.59" y2="409.53"/>
        <path class="cls-streaming-17" d="M836.5,399.93c-.3.46-.16,1.08.31,1.38l12.91,8.22-12.91,8.22c-.47.3-.6.92-.31,1.38s.92.6,1.38.31l14.23-9.06c.29-.18.46-.5.46-.84s-.17-.66-.46-.84l-14.23-9.06c-.17-.11-.35-.16-.54-.16-.33,0-.65.16-.84.46Z"/>
      </g>
      <text class="cls-streaming-14" transform="translate(745.68 396.27)"><tspan x="0" y="0">Cha</tspan><tspan class="cls-streaming-7" x="43.69" y="0">n</tspan><tspan class="cls-streaming-32" x="58.63" y="0">ge</tspan></text>
      <g>
        <g class="cls-streaming-20">
          <ellipse class="cls-streaming-30" cx="954.94" cy="406.74" rx="70.38" ry="69.05"/>
        </g>
        <ellipse class="cls-streaming-4" cx="955.27" cy="406.69" rx="63.05" ry="61.99"/>
        <path class="cls-streaming-11" d="M941.98,383.29v50.59h-12.87v-27.12c0-3.92-.09-6.27-.29-7.06-.19-.79-.72-1.39-1.58-1.8s-2.78-.61-5.75-.61h-1.27v-5.9c6.22-1.31,10.95-4.01,14.17-8.1h7.58Z"/>
        <path class="cls-streaming-17" d="M979.76,370.56h-18.84c-3.2,0-5.65,2.94-5.65,6.78v58.8c0,3.84,2.45,6.78,5.65,6.78h18.84c3.2,0,5.65-2.94,5.65-6.78v-58.8c0-3.84-2.45-6.78-5.65-6.78ZM970.34,386.39c1.13,0,1.88,1.13,1.88,2.26s-.94,2.26-1.88,2.26-1.88-1.13-1.88-2.26.75-2.26,1.88-2.26ZM970.34,393.18c1.13,0,1.88,1.13,1.88,2.26s-.94,2.26-1.88,2.26-1.88-1.13-1.88-2.26.75-2.26,1.88-2.26ZM970.34,399.96c1.13,0,1.88,1.13,1.88,2.26s-.94,2.26-1.88,2.26-1.88-1.13-1.88-2.26.75-2.26,1.88-2.26ZM972.22,418.05v2.26c0,1.36-.75,2.26-1.88,2.26s-1.88-.9-1.88-2.26v-2.26c0-1.36.75-2.26,1.88-2.26s1.88.9,1.88,2.26ZM968.45,409.01c0,1.36-.75,2.26-1.88,2.26h-1.88c-1.13,0-1.88-.9-1.88-2.26s.75-2.26,1.88-2.26h1.88c1.13,0,1.88.9,1.88,2.26ZM964.69,379.61c1.13,0,1.88,1.13,1.88,2.26s-.94,2.26-1.88,2.26-1.88-1.13-1.88-2.26.75-2.26,1.88-2.26ZM964.69,386.39c1.13,0,1.88,1.13,1.88,2.26s-.94,2.26-1.88,2.26-1.88-1.13-1.88-2.26.75-2.26,1.88-2.26ZM964.69,393.18c1.13,0,1.88,1.13,1.88,2.26s-.94,2.26-1.88,2.26-1.88-1.13-1.88-2.26.75-2.26,1.88-2.26ZM964.69,399.96c1.13,0,1.88,1.13,1.88,2.26s-.94,2.26-1.88,2.26-1.88-1.13-1.88-2.26.75-2.26,1.88-2.26ZM966.57,427.1h-1.88c-1.13,0-1.88-.9-1.88-2.26s.75-2.26,1.88-2.26h1.88c1.13,0,1.88.9,1.88,2.26s-.75,2.26-1.88,2.26ZM972.22,431.62c0,1.36-.75,2.26-1.88,2.26s-1.88-.9-1.88-2.26v-2.26c0-1.36.75-2.26,1.88-2.26s1.88.9,1.88,2.26v2.26ZM975.99,427.1h-1.88c-1.13,0-1.88-.9-1.88-2.26s.75-2.26,1.88-2.26h1.88c1.13,0,1.88.9,1.88,2.26s-.75,2.26-1.88,2.26ZM975.99,411.27h-1.88c-1.13,0-1.88-.9-1.88-2.26s.75-2.26,1.88-2.26h1.88c1.13,0,1.88.9,1.88,2.26s-.75,2.26-1.88,2.26ZM975.99,404.48c-1.13,0-1.88-1.13-1.88-2.26s.94-2.26,1.88-2.26,1.88,1.13,1.88,2.26-.75,2.26-1.88,2.26ZM975.99,397.7c-1.13,0-1.88-1.13-1.88-2.26s.94-2.26,1.88-2.26,1.88,1.13,1.88,2.26-.75,2.26-1.88,2.26ZM975.99,390.91c-1.13,0-1.88-1.13-1.88-2.26s.94-2.26,1.88-2.26,1.88,1.13,1.88,2.26-.75,2.26-1.88,2.26Z"/>
      </g>
      <text class="cls-streaming-15" transform="translate(719.19 440.67)"><tspan x="0" y="0">(if subsc</tspan><tspan class="cls-streaming-9" x="77.73" y="0">r</tspan><tspan x="85.19" y="0">iption</tspan><tspan x="20.42" y="22.8">still </tspan><tspan class="cls-streaming-26" x="57.74" y="22.8">a</tspan><tspan class="cls-streaming-10" x="68.99" y="22.8">c</tspan><tspan x="79.8" y="22.8">ti</tspan><tspan class="cls-streaming-6" x="92.62" y="22.8">v</tspan><tspan x="102.64" y="22.8">e)</tspan></text>
    </g>
    </g>
    <g id="merchant-customer">
      <g>
        <g>
          <g class="cls-streaming-16">
            <ellipse class="cls-streaming-11" cx="263.82" cy="383.19" rx="90.18" ry="88.23"/>
          </g>
          <text class="cls-streaming-12" transform="translate(214.15 434.68) scale(1.02 1)"><tspan class="cls-streaming-23" x="0" y="0">C</tspan><tspan x="13.78" y="0">us</tspan><tspan class="cls-streaming-31" x="36.62" y="0">t</tspan><tspan class="cls-streaming-28" x="44.22" y="0">o</tspan><tspan class="cls-streaming-29" x="56.55" y="0">m</tspan><tspan x="77.44" y="0">er</tspan></text>
          <path class="cls-streaming-5" d="M233.17,402.42c0-11.21,15.32-11.21,22.99-18.68,3.83-3.74-7.66-3.74-7.66-22.42,0-12.45,5.11-18.68,15.32-18.68s15.32,6.23,15.32,18.68c0,18.68-11.49,18.68-7.66,22.42,7.66,7.47,22.99,7.47,22.99,18.68"/>
        </g>
        <g>
          <path class="cls-streaming-17" d="M400.6,321.74c-3.62,0-6.58-3.11-6.58-6.91s2.96-6.91,6.58-6.91,6.58,3.11,6.58,6.91-2.96,6.91-6.58,6.91h0ZM417.05,297.57h-3.29v-18.99c0-3.8-2.96-6.91-6.58-6.91h-92.09c-1.81,0-3.29-1.55-3.29-3.45s1.48-3.45,3.29-3.45h92.09v-3.45c0-3.8-2.96-6.91-6.58-6.91h-85.51c-7.24,0-13.15,6.22-13.15,13.81v75.97c0,7.6,5.92,13.81,13.15,13.81h92.09c3.62,0,6.58-3.11,6.58-6.91v-18.99h3.29c1.81,0,3.29-1.55,3.29-3.45v-27.62c0-1.9-1.48-3.45-3.29-3.45h0Z"/>
          <g>
            <g class="cls-streaming-1">
              <ellipse class="cls-streaming-30" cx="394.03" cy="240.82" rx="48.21" ry="47.07"/>
            </g>
            <ellipse class="cls-streaming-4" cx="394.25" cy="240.78" rx="43.19" ry="42.26"/>
            <path class="cls-streaming-11" d="M385.15,224.83v34.49h-8.82v-18.49c0-2.67-.06-4.27-.2-4.81-.13-.54-.49-.95-1.08-1.22s-1.9-.42-3.94-.42h-.87v-4.02c4.26-.9,7.5-2.74,9.71-5.52h5.19Z"/>
            <path class="cls-streaming-17" d="M411.03,216.15h-12.9c-2.19,0-3.87,2-3.87,4.63v40.08c0,2.62,1.68,4.63,3.87,4.63h12.9c2.19,0,3.87-2,3.87-4.63v-40.08c0-2.62-1.68-4.63-3.87-4.63ZM404.58,226.94c.77,0,1.29.77,1.29,1.54s-.65,1.54-1.29,1.54-1.29-.77-1.29-1.54.52-1.54,1.29-1.54ZM404.58,231.57c.77,0,1.29.77,1.29,1.54s-.65,1.54-1.29,1.54-1.29-.77-1.29-1.54.52-1.54,1.29-1.54ZM404.58,236.19c.77,0,1.29.77,1.29,1.54s-.65,1.54-1.29,1.54-1.29-.77-1.29-1.54.52-1.54,1.29-1.54ZM405.87,248.52v1.54c0,.93-.52,1.54-1.29,1.54s-1.29-.62-1.29-1.54v-1.54c0-.93.52-1.54,1.29-1.54s1.29.62,1.29,1.54ZM403.29,242.36c0,.93-.52,1.54-1.29,1.54h-1.29c-.77,0-1.29-.62-1.29-1.54s.52-1.54,1.29-1.54h1.29c.77,0,1.29.62,1.29,1.54ZM400.7,222.32c.77,0,1.29.77,1.29,1.54s-.65,1.54-1.29,1.54-1.29-.77-1.29-1.54.52-1.54,1.29-1.54ZM400.7,226.94c.77,0,1.29.77,1.29,1.54s-.65,1.54-1.29,1.54-1.29-.77-1.29-1.54.52-1.54,1.29-1.54ZM400.7,231.57c.77,0,1.29.77,1.29,1.54s-.65,1.54-1.29,1.54-1.29-.77-1.29-1.54.52-1.54,1.29-1.54ZM400.7,236.19c.77,0,1.29.77,1.29,1.54s-.65,1.54-1.29,1.54-1.29-.77-1.29-1.54.52-1.54,1.29-1.54ZM401.99,254.69h-1.29c-.77,0-1.29-.62-1.29-1.54s.52-1.54,1.29-1.54h1.29c.77,0,1.29.62,1.29,1.54s-.52,1.54-1.29,1.54ZM405.87,257.77c0,.93-.52,1.54-1.29,1.54s-1.29-.62-1.29-1.54v-1.54c0-.93.52-1.54,1.29-1.54s1.29.62,1.29,1.54v1.54ZM408.45,254.69h-1.29c-.77,0-1.29-.62-1.29-1.54s.52-1.54,1.29-1.54h1.29c.77,0,1.29.62,1.29,1.54s-.52,1.54-1.29,1.54ZM408.45,243.9h-1.29c-.77,0-1.29-.62-1.29-1.54s.52-1.54,1.29-1.54h1.29c.77,0,1.29.62,1.29,1.54s-.52,1.54-1.29,1.54ZM408.45,239.27c-.77,0-1.29-.77-1.29-1.54s.65-1.54,1.29-1.54,1.29.77,1.29,1.54-.52,1.54-1.29,1.54ZM408.45,234.65c-.77,0-1.29-.77-1.29-1.54s.65-1.54,1.29-1.54,1.29.77,1.29,1.54-.52,1.54-1.29,1.54ZM408.45,230.02c-.77,0-1.29-.77-1.29-1.54s.65-1.54,1.29-1.54,1.29.77,1.29,1.54-.52,1.54-1.29,1.54Z"/>
          </g>
          <path class="cls-streaming-17" d="M400.6,321.85c-3.62,0-6.58-3.11-6.58-6.91s2.96-6.91,6.58-6.91,6.58,3.11,6.58,6.91-2.96,6.91-6.58,6.91h0ZM301.94,271.56v72.74c0,7.6,5.92,13.81,13.15,13.81h92.09c3.62,0,6.58-3.11,6.58-6.91v-18.99h3.29c1.81,0,3.29-1.55,3.29-3.45v-27.62c0-1.9-1.48-3.45-3.29-3.45h-3.29v-18.99c0-3.8-2.96-6.91-6.58-6.91h-92.09"/>
        </g>
      </g>
    </g>
    <g id="Page-1-2" data-name="Page-1">
      <g id="Icon-Set-Filled-2" data-name="Icon-Set-Filled">
        <path id="tv-television-2" data-name="tv-television" class="cls-streaming-19" d="M125.41,153.48c-8.31,0-15.05-6.64-15.05-14.83s6.74-14.83,15.05-14.83,15.05,6.64,15.05,14.83-6.74,14.83-15.05,14.83h0ZM135.45,188.08h-20.07c-2.77,0-5.02-2.21-5.02-4.94s2.24-4.94,5.02-4.94h20.07c2.77,0,5.02,2.21,5.02,4.94s-2.24,4.94-5.02,4.94h0ZM135.45,202.91h-20.07c-2.77,0-5.02-2.21-5.02-4.94s2.24-4.94,5.02-4.94h20.07c2.77,0,5.02,2.21,5.02,4.94s-2.24,4.94-5.02,4.94h0ZM100.33,193.02c0,5.46-4.49,9.89-10.03,9.89H30.1c-5.54,0-10.03-4.43-10.03-9.89v-59.32c0-5.46,4.49-9.89,10.03-9.89h60.2c5.54,0,10.03,4.43,10.03,9.89v59.32h0ZM140.46,104.05h-46.42l44.01-29.83c2.32-1.58,2.98-4.83,1.48-7.26-1.5-2.43-4.61-3.13-6.93-1.55,0,0-48.21,32.8-52.28,35.22l-52.37-35.22c-2.32-1.58-5.43-.88-6.93,1.55-1.51,2.43-.84,5.68,1.48,7.26l44.01,29.83H20.07c-11.08,0-20.07,8.85-20.07,19.77v79.09c0,10.92,8.98,19.77,20.07,19.77h120.4c11.08,0,20.07-8.85,20.07-19.77v-79.09c0-10.92-8.98-19.77-20.07-19.77h0ZM120.4,143.59h10.03v-9.89h-10.03v9.89ZM85.28,133.71h-50.17c-2.77,0-5.02,2.21-5.02,4.94v49.43c0,2.73,2.24,4.94,5.02,4.94h50.17c2.77,0,5.02-2.21,5.02-4.94v-49.43c0-2.73-2.24-4.94-5.02-4.94h0Z"/>
      </g>
    </g>
    <text class="cls-streaming-14" transform="translate(22.23 249.3)"><tspan x="0" y="0">St</tspan><tspan class="cls-streaming-21" x="22.46" y="0">r</tspan><tspan class="cls-streaming-2" x="31" y="0">e</tspan><tspan class="cls-streaming-32" x="43.96" y="0">ami</tspan><tspan class="cls-streaming-7" x="86.19" y="0">n</tspan><tspan x="101.13" y="0">g</tspan><tspan x="10.22" y="26.4">plat</tspan><tspan class="cls-streaming-25" x="52.96" y="26.4">f</tspan><tspan x="60.22" y="26.4">o</tspan><tspan class="cls-streaming-33" x="74.02" y="26.4">r</tspan><tspan x="82.66" y="26.4">m</tspan></text>
  </g>
</svg>