<?xml version="1.0" encoding="UTF-8"?>
<svg id="Layer_2" data-name="Layer 2" xmlns="http://www.w3.org/2000/svg" xmlns:xlink="http://www.w3.org/1999/xlink" viewBox="0 0 1536.28 300.25">
  <defs>
    <style>
      .cls-withdraw-1 {
        font-family: Montserrat-Bold, Montserrat;
        font-size: 13.21px;
        font-weight: 700;
      }

      .cls-withdraw-1, .cls-withdraw-2, .cls-withdraw-3, .cls-withdraw-4, .cls-withdraw-5, .cls-withdraw-6 {
        fill: #fff;
      }

      .cls-withdraw-7 {
        letter-spacing: -.02em;
      }

      .cls-withdraw-8 {
        fill: #fbd63b;
      }

      .cls-withdraw-9 {
        fill: #0042b3;
      }

      .cls-withdraw-3, .cls-withdraw-10, .cls-withdraw-11, .cls-withdraw-12, .cls-withdraw-4, .cls-withdraw-13, .cls-withdraw-14, .cls-withdraw-5 {
        stroke-miterlimit: 10;
      }

      .cls-withdraw-3, .cls-withdraw-13 {
        stroke: #fbd63b;
      }

      .cls-withdraw-10 {
        stroke: #fff;
      }

      .cls-withdraw-10, .cls-withdraw-11, .cls-withdraw-13, .cls-withdraw-14 {
        fill: none;
      }

      .cls-withdraw-15 {
        filter: url(#dropshadow3-2);
      }

      .cls-withdraw-16, .cls-withdraw-12 {
        fill: #0042b3;
      }

      .cls-withdraw-17 {
        filter: url(#dropshadow);
      }

      .cls-withdraw-18 {
        font-size: 17.82px;
      }

      .cls-withdraw-18, .cls-withdraw-6 {
        font-family: Montserrat-Regular, Montserrat;
      }

      .cls-withdraw-11, .cls-withdraw-12, .cls-withdraw-4, .cls-withdraw-14, .cls-withdraw-5 {
        stroke: #0042b3;
      }

      .cls-withdraw-19 {
        fill: #c6d6ee;
      }

      .cls-withdraw-20 {
        filter: url(#dropshadow-2);
      }

      .cls-withdraw-12 {
        stroke-width: .75px;
      }

      .cls-withdraw-4 {
        stroke-width: 2px;
      }

      .cls-withdraw-21 {
        filter: url(#dropshadow3-4);
      }

      .cls-withdraw-22 {
        letter-spacing: -.02em;
      }

      .cls-withdraw-23 {
        filter: url(#dropshadow3-3);
      }

      .cls-withdraw-24 {
        letter-spacing: 0em;
      }

      .cls-withdraw-14 {
        stroke-width: 4px;
      }

      .cls-withdraw-25 {
        fill: #fbd63b;
      }

      .cls-withdraw-6 {
        font-size: 18.45px;
      }

      .cls-withdraw-26 {
        filter: url(#dropshadow3);
      }
    </style>
    <filter id="dropshadow3">
      <feGaussianBlur in="SourceAlpha" stdDeviation="1"/>
      <feOffset dx="2" dy="2"/>
      <feComponentTransfer>
        <feFuncA slope="0.3" type="linear"/>
      </feComponentTransfer>
      <feMerge>
        <feMergeNode/>
        <feMergeNode in="SourceGraphic"/>
      </feMerge>
    </filter>
    <filter id="dropshadow3-2" data-name="dropshadow3">
      <feGaussianBlur in="SourceAlpha" stdDeviation="1"/>
      <feOffset dx="2" dy="2"/>
      <feComponentTransfer>
        <feFuncA slope="0.3" type="linear"/>
      </feComponentTransfer>
      <feMerge>
        <feMergeNode/>
        <feMergeNode in="SourceGraphic"/>
      </feMerge>
    </filter>
    <filter id="dropshadow">
      <feGaussianBlur in="SourceAlpha" stdDeviation="5"/>
      <feOffset dx="5" dy="5"/>
      <feComponentTransfer>
        <feFuncA slope="0.5" type="linear"/>
      </feComponentTransfer>
      <feMerge>
        <feMergeNode/>
        <feMergeNode in="SourceGraphic"/>
      </feMerge>
    </filter>
    <filter id="dropshadow-2" data-name="dropshadow">
      <feGaussianBlur in="SourceAlpha" stdDeviation="5"/>
      <feOffset dx="5" dy="5"/>
      <feComponentTransfer>
        <feFuncA slope="0.5" type="linear"/>
      </feComponentTransfer>
      <feMerge>
        <feMergeNode/>
        <feMergeNode in="SourceGraphic"/>
      </feMerge>
    </filter>
    <filter id="dropshadow3-3" data-name="dropshadow3">
      <feGaussianBlur in="SourceAlpha" stdDeviation="1"/>
      <feOffset dx="2" dy="2"/>
      <feComponentTransfer>
        <feFuncA slope="0.3" type="linear"/>
      </feComponentTransfer>
      <feMerge>
        <feMergeNode/>
        <feMergeNode in="SourceGraphic"/>
      </feMerge>
    </filter>
    <filter id="dropshadow3-4" data-name="dropshadow3">
      <feGaussianBlur in="SourceAlpha" stdDeviation="1"/>
      <feOffset dx="2" dy="2"/>
      <feComponentTransfer>
        <feFuncA slope="0.3" type="linear"/>
      </feComponentTransfer>
      <feMerge>
        <feMergeNode/>
        <feMergeNode in="SourceGraphic"/>
      </feMerge>
    </filter>
  </defs>
  <g id="withdrawjs">
    <g id="coin" data-id="coin">
      <rect class="cls-withdraw-19" width="177.77" height="298.46" rx="22.69" ry="22.69"/>
      <g id="coin-content" class="fragment fade">
        <g class="cls-withdraw-23">
          <rect class="cls-withdraw-2" x="16.43" y="94.55" width="141.88" height="186.91" rx="9.91" ry="9.91"/>
          <rect class="cls-withdraw-11" x="16.43" y="94.55" width="141.88" height="186.91" rx="9.91" ry="9.91"/>
        </g>
        <g>
          <ellipse class="cls-withdraw-3" cx="55.93" cy="124.61" rx="21.13" ry="21.31"/>
          <path class="cls-withdraw-8" d="M62.53,125.9l2.26,2.39,2.26-2.39,2.26,2.39,2.78-3.68-2.78-3.68h-14.07c-1.25-2.43-3.65-4.05-6.42-4.05-4.03,0-7.29,3.46-7.29,7.73s3.26,7.73,7.29,7.73c2.78,0,5.17-1.62,6.42-4.05h2.26l1.39-1.47,1.39,1.47,2.26-2.39h0ZM45.69,126.82c-1.15,0-2.08-.99-2.08-2.21s.94-2.21,2.08-2.21,2.08.99,2.08,2.21-.94,2.21-2.08,2.21h0Z"/>
        </g>
        <g>
          <ellipse class="cls-withdraw-3" cx="117.63" cy="124.94" rx="21.65" ry="21.6"/>
          <path class="cls-withdraw-8" d="M118.3,132.18v1.81h-1.34v-1.81c-1.14-.4-1.84-1.84-.92-3.34,1.67-1.47,3.61-.26,3.61,1.39,0,.89-.57,1.64-1.34,1.95h0ZM112.59,119.64c0-4.47,5.6-7.59,10.08-2.5v6.29s-5.04-.38-5.04-.38l-5.04.38v-3.79h0ZM124.68,123.57v-3.93c0-3.96-3.16-7.17-7.06-7.17s-7.06,3.21-7.06,7.17v3.93l-2.35.17v12.98l9.41.68,9.41-.68v-12.98l-2.35-.17h0Z"/>
        </g>
        <g>
          <ellipse class="cls-withdraw-5" cx="85.81" cy="247.1" rx="22.41" ry="22.06"/>
          <path class="cls-withdraw-16" d="M86.3,260.85v1.33h-.99v-1.33c-.84-.29-1.35-1.35-.68-2.45,1.23-1.07,2.66-.19,2.66,1.02,0,.65-.42,1.2-.99,1.43h0ZM82.1,251.66c0-3.28,4.12-5.56,7.42-1.83v4.61s-3.71-.28-3.71-.28l-3.71.28v-2.78h0ZM91,254.54v-2.88c0-2.9-2.32-5.25-5.19-5.25s-5.19,2.35-5.19,5.25v2.88l-1.73.13v9.51l6.92.5,6.92-.5v-9.51l-1.73-.13h0Z"/>
          <g>
            <path class="cls-withdraw-16" d="M79.4,230.11v13.5h-3.41v-7.24c0-1.04-.03-1.67-.08-1.88-.05-.21-.19-.37-.42-.48-.23-.11-.73-.16-1.52-.16h-.34v-1.57c1.65-.35,2.9-1.07,3.75-2.16h2.01Z"/>
            <path class="cls-withdraw-16" d="M88.75,234.68v4.5c0,1.02-.06,1.77-.17,2.23s-.35.9-.7,1.31c-.35.41-.78.7-1.28.88-.5.18-1.06.27-1.68.27-.82,0-1.49-.09-2.03-.28-.54-.19-.97-.48-1.29-.87-.32-.39-.55-.81-.68-1.25s-.2-1.13-.2-2.08v-4.71c0-1.24.11-2.17.32-2.78.22-.62.65-1.11,1.29-1.48.64-.37,1.42-.56,2.34-.56.75,0,1.42.13,2.01.39.59.26,1.03.57,1.32.95.29.37.49.79.59,1.26.1.47.16,1.21.16,2.23ZM85.35,233.55c0-.72-.04-1.17-.11-1.35-.07-.18-.23-.27-.49-.27s-.42.1-.5.29-.12.63-.12,1.33v6.59c0,.78.04,1.26.11,1.42.08.16.24.24.49.24s.42-.09.5-.28c.08-.19.12-.61.12-1.28v-6.68Z"/>
            <path class="cls-withdraw-16" d="M97.96,234.05h-3.41v-.56c0-.59-.04-.98-.12-1.17s-.25-.28-.51-.28c-.21,0-.36.08-.47.24-.1.16-.16.4-.16.71,0,.53.11.9.32,1.11.21.21.82.62,1.84,1.23.87.52,1.46.91,1.77,1.19.31.28.58.66.8,1.17.22.5.32,1.13.32,1.88,0,1.2-.29,2.14-.88,2.83s-1.46,1.11-2.63,1.27v1.27h-1.57v-1.31c-.91-.09-1.71-.43-2.39-1.04-.68-.6-1.02-1.65-1.02-3.16v-.66h3.41v.83c0,.91.04,1.47.11,1.69.07.22.24.33.51.33.23,0,.4-.08.51-.23s.17-.38.17-.68c0-.76-.05-1.3-.16-1.62-.11-.32-.47-.68-1.1-1.06-1.04-.64-1.75-1.12-2.12-1.42-.37-.3-.7-.73-.97-1.28-.27-.55-.41-1.17-.41-1.87,0-1.01.29-1.79.86-2.37.58-.57,1.44-.93,2.59-1.06v-1.08h1.57v1.08c1.05.13,1.84.48,2.36,1.05.52.56.78,1.34.78,2.34,0,.14-.01.35-.03.63Z"/>
          </g>
        </g>
      </g>
      <g>
        <g class="cls-withdraw-21">
          <ellipse class="cls-withdraw-25" cx="90.73" cy="46.36" rx="33.5" ry="33.03"/>
        </g>
        <ellipse class="cls-withdraw-10" cx="90.8" cy="46.42" rx="26.58" ry="26.21"/>
        <g>
          <path class="cls-withdraw-2" d="M77.89,34.66v22.21h-5.9v-11.91c0-1.72-.04-2.75-.13-3.1-.09-.35-.33-.61-.72-.79-.39-.18-1.27-.27-2.64-.27h-.58v-2.59c2.85-.58,5.02-1.76,6.5-3.56h3.48Z"/>
          <path class="cls-withdraw-2" d="M94.1,42.18v7.41c0,1.68-.1,2.91-.29,3.68s-.6,1.49-1.21,2.15c-.61.67-1.35,1.15-2.22,1.44-.87.29-1.84.44-2.91.44-1.41,0-2.59-.15-3.52-.46-.94-.31-1.68-.78-2.24-1.43-.55-.65-.95-1.33-1.18-2.05-.23-.72-.35-1.86-.35-3.42v-7.75c0-2.04.19-3.57.56-4.58.37-1.01,1.12-1.83,2.24-2.44,1.11-.61,2.47-.92,4.05-.92,1.3,0,2.45.21,3.48.64,1.02.43,1.79.94,2.29,1.56.51.61.85,1.3,1.03,2.07.18.77.27,1.99.27,3.68ZM88.2,40.31c0-1.18-.06-1.92-.18-2.22-.12-.3-.41-.45-.85-.45s-.73.16-.87.47-.21,1.04-.21,2.19v10.84c0,1.29.07,2.07.2,2.33.13.27.42.4.85.4s.73-.15.86-.47c.14-.31.2-1.01.2-2.1v-11Z"/>
          <path class="cls-withdraw-2" d="M110.05,41.13h-5.9v-.92c0-.98-.07-1.62-.2-1.92s-.43-.45-.88-.45c-.36,0-.63.13-.81.39-.18.26-.27.65-.27,1.17,0,.87.19,1.48.56,1.82.36.35,1.42,1.02,3.18,2.03,1.5.85,2.52,1.5,3.07,1.96.54.45,1.01,1.09,1.38,1.92.37.83.56,1.86.56,3.09,0,1.98-.51,3.53-1.52,4.65s-2.53,1.82-4.56,2.09v2.09h-2.72v-2.15c-1.58-.15-2.96-.72-4.13-1.71-1.18-.99-1.77-2.72-1.77-5.19v-1.08h5.9v1.36c0,1.49.06,2.42.18,2.78.12.36.42.54.88.54.4,0,.7-.13.89-.38s.29-.62.29-1.12c0-1.24-.09-2.13-.28-2.67-.19-.53-.82-1.12-1.9-1.75-1.8-1.06-3.03-1.84-3.67-2.34-.65-.5-1.21-1.2-1.68-2.11-.47-.91-.71-1.93-.71-3.07,0-1.66.5-2.95,1.5-3.9,1-.94,2.5-1.52,4.49-1.74v-1.77h2.72v1.77c1.82.22,3.18.79,4.09,1.72.91.93,1.36,2.21,1.36,3.85,0,.23-.02.58-.06,1.04Z"/>
        </g>
      </g>
    </g>
    <g id="to-blind" class="fragment fade-in-then-out">
      <g>
        <path class="cls-withdraw-14" d="M548.36,8.88l108.51,88.18v148.15h-217.02V97.07l108.51-88.18ZM439.85,97.07l76.73,74.11-76.73,74.04,76.73-74.04c17.73-17.11,45.82-17.11,63.55,0l76.73,74.04-76.73-74.04,76.73-74.11"/>
        <path class="cls-withdraw-19" d="M516.92,168.77l-51.19-49.68-.31-60.39c0-7.83,6.35-14.17,14.17-14.17h134.28c7.83,0,14.17,6.35,14.17,14.17l.95,62.01-49.53,48.06-1.38-1.18c-17.75-15.14-44.01-14.63-61.16,1.18h0Z"/>
      </g>
      <g>
        <ellipse class="cls-withdraw-4" cx="549.62" cy="205.48" rx="27.87" ry="28.35"/>
        <path class="cls-withdraw-16" d="M550.24,223.14v1.7h-1.23v-1.7c-1.04-.38-1.68-1.73-.84-3.14,1.53-1.38,3.3-.24,3.3,1.31,0,.84-.52,1.54-1.23,1.83h0ZM545.01,211.34c0-4.21,5.13-7.14,9.23-2.35v5.92s-4.61-.35-4.61-.35l-4.61.35v-3.57h0ZM556.08,215.04v-3.7c0-3.73-2.89-6.75-6.46-6.75s-6.46,3.02-6.46,6.75v3.7l-2.15.16v12.22l8.61.64,8.61-.64v-12.22l-2.15-.16h0Z"/>
        <g>
          <path class="cls-withdraw-16" d="M540.75,184.5v16.47h-4.41v-8.83c0-1.27-.03-2.04-.1-2.3-.07-.26-.25-.45-.54-.58-.29-.13-.95-.2-1.97-.2h-.44v-1.92c2.13-.43,3.75-1.31,4.86-2.64h2.6Z"/>
          <path class="cls-withdraw-16" d="M552.87,190.08v5.49c0,1.25-.07,2.16-.22,2.73s-.45,1.1-.91,1.6c-.46.49-1.01.85-1.66,1.07-.65.22-1.37.33-2.17.33-1.06,0-1.93-.11-2.63-.34-.7-.23-1.26-.58-1.67-1.06-.41-.48-.71-.99-.88-1.52s-.26-1.38-.26-2.54v-5.75c0-1.51.14-2.64.42-3.4.28-.75.84-1.36,1.67-1.81.83-.45,1.84-.68,3.03-.68.97,0,1.83.16,2.6.47.76.32,1.34.7,1.71,1.15.38.45.63.97.77,1.54.13.57.2,1.48.2,2.73ZM548.46,188.7c0-.88-.05-1.42-.14-1.64-.09-.22-.3-.33-.64-.33s-.54.12-.65.35-.16.77-.16,1.62v8.04c0,.96.05,1.53.15,1.73.1.2.31.29.64.29s.54-.11.64-.35c.1-.23.15-.75.15-1.56v-8.16Z"/>
          <path class="cls-withdraw-16" d="M564.78,189.31h-4.41v-.68c0-.73-.05-1.2-.15-1.42s-.32-.34-.65-.34c-.27,0-.47.1-.61.29-.13.19-.2.48-.2.87,0,.64.14,1.1.42,1.35.27.26,1.06.76,2.38,1.51,1.12.63,1.88,1.11,2.29,1.45.41.34.75.81,1.03,1.42.28.61.42,1.38.42,2.29,0,1.46-.38,2.61-1.13,3.45s-1.89,1.35-3.41,1.55v1.55h-2.03v-1.6c-1.18-.11-2.21-.53-3.09-1.27-.88-.74-1.32-2.02-1.32-3.85v-.8h4.41v1.01c0,1.11.05,1.79.14,2.06.09.27.31.4.66.4.3,0,.52-.09.67-.28s.22-.46.22-.83c0-.92-.07-1.58-.21-1.98-.14-.4-.61-.83-1.42-1.3-1.35-.79-2.26-1.37-2.74-1.73-.48-.37-.9-.89-1.25-1.56-.35-.67-.53-1.43-.53-2.28,0-1.23.37-2.19,1.12-2.89.75-.7,1.86-1.13,3.36-1.29v-1.31h2.03v1.31c1.36.16,2.38.59,3.06,1.28.68.69,1.02,1.64,1.02,2.85,0,.17-.02.43-.04.77Z"/>
        </g>
      </g>
      <g id="pk-to-blind">
        <g class="cls-withdraw-26">
          <ellipse class="cls-withdraw-2" cx="577.41" cy="97.67" rx="24.55" ry="24.56"/>
          <ellipse class="cls-withdraw-13" cx="577.41" cy="97.67" rx="24.55" ry="24.56"/>
        </g>
        <path class="cls-withdraw-8" d="M578.17,105.91v2.06h-1.52v-2.06c-1.29-.46-2.09-2.1-1.04-3.8,1.9-1.67,4.09-.29,4.09,1.58,0,1.01-.65,1.86-1.52,2.21h0ZM571.69,91.65c0-5.09,6.35-8.63,11.43-2.84v7.15s-5.71-.43-5.71-.43l-5.71.43v-4.31h0ZM585.41,96.12v-4.47c0-4.51-3.58-8.16-8-8.16s-8,3.65-8,8.16v4.47l-2.67.19v14.76l10.67.78,10.67-.78v-14.76l-2.67-.19h0Z"/>
      </g>
    </g>
    <g id="blinded" data-id="blinded" class="fragment fade-in">
      <g transform="translate(0 0)">
        <path class="cls-withdraw-14" d="M439.49,97.67h217.02v147.54h-217.02V97.67ZM439.49,97.67l100.34,97.02c4.57,4.42,11.81,4.42,16.38,0l100.29-97.02M439.49,245.21l76.62-73.46M656.51,245.21l-76.89-73.16"/>
        <g id="sig-on-blinded" style="opacity:0">
          <g>
            <rect class="cls-withdraw-4" x="503.66" y="103.32" width="90.63" height="50.15" rx="5.58" ry="5.58"/>
            <path class="cls-withdraw-12" d="M548.98,153.52h-36.66c-6.72-.61-8.65-3.94-8.65-8.81v-32.54c0-6.84,3.87-8.81,8.65-8.81h36.66"/>
          </g>
          <g>
            <ellipse class="cls-withdraw-4" cx="525.41" cy="135.08" rx="13.97" ry="14.44"/>
            <path class="cls-withdraw-16" d="M528.71,140.89l1.18,1.23,1.18-1.23,1.18,1.23,1.46-1.89-1.46-1.89h-7.38c-.66-1.25-1.91-2.08-3.37-2.08-2.11,0-3.83,1.78-3.83,3.98s1.71,3.98,3.83,3.98c1.46,0,2.72-.83,3.37-2.08h1.18l.73-.76.73.76,1.18-1.23h0ZM519.87,141.36c-.6,0-1.09-.51-1.09-1.14s.49-1.14,1.09-1.14,1.09.51,1.09,1.14-.49,1.14-1.09,1.14h0Z"/>
            <g>
              <path class="cls-withdraw-16" d="M522.23,125.6v7.73h-1.82v-4.14c0-.6-.01-.96-.04-1.08-.03-.12-.1-.21-.22-.27-.12-.06-.39-.09-.81-.09h-.18v-.9c.88-.2,1.55-.61,2.01-1.24h1.07Z"/>
              <path class="cls-withdraw-16" d="M527.23,128.22v2.58c0,.59-.03,1.01-.09,1.28s-.18.52-.37.75c-.19.23-.42.4-.69.5-.27.1-.57.15-.9.15-.44,0-.8-.05-1.09-.16-.29-.11-.52-.27-.69-.5-.17-.23-.29-.46-.37-.71s-.11-.65-.11-1.19v-2.7c0-.71.06-1.24.17-1.59.12-.35.35-.64.69-.85.34-.21.76-.32,1.25-.32.4,0,.76.07,1.07.22.32.15.55.33.71.54.16.21.26.45.32.72.06.27.08.69.08,1.28ZM525.41,127.57c0-.41-.02-.67-.06-.77-.04-.1-.13-.16-.26-.16s-.22.06-.27.16-.07.36-.07.76v3.77c0,.45.02.72.06.81.04.09.13.14.26.14s.22-.05.27-.16c.04-.11.06-.35.06-.73v-3.83Z"/>
              <path class="cls-withdraw-16" d="M532.16,127.85h-1.82v-.32c0-.34-.02-.56-.06-.67s-.13-.16-.27-.16c-.11,0-.19.05-.25.14-.06.09-.08.23-.08.41,0,.3.06.51.17.63.11.12.44.36.98.71.46.3.78.52.95.68.17.16.31.38.43.67.12.29.17.65.17,1.08,0,.69-.16,1.23-.47,1.62s-.78.63-1.41.73v.73h-.84v-.75c-.49-.05-.91-.25-1.28-.59-.36-.35-.55-.95-.55-1.81v-.38h1.82v.47c0,.52.02.84.06.97.04.13.13.19.27.19.12,0,.21-.04.28-.13s.09-.22.09-.39c0-.43-.03-.74-.09-.93-.06-.19-.25-.39-.59-.61-.56-.37-.93-.64-1.13-.81-.2-.17-.37-.42-.52-.73-.15-.32-.22-.67-.22-1.07,0-.58.15-1.03.46-1.36.31-.33.77-.53,1.39-.61v-.62h.84v.62c.56.08.98.28,1.26.6.28.32.42.77.42,1.34,0,.08,0,.2-.02.36Z"/>
            </g>
          </g>
          <text class="cls-withdraw-1" transform="translate(516.89 116.42) scale(.97 1)"><tspan x="0" y="0">Sig</tspan></text>
        </g>
        <g>
          <ellipse class="cls-withdraw-4" cx="549.27" cy="205.48" rx="27.87" ry="28.35"/>
          <path class="cls-withdraw-16" d="M549.88,223.14v1.7h-1.23v-1.7c-1.04-.38-1.68-1.73-.84-3.14,1.53-1.38,3.3-.24,3.3,1.31,0,.84-.52,1.54-1.23,1.83h0ZM544.65,211.34c0-4.21,5.13-7.14,9.23-2.35v5.92s-4.61-.35-4.61-.35l-4.61.35v-3.57h0ZM555.72,215.04v-3.7c0-3.73-2.89-6.75-6.46-6.75s-6.46,3.02-6.46,6.75v3.7l-2.15.16v12.22l8.61.64,8.61-.64v-12.22l-2.15-.16h0Z"/>
          <g>
            <path class="cls-withdraw-16" d="M540.4,184.5v16.47h-4.41v-8.83c0-1.27-.03-2.04-.1-2.3-.07-.26-.25-.45-.54-.58-.29-.13-.95-.2-1.97-.2h-.44v-1.92c2.13-.43,3.75-1.31,4.86-2.64h2.6Z"/>
            <path class="cls-withdraw-16" d="M552.51,190.08v5.49c0,1.25-.07,2.16-.22,2.73s-.45,1.1-.91,1.6c-.46.49-1.01.85-1.66,1.07-.65.22-1.37.33-2.17.33-1.06,0-1.93-.11-2.63-.34-.7-.23-1.26-.58-1.67-1.06-.41-.48-.71-.99-.88-1.52s-.26-1.38-.26-2.54v-5.75c0-1.51.14-2.64.42-3.4.28-.75.84-1.36,1.67-1.81.83-.45,1.84-.68,3.03-.68.97,0,1.83.16,2.6.47.76.32,1.34.7,1.71,1.15.38.45.63.97.77,1.54.13.57.2,1.48.2,2.73ZM548.1,188.7c0-.88-.05-1.42-.14-1.64-.09-.22-.3-.33-.64-.33s-.54.12-.65.35-.16.77-.16,1.62v8.04c0,.96.05,1.53.15,1.73.1.2.31.29.64.29s.54-.11.64-.35c.1-.23.15-.75.15-1.56v-8.16Z"/>
            <path class="cls-withdraw-16" d="M564.43,189.31h-4.41v-.68c0-.73-.05-1.2-.15-1.42s-.32-.34-.65-.34c-.27,0-.47.1-.61.29-.13.19-.2.48-.2.87,0,.64.14,1.1.42,1.35.27.26,1.06.76,2.38,1.51,1.12.63,1.88,1.11,2.29,1.45.41.34.75.81,1.03,1.42.28.61.42,1.38.42,2.29,0,1.46-.38,2.61-1.13,3.45s-1.89,1.35-3.41,1.55v1.55h-2.03v-1.6c-1.18-.11-2.21-.53-3.09-1.27-.88-.74-1.32-2.02-1.32-3.85v-.8h4.41v1.01c0,1.11.05,1.79.14,2.06.09.27.31.4.66.4.3,0,.52-.09.67-.28s.22-.46.22-.83c0-.92-.07-1.58-.21-1.98-.14-.4-.61-.83-1.42-1.3-1.35-.79-2.26-1.37-2.74-1.73-.48-.37-.9-.89-1.25-1.56-.35-.67-.53-1.43-.53-2.28,0-1.23.37-2.19,1.12-2.89.75-.7,1.86-1.13,3.36-1.29v-1.31h2.03v1.31c1.36.16,2.38.59,3.06,1.28.68.69,1.02,1.64,1.02,2.85,0,.17-.02.43-.04.77Z"/>
          </g>
        </g>
      </g>
    </g>
    <g id="customer" data-id="customer">
      <g class="cls-withdraw-17">
        <ellipse class="cls-withdraw-2" cx="295.6" cy="164.97" rx="80.92" ry="80.02"/>
      </g>
      <text class="cls-withdraw-18" transform="translate(251.07 211.67) scale(1.01 1)"><tspan class="cls-withdraw-7" x="0" y="0">C</tspan><tspan class="cls-withdraw-24" x="12.49" y="0">us</tspan><tspan class="cls-withdraw-22" x="33.17" y="0">t</tspan><tspan x="40.07" y="0">omer</tspan></text>
      <path class="cls-withdraw-9" d="M324.25,183.56h-2.3v-1.15c0-5.59-4.8-7.73-10.36-10.21-3.53-1.58-7.19-3.21-9.93-5.91-2.15-2.12-.57-3.79.81-5.25,2.14-2.26,5.72-6.05,5.72-15.89,0-10.62-4.12-15.79-12.6-15.79s-12.6,5.17-12.6,15.79c0,9.85,3.58,13.63,5.72,15.89,1.39,1.47,2.96,3.14.82,5.25-2.74,2.7-6.39,4.33-9.93,5.91-5.56,2.48-10.36,4.62-10.36,10.21v1.15h-2.3v-1.15c0-7.08,5.96-9.74,11.72-12.32,3.35-1.5,6.81-3.04,9.25-5.45q.54-.54-.87-2.03c-2.22-2.35-6.35-6.71-6.35-17.48,0-12,5.01-18.09,14.9-18.09s14.9,6.09,14.9,18.09c0,10.76-4.13,15.13-6.35,17.48q-1.42,1.5-.87,2.03c2.44,2.4,5.9,3.95,9.25,5.44,5.76,2.57,11.72,5.23,11.72,12.32v1.15Z"/>
    </g>
    <g id="bank-complete" data-id="bank-complete">
      <g id="bank">
        <g class="cls-withdraw-20">
          <ellipse class="cls-withdraw-16" cx="1352.75" cy="161.96" rx="80.9" ry="82.81"/>
        </g>
        <g>
          <path class="cls-withdraw-2" d="M1384.24,181.03c0-2.46-1.94-4.45-4.32-4.45h-2.16v-32.28h6.49c1.94,0,3.64-1.33,4.16-3.25.52-1.92-.26-3.97-1.92-5.01l-30.26-18.92c-.69-.43-1.47-.65-2.24-.65s-1.55.21-2.24.65l-30.26,18.92c-1.66,1.04-2.44,3.08-1.92,5.01.52,1.92,2.22,3.25,4.16,3.25h6.49v32.28h-2.16c-2.39,0-4.32,1.99-4.32,4.45-2.39,0-4.32,1.99-4.32,4.45v2.23h69.18v-2.23c0-2.46-1.94-4.45-4.32-4.45h0ZM1375.6,176.58h-4.32v-32.28h4.32v32.28h0ZM1338.85,144.3h4.32v32.28h-4.32v-32.28h0ZM1345.33,144.3h4.32v32.28h-4.32v-32.28h0ZM1351.82,144.3h4.32v32.28h-4.32v-32.28h0ZM1358.3,144.3h4.32v32.28h-4.32v-32.28h0ZM1364.79,144.3h4.32v32.28h-4.32v-32.28h0ZM1323.71,142.07c-.97,0-1.82-.67-2.08-1.63-.26-.96.13-1.99.96-2.5l30.26-18.92c.34-.21.73-.32,1.12-.32s.78.11,1.12.32l30.26,18.92c.83.52,1.22,1.55.96,2.5-.26.96-1.12,1.63-2.08,1.63h-60.53ZM1332.36,144.3h4.32v32.28h-4.32v-32.28h0ZM1328.04,178.8h51.88c1.19,0,2.16,1,2.16,2.23h-56.21c0-1.23.97-2.23,2.16-2.23h0ZM1321.55,185.48c0-1.23.97-2.23,2.16-2.23h60.53c1.19,0,2.16,1,2.16,2.23h-64.85Z"/>
          <path class="cls-withdraw-2" d="M1353.98,126.49c-2.99,0-5.4,2.49-5.4,5.57s2.42,5.57,5.4,5.57,5.4-2.49,5.4-5.57-2.42-5.57-5.4-5.57h0ZM1353.98,135.39c-1.79,0-3.24-1.49-3.24-3.34s1.45-3.34,3.24-3.34,3.24,1.49,3.24,3.34-1.45,3.34-3.24,3.34h0Z"/>
        </g>
        <text class="cls-withdraw-6" transform="translate(1305.93 216.44) scale(.98 1)"><tspan x="0" y="0">Exchange</tspan></text>
      </g>
      <g>
        <circle class="cls-withdraw-4" cx="1425" cy="226.14" r="30"/>
        <path class="cls-withdraw-16" d="M1432.08,239.16l2.59,2.62,2.59-2.62,2.59,2.62,3.19-4.03-3.19-4.03h-16.15c-1.44-2.66-4.19-4.43-7.38-4.43-4.63,0-8.37,3.79-8.37,8.46s3.75,8.46,8.37,8.46c3.19,0,5.94-1.77,7.38-4.43h2.59l1.6-1.61,1.6,1.61,2.59-2.62h0ZM1412.73,240.16c-1.32,0-2.39-1.09-2.39-2.42s1.08-2.42,2.39-2.42,2.39,1.09,2.39,2.42-1.08,2.42-2.39,2.42h0Z"/>
        <g>
          <path class="cls-withdraw-16" d="M1415.9,207.6v16.47h-4.41v-8.83c0-1.27-.03-2.04-.1-2.3-.07-.26-.25-.45-.54-.58-.29-.13-.95-.2-1.97-.2h-.44v-1.92c2.13-.43,3.75-1.31,4.86-2.64h2.6Z"/>
          <path class="cls-withdraw-16" d="M1428.02,213.17v5.49c0,1.25-.07,2.16-.22,2.73s-.45,1.1-.91,1.6c-.46.49-1.01.85-1.66,1.07-.65.22-1.37.33-2.17.33-1.06,0-1.93-.11-2.63-.34-.7-.23-1.26-.58-1.67-1.06-.41-.48-.71-.99-.88-1.52s-.26-1.38-.26-2.54v-5.75c0-1.51.14-2.64.42-3.4.28-.75.84-1.36,1.67-1.81.83-.45,1.84-.68,3.03-.68.97,0,1.83.16,2.6.47.76.32,1.34.7,1.71,1.15.38.45.63.97.77,1.54.13.57.2,1.48.2,2.73ZM1423.61,211.79c0-.88-.05-1.42-.14-1.64-.09-.22-.3-.33-.64-.33s-.54.12-.65.35-.16.77-.16,1.62v8.04c0,.96.05,1.53.15,1.73.1.2.31.29.64.29s.54-.11.64-.35c.1-.23.15-.75.15-1.56v-8.16Z"/>
          <path class="cls-withdraw-16" d="M1439.94,212.4h-4.41v-.68c0-.73-.05-1.2-.15-1.42s-.32-.34-.65-.34c-.27,0-.47.1-.61.29-.13.19-.2.48-.2.87,0,.64.14,1.1.42,1.35.27.26,1.06.76,2.38,1.51,1.12.63,1.88,1.11,2.29,1.45.41.34.75.81,1.03,1.42.28.61.42,1.38.42,2.29,0,1.46-.38,2.61-1.13,3.45s-1.89,1.35-3.41,1.55v1.55h-2.03v-1.6c-1.18-.11-2.21-.53-3.09-1.27-.88-.74-1.32-2.02-1.32-3.85v-.8h4.41v1.01c0,1.11.05,1.79.14,2.06.09.27.31.4.66.4.3,0,.52-.09.67-.28s.22-.46.22-.83c0-.92-.07-1.58-.21-1.98-.14-.4-.61-.83-1.42-1.3-1.35-.79-2.26-1.37-2.74-1.73-.48-.37-.9-.89-1.25-1.56-.35-.67-.53-1.43-.53-2.28,0-1.23.37-2.19,1.12-2.89.75-.7,1.86-1.13,3.36-1.29v-1.31h2.03v1.31c1.36.16,2.38.59,3.06,1.28.68.69,1.02,1.64,1.02,2.85,0,.17-.02.43-.04.77Z"/>
        </g>
      </g>
    </g>
  </g>
</svg>