<?xml version="1.0" encoding="UTF-8"?>
<svg id="Layer_2" data-name="Layer 2" xmlns="http://www.w3.org/2000/svg" xmlns:xlink="http://www.w3.org/1999/xlink" viewBox="0 0 1536.28 300.25">
  <defs>
    <style>
      .cls-withdraw-1 {
        font-family: Montserrat-Bold, Montserrat;
        font-size: 13.21px;
        font-weight: 700;
      }

      .cls-withdraw-1, .cls-withdraw-2, .cls-withdraw-3, .cls-withdraw-4, .cls-withdraw-5, .cls-withdraw-6 {
        fill: #fff;
      }

      .cls-withdraw-7 {
        letter-spacing: -.02em;
      }

      .cls-withdraw-8 {
        fill: #fbd63b;
      }

      .cls-withdraw-9 {
        fill: #0042b3;
      }

      .cls-withdraw-3, .cls-withdraw-10, .cls-withdraw-11, .cls-withdraw-12, .cls-withdraw-4, .cls-withdraw-13, .cls-withdraw-14, .cls-withdraw-5 {
        stroke-miterlimit: 10;
      }

      .cls-withdraw-3, .cls-withdraw-13 {
        stroke: #fbd63b;
      }

      .cls-withdraw-10 {
        stroke: #fff;
      }

      .cls-withdraw-10, .cls-withdraw-11, .cls-withdraw-13, .cls-withdraw-14 {
        fill: none;
      }

      .cls-withdraw-15 {
        filter: url(#dropshadow3-2);
      }

      .cls-withdraw-16, .cls-withdraw-12 {
        fill: #0042b3;
      }

      .cls-withdraw-17 {
        filter: url(#dropshadow);
      }

      .cls-withdraw-18 {
        font-size: 17.82px;
      }

      .cls-withdraw-18, .cls-withdraw-6 {
        font-family: Montserrat-Regular, Montserrat;
      }

      .cls-withdraw-11, .cls-withdraw-12, .cls-withdraw-4, .cls-withdraw-14, .cls-withdraw-5 {
        stroke: #0042b3;
      }

      .cls-withdraw-19 {
        fill: #c6d6ee;
      }

      .cls-withdraw-20 {
        filter: url(#dropshadow-2);
      }

      .cls-withdraw-12 {
        stroke-width: .75px;
      }

      .cls-withdraw-4 {
        stroke-width: 2px;
      }

      .cls-withdraw-21 {
        filter: url(#dropshadow3-4);
      }

      .cls-withdraw-22 {
        letter-spacing: -.02em;
      }

      .cls-withdraw-23 {
        filter: url(#dropshadow3-3);
      }

      .cls-withdraw-24 {
        letter-spacing: 0em;
      }

      .cls-withdraw-14 {
        stroke-width: 4px;
      }

      .cls-withdraw-25 {
        fill: #fbd63b;
      }

      .cls-withdraw-6 {
        font-size: 18.45px;
      }

      .cls-withdraw-26 {
        filter: url(#dropshadow3);
      }
    </style>
    <filter id="dropshadow3">
      <feGaussianBlur in="SourceAlpha" stdDeviation="1"/>
      <feOffset dx="2" dy="2"/>
      <feComponentTransfer>
        <feFuncA slope="0.3" type="linear"/>
      </feComponentTransfer>
      <feMerge>
        <feMergeNode/>
        <feMergeNode in="SourceGraphic"/>
      </feMerge>
    </filter>
    <filter id="dropshadow3-2" data-name="dropshadow3">
      <feGaussianBlur in="SourceAlpha" stdDeviation="1"/>
      <feOffset dx="2" dy="2"/>
      <feComponentTransfer>
        <feFuncA slope="0.3" type="linear"/>
      </feComponentTransfer>
      <feMerge>
        <feMergeNode/>
        <feMergeNode in="SourceGraphic"/>
      </feMerge>
    </filter>
    <filter id="dropshadow">
      <feGaussianBlur in="SourceAlpha" stdDeviation="5"/>
      <feOffset dx="5" dy="5"/>
      <feComponentTransfer>
        <feFuncA slope="0.5" type="linear"/>
      </feComponentTransfer>
      <feMerge>
        <feMergeNode/>
        <feMergeNode in="SourceGraphic"/>
      </feMerge>
    </filter>
    <filter id="dropshadow-2" data-name="dropshadow">
      <feGaussianBlur in="SourceAlpha" stdDeviation="5"/>
      <feOffset dx="5" dy="5"/>
      <feComponentTransfer>
        <feFuncA slope="0.5" type="linear"/>
      </feComponentTransfer>
      <feMerge>
        <feMergeNode/>
        <feMergeNode in="SourceGraphic"/>
      </feMerge>
    </filter>
    <filter id="dropshadow3-3" data-name="dropshadow3">
      <feGaussianBlur in="SourceAlpha" stdDeviation="1"/>
      <feOffset dx="2" dy="2"/>
      <feComponentTransfer>
        <feFuncA slope="0.3" type="linear"/>
      </feComponentTransfer>
      <feMerge>
        <feMergeNode/>
        <feMergeNode in="SourceGraphic"/>
      </feMerge>
    </filter>
    <filter id="dropshadow3-4" data-name="dropshadow3">
      <feGaussianBlur in="SourceAlpha" stdDeviation="1"/>
      <feOffset dx="2" dy="2"/>
      <feComponentTransfer>
        <feFuncA slope="0.3" type="linear"/>
      </feComponentTransfer>
      <feMerge>
        <feMergeNode/>
        <feMergeNode in="SourceGraphic"/>
      </feMerge>
    </filter>
  </defs>
  <g id="withdrawjs">
    <g id="blinded" data-id="blinded" class="fragment fade-out" data-fragment-index="1">
      <g transform="translate(0 0)">
        <path class="cls-withdraw-14" d="M439.49,97.67h217.02v147.54h-217.02V97.67ZM439.49,97.67l100.34,97.02c4.57,4.42,11.81,4.42,16.38,0l100.29-97.02M439.49,245.21l76.62-73.46M656.51,245.21l-76.89-73.16"/>
        <g id="sig-on-blinded">
          <g>
            <rect class="cls-withdraw-4" x="503.66" y="103.32" width="90.63" height="50.15" rx="5.58" ry="5.58"/>
            <path class="cls-withdraw-12" d="M548.98,153.52h-36.66c-6.72-.61-8.65-3.94-8.65-8.81v-32.54c0-6.84,3.87-8.81,8.65-8.81h36.66"/>
          </g>
          <g>
            <ellipse class="cls-withdraw-4" cx="525.41" cy="135.08" rx="13.97" ry="14.44"/>
            <path class="cls-withdraw-16" d="M528.71,140.89l1.18,1.23,1.18-1.23,1.18,1.23,1.46-1.89-1.46-1.89h-7.38c-.66-1.25-1.91-2.08-3.37-2.08-2.11,0-3.83,1.78-3.83,3.98s1.71,3.98,3.83,3.98c1.46,0,2.72-.83,3.37-2.08h1.18l.73-.76.73.76,1.18-1.23h0ZM519.87,141.36c-.6,0-1.09-.51-1.09-1.14s.49-1.14,1.09-1.14,1.09.51,1.09,1.14-.49,1.14-1.09,1.14h0Z"/>
            <g>
              <path class="cls-withdraw-16" d="M522.23,125.6v7.73h-1.82v-4.14c0-.6-.01-.96-.04-1.08-.03-.12-.1-.21-.22-.27-.12-.06-.39-.09-.81-.09h-.18v-.9c.88-.2,1.55-.61,2.01-1.24h1.07Z"/>
              <path class="cls-withdraw-16" d="M527.23,128.22v2.58c0,.59-.03,1.01-.09,1.28s-.18.52-.37.75c-.19.23-.42.4-.69.5-.27.1-.57.15-.9.15-.44,0-.8-.05-1.09-.16-.29-.11-.52-.27-.69-.5-.17-.23-.29-.46-.37-.71s-.11-.65-.11-1.19v-2.7c0-.71.06-1.24.17-1.59.12-.35.35-.64.69-.85.34-.21.76-.32,1.25-.32.4,0,.76.07,1.07.22.32.15.55.33.71.54.16.21.26.45.32.72.06.27.08.69.08,1.28ZM525.41,127.57c0-.41-.02-.67-.06-.77-.04-.1-.13-.16-.26-.16s-.22.06-.27.16-.07.36-.07.76v3.77c0,.45.02.72.06.81.04.09.13.14.26.14s.22-.05.27-.16c.04-.11.06-.35.06-.73v-3.83Z"/>
              <path class="cls-withdraw-16" d="M532.16,127.85h-1.82v-.32c0-.34-.02-.56-.06-.67s-.13-.16-.27-.16c-.11,0-.19.05-.25.14-.06.09-.08.23-.08.41,0,.3.06.51.17.63.11.12.44.36.98.71.46.3.78.52.95.68.17.16.31.38.43.67.12.29.17.65.17,1.08,0,.69-.16,1.23-.47,1.62s-.78.63-1.41.73v.73h-.84v-.75c-.49-.05-.91-.25-1.28-.59-.36-.35-.55-.95-.55-1.81v-.38h1.82v.47c0,.52.02.84.06.97.04.13.13.19.27.19.12,0,.21-.04.28-.13s.09-.22.09-.39c0-.43-.03-.74-.09-.93-.06-.19-.25-.39-.59-.61-.56-.37-.93-.64-1.13-.81-.2-.17-.37-.42-.52-.73-.15-.32-.22-.67-.22-1.07,0-.58.15-1.03.46-1.36.31-.33.77-.53,1.39-.61v-.62h.84v.62c.56.08.98.28,1.26.6.28.32.42.77.42,1.34,0,.08,0,.2-.02.36Z"/>
            </g>
          </g>
          <text class="cls-withdraw-1" transform="translate(516.89 116.42) scale(.97 1)"><tspan x="0" y="0">Sig</tspan></text>
        </g>
        <g>
          <ellipse class="cls-withdraw-4" cx="549.27" cy="205.48" rx="27.87" ry="28.35"/>
          <path class="cls-withdraw-16" d="M549.88,223.14v1.7h-1.23v-1.7c-1.04-.38-1.68-1.73-.84-3.14,1.53-1.38,3.3-.24,3.3,1.31,0,.84-.52,1.54-1.23,1.83h0ZM544.65,211.34c0-4.21,5.13-7.14,9.23-2.35v5.92s-4.61-.35-4.61-.35l-4.61.35v-3.57h0ZM555.72,215.04v-3.7c0-3.73-2.89-6.75-6.46-6.75s-6.46,3.02-6.46,6.75v3.7l-2.15.16v12.22l8.61.64,8.61-.64v-12.22l-2.15-.16h0Z"/>
          <g>
            <path class="cls-withdraw-16" d="M540.4,184.5v16.47h-4.41v-8.83c0-1.27-.03-2.04-.1-2.3-.07-.26-.25-.45-.54-.58-.29-.13-.95-.2-1.97-.2h-.44v-1.92c2.13-.43,3.75-1.31,4.86-2.64h2.6Z"/>
            <path class="cls-withdraw-16" d="M552.51,190.08v5.49c0,1.25-.07,2.16-.22,2.73s-.45,1.1-.91,1.6c-.46.49-1.01.85-1.66,1.07-.65.22-1.37.33-2.17.33-1.06,0-1.93-.11-2.63-.34-.7-.23-1.26-.58-1.67-1.06-.41-.48-.71-.99-.88-1.52s-.26-1.38-.26-2.54v-5.75c0-1.51.14-2.64.42-3.4.28-.75.84-1.36,1.67-1.81.83-.45,1.84-.68,3.03-.68.97,0,1.83.16,2.6.47.76.32,1.34.7,1.71,1.15.38.45.63.97.77,1.54.13.57.2,1.48.2,2.73ZM548.1,188.7c0-.88-.05-1.42-.14-1.64-.09-.22-.3-.33-.64-.33s-.54.12-.65.35-.16.77-.16,1.62v8.04c0,.96.05,1.53.15,1.73.1.2.31.29.64.29s.54-.11.64-.35c.1-.23.15-.75.15-1.56v-8.16Z"/>
            <path class="cls-withdraw-16" d="M564.43,189.31h-4.41v-.68c0-.73-.05-1.2-.15-1.42s-.32-.34-.65-.34c-.27,0-.47.1-.61.29-.13.19-.2.48-.2.87,0,.64.14,1.1.42,1.35.27.26,1.06.76,2.38,1.51,1.12.63,1.88,1.11,2.29,1.45.41.34.75.81,1.03,1.42.28.61.42,1.38.42,2.29,0,1.46-.38,2.61-1.13,3.45s-1.89,1.35-3.41,1.55v1.55h-2.03v-1.6c-1.18-.11-2.21-.53-3.09-1.27-.88-.74-1.32-2.02-1.32-3.85v-.8h4.41v1.01c0,1.11.05,1.79.14,2.06.09.27.31.4.66.4.3,0,.52-.09.67-.28s.22-.46.22-.83c0-.92-.07-1.58-.21-1.98-.14-.4-.61-.83-1.42-1.3-1.35-.79-2.26-1.37-2.74-1.73-.48-.37-.9-.89-1.25-1.56-.35-.67-.53-1.43-.53-2.28,0-1.23.37-2.19,1.12-2.89.75-.7,1.86-1.13,3.36-1.29v-1.31h2.03v1.31c1.36.16,2.38.59,3.06,1.28.68.69,1.02,1.64,1.02,2.85,0,.17-.02.43-.04.77Z"/>
          </g>
        </g>
      </g>
    </g>
    <g id="unblinded" class="fragment fade-in"  data-fragment-index="1">
      <g>
        <path class="cls-withdraw-14" d="M548.27,9.3l108.51,88.18v148.15h-217.02V97.48l108.51-88.18ZM439.76,97.48l76.73,74.11-76.73,74.04,76.73-74.04c17.73-17.11,45.82-17.11,63.55,0l76.73,74.04-76.73-74.04,76.73-74.11"/>
        <path class="cls-withdraw-19" d="M516.83,169.19l-51.19-49.68-.31-60.39c0-7.83,6.35-14.17,14.17-14.17h134.28c7.83,0,14.17,6.35,14.17,14.17l.95,62.01-49.53,48.06-1.38-1.18c-17.75-15.14-44.01-14.63-61.16,1.18h0Z"/>
      </g>
      <g>
        <ellipse class="cls-withdraw-4" cx="549.53" cy="205.89" rx="27.87" ry="28.35"/>
        <path class="cls-withdraw-16" d="M550.14,223.56v1.7h-1.23v-1.7c-1.04-.38-1.68-1.73-.84-3.14,1.53-1.38,3.3-.24,3.3,1.31,0,.84-.52,1.54-1.23,1.83h0ZM544.91,211.76c0-4.21,5.13-7.14,9.23-2.35v5.92s-4.61-.35-4.61-.35l-4.61.35v-3.57h0ZM555.98,215.46v-3.7c0-3.73-2.89-6.75-6.46-6.75s-6.46,3.02-6.46,6.75v3.7l-2.15.16v12.22l8.61.64,8.61-.64v-12.22l-2.15-.16h0Z"/>
        <g>
          <path class="cls-withdraw-16" d="M540.66,184.92v16.47h-4.41v-8.83c0-1.27-.03-2.04-.1-2.3-.07-.26-.25-.45-.54-.58-.29-.13-.95-.2-1.97-.2h-.44v-1.92c2.13-.43,3.75-1.31,4.86-2.64h2.6Z"/>
          <path class="cls-withdraw-16" d="M552.77,190.49v5.49c0,1.25-.07,2.16-.22,2.73s-.45,1.1-.91,1.6c-.46.49-1.01.85-1.66,1.07-.65.22-1.37.33-2.17.33-1.06,0-1.93-.11-2.63-.34-.7-.23-1.26-.58-1.67-1.06-.41-.48-.71-.99-.88-1.52s-.26-1.38-.26-2.54v-5.75c0-1.51.14-2.64.42-3.4.28-.75.84-1.36,1.67-1.81.83-.45,1.84-.68,3.03-.68.97,0,1.83.16,2.6.47.76.32,1.34.7,1.71,1.15.38.45.63.97.77,1.54.13.57.2,1.48.2,2.73ZM548.36,189.11c0-.88-.05-1.42-.14-1.64-.09-.22-.3-.33-.64-.33s-.54.12-.65.35-.16.77-.16,1.62v8.04c0,.96.05,1.53.15,1.73.1.2.31.29.64.29s.54-.11.64-.35c.1-.23.15-.75.15-1.56v-8.16Z"/>
          <path class="cls-withdraw-16" d="M564.69,189.72h-4.41v-.68c0-.73-.05-1.2-.15-1.42s-.32-.34-.65-.34c-.27,0-.47.1-.61.29-.13.19-.2.48-.2.87,0,.64.14,1.1.42,1.35.27.26,1.06.76,2.38,1.51,1.12.63,1.88,1.11,2.29,1.45.41.34.75.81,1.03,1.42.28.61.42,1.38.42,2.29,0,1.46-.38,2.61-1.13,3.45s-1.89,1.35-3.41,1.55v1.55h-2.03v-1.6c-1.18-.11-2.21-.53-3.09-1.27-.88-.74-1.32-2.02-1.32-3.85v-.8h4.41v1.01c0,1.11.05,1.79.14,2.06.09.27.31.4.66.4.3,0,.52-.09.67-.28s.22-.46.22-.83c0-.92-.07-1.58-.21-1.98-.14-.4-.61-.83-1.42-1.3-1.35-.79-2.26-1.37-2.74-1.73-.48-.37-.9-.89-1.25-1.56-.35-.67-.53-1.43-.53-2.28,0-1.23.37-2.19,1.12-2.89.75-.7,1.86-1.13,3.36-1.29v-1.31h2.03v1.31c1.36.16,2.38.59,3.06,1.28.68.69,1.02,1.64,1.02,2.85,0,.17-.02.43-.04.77Z"/>
        </g>
      </g>
      <g>
        <g>
          <rect class="cls-withdraw-5" x="488.52" y="63.62" width="118.31" height="64.92" rx="5.58" ry="5.58"/>
          <path class="cls-withdraw-12" d="M547.68,128.61h-47.86c-10.58-.08-11.3-4.06-11.3-11.4v-42.12c0-11.4,2.12-11.48,11.3-11.4h47.86"/>
        </g>
        <g>
          <ellipse class="cls-withdraw-4" cx="517" cy="106.16" rx="17.9" ry="17.32"/>
          <path class="cls-withdraw-16" d="M521.22,112.26l1.55,1.59,1.55-1.59,1.55,1.59,1.9-2.45-1.9-2.45h-9.64c-.86-1.62-2.5-2.7-4.4-2.7-2.76,0-5,2.3-5,5.15s2.24,5.15,5,5.15c1.9,0,3.55-1.08,4.4-2.7h1.55l.95-.98.95.98,1.55-1.59h0ZM509.68,112.87c-.79,0-1.43-.66-1.43-1.47s.64-1.47,1.43-1.47,1.43.66,1.43,1.47-.64,1.47-1.43,1.47h0Z"/>
          <g>
            <path class="cls-withdraw-16" d="M511.45,93.46v10.33h-2.63v-5.54c0-.8-.02-1.28-.06-1.44-.04-.16-.15-.28-.32-.37-.18-.08-.57-.12-1.18-.12h-.26v-1.2c1.27-.27,2.24-.82,2.9-1.65h1.55Z"/>
            <path class="cls-withdraw-16" d="M518.68,96.96v3.44c0,.78-.04,1.35-.13,1.71s-.27.69-.54,1c-.27.31-.6.53-.99.67-.39.14-.82.2-1.3.2-.63,0-1.15-.07-1.57-.21-.42-.14-.75-.36-1-.67-.25-.3-.42-.62-.53-.95s-.16-.86-.16-1.59v-3.6c0-.95.08-1.66.25-2.13.17-.47.5-.85,1-1.14.5-.28,1.1-.43,1.81-.43.58,0,1.09.1,1.55.3.46.2.8.44,1.02.72.23.29.38.61.46.96.08.36.12.93.12,1.71ZM516.05,96.09c0-.55-.03-.89-.08-1.03-.05-.14-.18-.21-.38-.21s-.32.07-.39.22-.09.49-.09,1.02v5.04c0,.6.03.96.09,1.08.06.12.19.18.38.18s.32-.07.38-.22c.06-.14.09-.47.09-.98v-5.12Z"/>
            <path class="cls-withdraw-16" d="M525.8,96.47h-2.63v-.43c0-.46-.03-.75-.09-.89s-.19-.21-.39-.21c-.16,0-.28.06-.36.18-.08.12-.12.3-.12.55,0,.4.08.69.25.85.16.16.63.48,1.42.94.67.4,1.13.7,1.37.91.24.21.45.51.62.89.17.38.25.86.25,1.44,0,.92-.23,1.64-.68,2.16s-1.13.85-2.03.97v.97h-1.21v-1c-.7-.07-1.32-.33-1.84-.79-.53-.46-.79-1.27-.79-2.41v-.5h2.63v.63c0,.69.03,1.12.08,1.29.05.17.19.25.39.25.18,0,.31-.06.4-.18s.13-.29.13-.52c0-.58-.04-.99-.12-1.24-.08-.25-.36-.52-.85-.81-.8-.49-1.35-.86-1.64-1.09-.29-.23-.54-.56-.75-.98-.21-.42-.32-.9-.32-1.43,0-.77.22-1.37.67-1.81.45-.44,1.11-.71,2-.81v-.82h1.21v.82c.81.1,1.42.37,1.82.8.4.43.61,1.03.61,1.79,0,.11,0,.27-.03.48Z"/>
          </g>
        </g>
        <g>
          <path class="cls-withdraw-2" d="M508.34,80.4c-.86-.26-1.56-.59-2.08-1l.92-2.09c.5.38,1.1.68,1.79.91.69.23,1.38.34,2.07.34.77,0,1.33-.12,1.7-.35.37-.23.55-.55.55-.93,0-.28-.11-.52-.33-.71-.22-.19-.5-.34-.84-.45-.34-.11-.8-.24-1.38-.38-.89-.22-1.62-.43-2.19-.65-.57-.22-1.06-.56-1.46-1.04-.41-.48-.61-1.12-.61-1.92,0-.7.18-1.33.55-1.89.37-.56.92-1.01,1.66-1.34.74-.33,1.65-.5,2.71-.5.74,0,1.47.09,2.19.27.71.18,1.34.45,1.87.79l-.84,2.1c-1.08-.63-2.16-.94-3.24-.94-.76,0-1.32.13-1.68.38-.36.25-.54.58-.54.99s.21.72.63.91c.42.2,1.05.4,1.91.59.89.22,1.62.43,2.19.65.57.22,1.05.56,1.46,1.03s.61,1.1.61,1.9c0,.68-.19,1.31-.56,1.87-.37.56-.93,1.01-1.68,1.34-.74.33-1.65.5-2.72.5-.92,0-1.82-.13-2.68-.38Z"/>
          <path class="cls-withdraw-2" d="M517.78,69.67c-.3-.28-.45-.64-.45-1.06s.15-.77.45-1.06c.3-.28.69-.43,1.17-.43s.87.14,1.17.41c.3.27.45.62.45,1.03,0,.44-.15.81-.45,1.1-.3.29-.69.44-1.17.44s-.87-.14-1.17-.43ZM517.65,71.38h2.61v9.2h-2.61v-9.2Z"/>
          <path class="cls-withdraw-2" d="M531.94,71.38v7.66c0,1.69-.43,2.94-1.29,3.76s-2.11,1.23-3.76,1.23c-.87,0-1.69-.11-2.47-.33-.78-.22-1.42-.53-1.94-.94l1.04-1.92c.38.32.86.57,1.44.76s1.16.28,1.74.28c.9,0,1.57-.21,1.99-.62s.64-1.05.64-1.89v-.39c-.68.76-1.63,1.15-2.84,1.15-.82,0-1.58-.19-2.26-.56s-1.23-.89-1.63-1.56c-.4-.67-.6-1.45-.6-2.33s.2-1.65.6-2.33c.4-.67.94-1.19,1.63-1.56s1.44-.56,2.26-.56c1.3,0,2.29.44,2.97,1.32v-1.18h2.47ZM528.71,77.32c.44-.42.66-.96.66-1.63s-.22-1.22-.66-1.63-1-.62-1.69-.62-1.26.21-1.7.62-.67.96-.67,1.63.22,1.22.67,1.63,1.01.62,1.7.62,1.26-.21,1.69-.62Z"/>
        </g>
        <g>
          <g class="cls-withdraw-15">
            <ellipse class="cls-withdraw-2" cx="576.91" cy="94.97" rx="19.33" ry="19.39"/>
            <ellipse class="cls-withdraw-13" cx="576.91" cy="94.97" rx="19.33" ry="19.39"/>
          </g>
          <path class="cls-withdraw-8" d="M577.51,101.47v1.63h-1.2v-1.63c-1.02-.36-1.64-1.65-.82-3,1.49-1.32,3.22-.23,3.22,1.25,0,.8-.51,1.47-1.2,1.75h0ZM572.41,90.22c0-4.01,5-6.81,9-2.24v5.65s-4.5-.34-4.5-.34l-4.5.34v-3.4h0ZM583.21,93.75v-3.53c0-3.56-2.82-6.44-6.3-6.44s-6.3,2.88-6.3,6.44v3.53l-2.1.15v11.65l8.4.61,8.4-.61v-11.65l-2.1-.15h0Z"/>
        </g>
      </g>
    </g>
    <g id="customer" data-id="customer">
      <g class="cls-withdraw-17">
        <ellipse class="cls-withdraw-2" cx="295.6" cy="164.97" rx="80.92" ry="80.02"/>
      </g>
      <text class="cls-withdraw-18" transform="translate(251.07 211.67) scale(1.01 1)"><tspan class="cls-withdraw-7" x="0" y="0">C</tspan><tspan class="cls-withdraw-24" x="12.49" y="0">us</tspan><tspan class="cls-withdraw-22" x="33.17" y="0">t</tspan><tspan x="40.07" y="0">omer</tspan></text>
      <path class="cls-withdraw-9" d="M324.25,183.56h-2.3v-1.15c0-5.59-4.8-7.73-10.36-10.21-3.53-1.58-7.19-3.21-9.93-5.91-2.15-2.12-.57-3.79.81-5.25,2.14-2.26,5.72-6.05,5.72-15.89,0-10.62-4.12-15.79-12.6-15.79s-12.6,5.17-12.6,15.79c0,9.85,3.58,13.63,5.72,15.89,1.39,1.47,2.96,3.14.82,5.25-2.74,2.7-6.39,4.33-9.93,5.91-5.56,2.48-10.36,4.62-10.36,10.21v1.15h-2.3v-1.15c0-7.08,5.96-9.74,11.72-12.32,3.35-1.5,6.81-3.04,9.25-5.45q.54-.54-.87-2.03c-2.22-2.35-6.35-6.71-6.35-17.48,0-12,5.01-18.09,14.9-18.09s14.9,6.09,14.9,18.09c0,10.76-4.13,15.13-6.35,17.48q-1.42,1.5-.87,2.03c2.44,2.4,5.9,3.95,9.25,5.44,5.76,2.57,11.72,5.23,11.72,12.32v1.15Z"/>
    </g>
    <g id="bank-complete" data-id="bank-complete">
      <g id="bank">
        <g class="cls-withdraw-20">
          <ellipse class="cls-withdraw-16" cx="1352.75" cy="161.96" rx="80.9" ry="82.81"/>
        </g>
        <g>
          <path class="cls-withdraw-2" d="M1384.24,181.03c0-2.46-1.94-4.45-4.32-4.45h-2.16v-32.28h6.49c1.94,0,3.64-1.33,4.16-3.25.52-1.92-.26-3.97-1.92-5.01l-30.26-18.92c-.69-.43-1.47-.65-2.24-.65s-1.55.21-2.24.65l-30.26,18.92c-1.66,1.04-2.44,3.08-1.92,5.01.52,1.92,2.22,3.25,4.16,3.25h6.49v32.28h-2.16c-2.39,0-4.32,1.99-4.32,4.45-2.39,0-4.32,1.99-4.32,4.45v2.23h69.18v-2.23c0-2.46-1.94-4.45-4.32-4.45h0ZM1375.6,176.58h-4.32v-32.28h4.32v32.28h0ZM1338.85,144.3h4.32v32.28h-4.32v-32.28h0ZM1345.33,144.3h4.32v32.28h-4.32v-32.28h0ZM1351.82,144.3h4.32v32.28h-4.32v-32.28h0ZM1358.3,144.3h4.32v32.28h-4.32v-32.28h0ZM1364.79,144.3h4.32v32.28h-4.32v-32.28h0ZM1323.71,142.07c-.97,0-1.82-.67-2.08-1.63-.26-.96.13-1.99.96-2.5l30.26-18.92c.34-.21.73-.32,1.12-.32s.78.11,1.12.32l30.26,18.92c.83.52,1.22,1.55.96,2.5-.26.96-1.12,1.63-2.08,1.63h-60.53ZM1332.36,144.3h4.32v32.28h-4.32v-32.28h0ZM1328.04,178.8h51.88c1.19,0,2.16,1,2.16,2.23h-56.21c0-1.23.97-2.23,2.16-2.23h0ZM1321.55,185.48c0-1.23.97-2.23,2.16-2.23h60.53c1.19,0,2.16,1,2.16,2.23h-64.85Z"/>
          <path class="cls-withdraw-2" d="M1353.98,126.49c-2.99,0-5.4,2.49-5.4,5.57s2.42,5.57,5.4,5.57,5.4-2.49,5.4-5.57-2.42-5.57-5.4-5.57h0ZM1353.98,135.39c-1.79,0-3.24-1.49-3.24-3.34s1.45-3.34,3.24-3.34,3.24,1.49,3.24,3.34-1.45,3.34-3.24,3.34h0Z"/>
        </g>
        <text class="cls-withdraw-6" transform="translate(1329.93 216.44) scale(.98 1)"><tspan x="0" y="0">Bank</tspan></text>
      </g>
      <g>
        <circle class="cls-withdraw-4" cx="1425" cy="226.14" r="30"/>
        <path class="cls-withdraw-16" d="M1432.08,239.16l2.59,2.62,2.59-2.62,2.59,2.62,3.19-4.03-3.19-4.03h-16.15c-1.44-2.66-4.19-4.43-7.38-4.43-4.63,0-8.37,3.79-8.37,8.46s3.75,8.46,8.37,8.46c3.19,0,5.94-1.77,7.38-4.43h2.59l1.6-1.61,1.6,1.61,2.59-2.62h0ZM1412.73,240.16c-1.32,0-2.39-1.09-2.39-2.42s1.08-2.42,2.39-2.42,2.39,1.09,2.39,2.42-1.08,2.42-2.39,2.42h0Z"/>
        <g>
          <path class="cls-withdraw-16" d="M1415.9,207.6v16.47h-4.41v-8.83c0-1.27-.03-2.04-.1-2.3-.07-.26-.25-.45-.54-.58-.29-.13-.95-.2-1.97-.2h-.44v-1.92c2.13-.43,3.75-1.31,4.86-2.64h2.6Z"/>
          <path class="cls-withdraw-16" d="M1428.02,213.17v5.49c0,1.25-.07,2.16-.22,2.73s-.45,1.1-.91,1.6c-.46.49-1.01.85-1.66,1.07-.65.22-1.37.33-2.17.33-1.06,0-1.93-.11-2.63-.34-.7-.23-1.26-.58-1.67-1.06-.41-.48-.71-.99-.88-1.52s-.26-1.38-.26-2.54v-5.75c0-1.51.14-2.64.42-3.4.28-.75.84-1.36,1.67-1.81.83-.45,1.84-.68,3.03-.68.97,0,1.83.16,2.6.47.76.32,1.34.7,1.71,1.15.38.45.63.97.77,1.54.13.57.2,1.48.2,2.73ZM1423.61,211.79c0-.88-.05-1.42-.14-1.64-.09-.22-.3-.33-.64-.33s-.54.12-.65.35-.16.77-.16,1.62v8.04c0,.96.05,1.53.15,1.73.1.2.31.29.64.29s.54-.11.64-.35c.1-.23.15-.75.15-1.56v-8.16Z"/>
          <path class="cls-withdraw-16" d="M1439.94,212.4h-4.41v-.68c0-.73-.05-1.2-.15-1.42s-.32-.34-.65-.34c-.27,0-.47.1-.61.29-.13.19-.2.48-.2.87,0,.64.14,1.1.42,1.35.27.26,1.06.76,2.38,1.51,1.12.63,1.88,1.11,2.29,1.45.41.34.75.81,1.03,1.42.28.61.42,1.38.42,2.29,0,1.46-.38,2.61-1.13,3.45s-1.89,1.35-3.41,1.55v1.55h-2.03v-1.6c-1.18-.11-2.21-.53-3.09-1.27-.88-.74-1.32-2.02-1.32-3.85v-.8h4.41v1.01c0,1.11.05,1.79.14,2.06.09.27.31.4.66.4.3,0,.52-.09.67-.28s.22-.46.22-.83c0-.92-.07-1.58-.21-1.98-.14-.4-.61-.83-1.42-1.3-1.35-.79-2.26-1.37-2.74-1.73-.48-.37-.9-.89-1.25-1.56-.35-.67-.53-1.43-.53-2.28,0-1.23.37-2.19,1.12-2.89.75-.7,1.86-1.13,3.36-1.29v-1.31h2.03v1.31c1.36.16,2.38.59,3.06,1.28.68.69,1.02,1.64,1.02,2.85,0,.17-.02.43-.04.77Z"/>
        </g>
      </g>
    </g>
    <g id="sub-amount" data-id="sub-amount">
      <g>
        <rect class="cls-withdraw-2" x="1390.57" y="65.8" width="144.71" height="75.43" rx="13.85" ry="13.85"/>
        <path class="cls-withdraw-16" d="M1521.43,142.23h-117.01c-8.19,0-14.85-6.66-14.85-14.85v-47.73c0-8.19,6.66-14.85,14.85-14.85h117.01c8.19,0,14.85,6.66,14.85,14.85v47.73c0,8.19-6.66,14.85-14.85,14.85ZM1404.42,66.8c-7.08,0-12.85,5.76-12.85,12.85v47.73c0,7.09,5.76,12.85,12.85,12.85h117.01c7.08,0,12.85-5.76,12.85-12.85v-47.73c0-7.09-5.76-12.85-12.85-12.85h-117.01Z"/>
      </g>
      <path class="cls-withdraw-9" d="M1526.53,126.69h-2.3v-1.15c0-4.41-3.75-6.12-8.09-8.11-2.83-1.29-5.75-2.63-7.95-4.85-1.84-1.86-.47-3.35.64-4.55,1.68-1.82,4.48-4.85,4.48-12.78,0-8.49-3.19-12.62-9.76-12.62s-9.76,4.13-9.76,12.62c0,7.92,2.81,10.96,4.48,12.78,1.11,1.2,2.49,2.69.64,4.55-2.2,2.22-5.12,3.56-7.95,4.85-4.34,1.98-8.09,3.7-8.09,8.11v1.15h-2.3v-1.15c0-5.89,4.8-8.08,9.43-10.2,2.64-1.21,5.37-2.45,7.27-4.38.19-.2.23-.29.23-.29-.05-.13-.54-.65-.93-1.08-1.78-1.93-5.09-5.52-5.09-14.34,0-12.33,6.56-14.92,12.07-14.92s12.07,2.59,12.07,14.92c0,8.83-3.31,12.41-5.09,14.34-.38.41-.84.91-.92,1.12.02,0,.07.1.22.24,1.91,1.92,4.63,3.17,7.27,4.38,4.64,2.12,9.43,4.31,9.43,10.2v1.15Z"/>
      <g>
        <path class="cls-withdraw-16" d="M1412.31,103.98v6.08h-11.31v-6.08h11.31Z"/>
        <path class="cls-withdraw-16" d="M1427.88,86.2v35.27h-8.61v-18.91c0-2.73-.06-4.37-.19-4.92-.13-.55-.48-.97-1.05-1.25-.58-.28-1.86-.42-3.85-.42h-.85v-4.11c4.16-.92,7.32-2.8,9.48-5.65h5.07Z"/>
        <path class="cls-withdraw-16" d="M1451.54,98.14v11.76c0,2.67-.14,4.62-.43,5.84s-.87,2.36-1.77,3.42c-.9,1.06-1.97,1.82-3.24,2.29-1.26.46-2.68.7-4.24.7-2.06,0-3.77-.24-5.14-.73-1.36-.49-2.45-1.25-3.26-2.28-.81-1.03-1.38-2.12-1.73-3.26s-.51-2.95-.51-5.43v-12.31c0-3.24.27-5.66.82-7.28.55-1.61,1.63-2.9,3.26-3.88,1.63-.97,3.6-1.46,5.91-1.46,1.89,0,3.58.34,5.07,1.01,1.49.67,2.61,1.5,3.35,2.47.74.97,1.24,2.07,1.5,3.29.26,1.22.39,3.17.39,5.84ZM1442.93,95.18c0-1.87-.09-3.05-.27-3.52-.18-.47-.59-.71-1.25-.71s-1.06.25-1.27.75-.31,1.66-.31,3.47v17.21c0,2.05.1,3.28.29,3.7.19.42.61.63,1.25.63s1.06-.25,1.26-.74c.2-.49.3-1.6.3-3.33v-17.47Z"/>
        <path class="cls-withdraw-16" d="M1474.81,96.48h-8.61v-1.46c0-1.55-.1-2.57-.3-3.05s-.62-.72-1.28-.72c-.53,0-.92.21-1.18.62-.26.41-.39,1.04-.39,1.86,0,1.38.27,2.34.81,2.9.53.55,2.07,1.63,4.65,3.22,2.19,1.35,3.68,2.39,4.47,3.1.79.72,1.47,1.74,2.01,3.05.55,1.31.82,2.95.82,4.91,0,3.14-.74,5.6-2.22,7.38s-3.69,2.89-6.65,3.31v3.31h-3.96v-3.42c-2.3-.23-4.31-1.14-6.03-2.71-1.72-1.58-2.58-4.32-2.58-8.25v-1.72h8.61v2.16c0,2.37.09,3.84.27,4.41.18.57.61.86,1.29.86.58,0,1.02-.2,1.3-.6s.43-.99.43-1.78c0-1.97-.13-3.39-.4-4.24-.27-.85-1.19-1.77-2.77-2.78-2.63-1.68-4.42-2.92-5.36-3.71-.95-.79-1.76-1.91-2.45-3.34-.69-1.44-1.03-3.06-1.03-4.88,0-2.63.73-4.69,2.18-6.19,1.46-1.5,3.64-2.42,6.55-2.77v-2.81h3.96v2.81c2.66.35,4.65,1.26,5.97,2.73,1.32,1.47,1.98,3.51,1.98,6.11,0,.36-.03.92-.08,1.66Z"/>
      </g>
    </g>
    <g id="coin" data-id="coin">
      <rect class="cls-withdraw-19" width="177.77" height="298.46" rx="22.69" ry="22.69"/>
      <g>
        <g class="cls-withdraw-23">
          <rect class="cls-withdraw-2" x="16.43" y="94.55" width="141.88" height="186.91" rx="9.91" ry="9.91"/>
          <rect class="cls-withdraw-11" x="16.43" y="94.55" width="141.88" height="186.91" rx="9.91" ry="9.91"/>
        </g>
        <g>
          <ellipse class="cls-withdraw-3" cx="55.93" cy="124.61" rx="21.13" ry="21.31"/>
          <path class="cls-withdraw-8" d="M62.53,125.9l2.26,2.39,2.26-2.39,2.26,2.39,2.78-3.68-2.78-3.68h-14.07c-1.25-2.43-3.65-4.05-6.42-4.05-4.03,0-7.29,3.46-7.29,7.73s3.26,7.73,7.29,7.73c2.78,0,5.17-1.62,6.42-4.05h2.26l1.39-1.47,1.39,1.47,2.26-2.39h0ZM45.69,126.82c-1.15,0-2.08-.99-2.08-2.21s.94-2.21,2.08-2.21,2.08.99,2.08,2.21-.94,2.21-2.08,2.21h0Z"/>
        </g>
        <g>
          <ellipse class="cls-withdraw-3" cx="117.63" cy="124.94" rx="21.65" ry="21.6"/>
          <path class="cls-withdraw-8" d="M118.3,132.18v1.81h-1.34v-1.81c-1.14-.4-1.84-1.84-.92-3.34,1.67-1.47,3.61-.26,3.61,1.39,0,.89-.57,1.64-1.34,1.95h0ZM112.59,119.64c0-4.47,5.6-7.59,10.08-2.5v6.29s-5.04-.38-5.04-.38l-5.04.38v-3.79h0ZM124.68,123.57v-3.93c0-3.96-3.16-7.17-7.06-7.17s-7.06,3.21-7.06,7.17v3.93l-2.35.17v12.98l9.41.68,9.41-.68v-12.98l-2.35-.17h0Z"/>
        </g>
        <g>
          <ellipse class="cls-withdraw-5" cx="85.81" cy="247.1" rx="22.41" ry="22.06"/>
          <path class="cls-withdraw-16" d="M86.3,260.85v1.33h-.99v-1.33c-.84-.29-1.35-1.35-.68-2.45,1.23-1.07,2.66-.19,2.66,1.02,0,.65-.42,1.2-.99,1.43h0ZM82.1,251.66c0-3.28,4.12-5.56,7.42-1.83v4.61s-3.71-.28-3.71-.28l-3.71.28v-2.78h0ZM91,254.54v-2.88c0-2.9-2.32-5.25-5.19-5.25s-5.19,2.35-5.19,5.25v2.88l-1.73.13v9.51l6.92.5,6.92-.5v-9.51l-1.73-.13h0Z"/>
          <g>
            <path class="cls-withdraw-16" d="M79.4,230.11v13.5h-3.41v-7.24c0-1.04-.03-1.67-.08-1.88-.05-.21-.19-.37-.42-.48-.23-.11-.73-.16-1.52-.16h-.34v-1.57c1.65-.35,2.9-1.07,3.75-2.16h2.01Z"/>
            <path class="cls-withdraw-16" d="M88.75,234.68v4.5c0,1.02-.06,1.77-.17,2.23s-.35.9-.7,1.31c-.35.41-.78.7-1.28.88-.5.18-1.06.27-1.68.27-.82,0-1.49-.09-2.03-.28-.54-.19-.97-.48-1.29-.87-.32-.39-.55-.81-.68-1.25s-.2-1.13-.2-2.08v-4.71c0-1.24.11-2.17.32-2.78.22-.62.65-1.11,1.29-1.48.64-.37,1.42-.56,2.34-.56.75,0,1.42.13,2.01.39.59.26,1.03.57,1.32.95.29.37.49.79.59,1.26.1.47.16,1.21.16,2.23ZM85.35,233.55c0-.72-.04-1.17-.11-1.35-.07-.18-.23-.27-.49-.27s-.42.1-.5.29-.12.63-.12,1.33v6.59c0,.78.04,1.26.11,1.42.08.16.24.24.49.24s.42-.09.5-.28c.08-.19.12-.61.12-1.28v-6.68Z"/>
            <path class="cls-withdraw-16" d="M97.96,234.05h-3.41v-.56c0-.59-.04-.98-.12-1.17s-.25-.28-.51-.28c-.21,0-.36.08-.47.24-.1.16-.16.4-.16.71,0,.53.11.9.32,1.11.21.21.82.62,1.84,1.23.87.52,1.46.91,1.77,1.19.31.28.58.66.8,1.17.22.5.32,1.13.32,1.88,0,1.2-.29,2.14-.88,2.83s-1.46,1.11-2.63,1.27v1.27h-1.57v-1.31c-.91-.09-1.71-.43-2.39-1.04-.68-.6-1.02-1.65-1.02-3.16v-.66h3.41v.83c0,.91.04,1.47.11,1.69.07.22.24.33.51.33.23,0,.4-.08.51-.23s.17-.38.17-.68c0-.76-.05-1.3-.16-1.62-.11-.32-.47-.68-1.1-1.06-1.04-.64-1.75-1.12-2.12-1.42-.37-.3-.7-.73-.97-1.28-.27-.55-.41-1.17-.41-1.87,0-1.01.29-1.79.86-2.37.58-.57,1.44-.93,2.59-1.06v-1.08h1.57v1.08c1.05.13,1.84.48,2.36,1.05.52.56.78,1.34.78,2.34,0,.14-.01.35-.03.63Z"/>
          </g>
        </g>
      </g>
      <g id="coin-sig"  class="fragment fade">
        <g>
          <rect class="cls-withdraw-5" x="36.71" y="157.24" width="100.52" height="55.63" rx="5.58" ry="5.58"/>
          <path class="cls-withdraw-12" d="M86.97,212.93h-40.66c-8.99-.07-9.6-3.48-9.6-9.77v-36.09c0-9.77,1.8-9.83,9.6-9.77h40.66"/>
        </g>
        <g>
          <ellipse class="cls-withdraw-4" cx="60.9" cy="193.69" rx="15.21" ry="14.84"/>
          <path class="cls-withdraw-16" d="M64.49,198.91l1.31,1.37,1.31-1.37,1.31,1.37,1.62-2.1-1.62-2.1h-8.19c-.73-1.39-2.12-2.31-3.74-2.31-2.35,0-4.25,1.97-4.25,4.41s1.9,4.41,4.25,4.41c1.62,0,3.01-.92,3.74-2.31h1.31l.81-.84.81.84,1.31-1.37h0ZM54.68,199.44c-.67,0-1.21-.57-1.21-1.26s.55-1.26,1.21-1.26,1.21.57,1.21,1.26-.55,1.26-1.21,1.26h0Z"/>
          <g>
            <path class="cls-withdraw-16" d="M56.19,182.81v8.85h-2.24v-4.74c0-.68-.02-1.1-.05-1.24-.03-.14-.12-.24-.27-.31-.15-.07-.48-.11-1-.11h-.22v-1.03c1.08-.23,1.9-.7,2.46-1.42h1.32Z"/>
            <path class="cls-withdraw-16" d="M62.33,185.81v2.95c0,.67-.04,1.16-.11,1.46s-.23.59-.46.86c-.23.27-.51.46-.84.57-.33.12-.7.17-1.1.17-.54,0-.98-.06-1.33-.18-.35-.12-.64-.31-.85-.57-.21-.26-.36-.53-.45-.82s-.13-.74-.13-1.36v-3.09c0-.81.07-1.42.21-1.83.14-.4.42-.73.85-.97.42-.24.93-.37,1.54-.37.49,0,.93.08,1.32.25.39.17.68.38.87.62.19.24.32.52.39.83.07.31.1.79.1,1.46ZM60.1,185.06c0-.47-.02-.76-.07-.88-.05-.12-.15-.18-.32-.18s-.28.06-.33.19-.08.42-.08.87v4.32c0,.51.02.82.07.93.05.11.16.16.32.16s.27-.06.33-.19c.05-.12.08-.4.08-.84v-4.38Z"/>
            <path class="cls-withdraw-16" d="M68.38,185.39h-2.24v-.37c0-.39-.03-.64-.08-.77s-.16-.18-.33-.18c-.14,0-.24.05-.31.16-.07.1-.1.26-.1.47,0,.35.07.59.21.73.14.14.54.41,1.21.81.57.34.96.6,1.16.78.21.18.38.44.52.77.14.33.21.74.21,1.23,0,.79-.19,1.4-.58,1.85s-.96.73-1.73.83v.83h-1.03v-.86c-.6-.06-1.12-.29-1.57-.68-.45-.4-.67-1.09-.67-2.07v-.43h2.24v.54c0,.59.02.96.07,1.11.05.14.16.22.33.22.15,0,.26-.05.34-.15s.11-.25.11-.45c0-.5-.04-.85-.11-1.06-.07-.21-.31-.45-.72-.7-.68-.42-1.15-.73-1.39-.93-.25-.2-.46-.48-.64-.84-.18-.36-.27-.77-.27-1.22,0-.66.19-1.18.57-1.55.38-.38.95-.61,1.7-.69v-.7h1.03v.7c.69.09,1.21.32,1.55.69.34.37.52.88.52,1.53,0,.09,0,.23-.02.42Z"/>
          </g>
        </g>
        <g>
          <path class="cls-withdraw-2" d="M53.55,171.62c-.73-.22-1.32-.5-1.77-.86l.78-1.79c.43.32.93.58,1.52.78.59.2,1.17.29,1.76.29.65,0,1.13-.1,1.45-.3.31-.2.47-.47.47-.8,0-.24-.09-.45-.28-.61-.18-.16-.42-.29-.71-.39-.29-.1-.68-.2-1.17-.32-.76-.19-1.38-.37-1.86-.56-.48-.18-.9-.48-1.24-.89-.34-.41-.52-.96-.52-1.64,0-.6.16-1.14.47-1.62.31-.48.78-.87,1.41-1.15.63-.28,1.4-.42,2.3-.42.63,0,1.25.08,1.86.23.61.16,1.14.38,1.59.68l-.71,1.8c-.92-.54-1.83-.81-2.75-.81-.64,0-1.12.11-1.43.32-.31.22-.46.5-.46.85s.18.61.53.78c.35.17.9.34,1.62.51.76.18,1.38.37,1.86.56.48.19.9.48,1.24.88s.52.94.52,1.63c0,.59-.16,1.12-.48,1.6-.32.48-.79.87-1.43,1.15-.63.28-1.4.42-2.31.42-.78,0-1.54-.11-2.28-.33Z"/>
          <path class="cls-withdraw-2" d="M61.57,162.42c-.26-.24-.38-.55-.38-.91s.13-.66.38-.91c.25-.24.59-.37.99-.37s.74.12.99.35c.25.23.38.53.38.88,0,.38-.13.7-.38.94-.26.25-.59.37-.99.37s-.74-.12-.99-.37ZM61.46,163.89h2.21v7.88h-2.21v-7.88Z"/>
          <path class="cls-withdraw-2" d="M73.6,163.89v6.56c0,1.45-.37,2.52-1.09,3.22s-1.79,1.06-3.19,1.06c-.74,0-1.44-.09-2.1-.28-.66-.18-1.21-.45-1.65-.81l.88-1.64c.32.27.73.49,1.22.65s.98.24,1.48.24c.77,0,1.33-.18,1.69-.53s.55-.9.55-1.62v-.34c-.58.65-1.38.98-2.41.98-.7,0-1.34-.16-1.92-.48s-1.04-.76-1.38-1.34c-.34-.58-.51-1.24-.51-1.99s.17-1.42.51-1.99c.34-.58.8-1.02,1.38-1.34s1.22-.48,1.92-.48c1.11,0,1.95.38,2.53,1.13v-1.01h2.1ZM70.85,168.98c.37-.36.56-.82.56-1.4s-.19-1.04-.56-1.4-.85-.53-1.44-.53-1.07.18-1.45.53-.57.82-.57,1.4.19,1.04.57,1.4.86.53,1.45.53,1.07-.18,1.44-.53Z"/>
        </g>
        <g>
          <ellipse class="cls-withdraw-3" cx="111.81" cy="184.1" rx="16.42" ry="16.61"/>
          <path class="cls-withdraw-8" d="M112.32,189.67v1.39h-1.02v-1.39c-.86-.31-1.39-1.42-.7-2.57,1.27-1.13,2.74-.2,2.74,1.07,0,.68-.43,1.26-1.02,1.5h0ZM107.99,180.03c0-3.44,4.25-5.83,7.65-1.92v4.84s-3.82-.29-3.82-.29l-3.82.29v-2.92h0ZM117.16,183.05v-3.02c0-3.05-2.4-5.52-5.35-5.52s-5.35,2.47-5.35,5.52v3.02l-1.78.13v9.98l7.14.53,7.14-.53v-9.98l-1.78-.13h0Z"/>
        </g>
      </g>
      <g>
        <g class="cls-withdraw-21">
          <ellipse class="cls-withdraw-25" cx="90.73" cy="46.36" rx="33.5" ry="33.03"/>
        </g>
        <ellipse class="cls-withdraw-10" cx="90.8" cy="46.42" rx="26.58" ry="26.21"/>
        <g>
          <path class="cls-withdraw-2" d="M77.89,34.66v22.21h-5.9v-11.91c0-1.72-.04-2.75-.13-3.1-.09-.35-.33-.61-.72-.79-.39-.18-1.27-.27-2.64-.27h-.58v-2.59c2.85-.58,5.02-1.76,6.5-3.56h3.48Z"/>
          <path class="cls-withdraw-2" d="M94.1,42.18v7.41c0,1.68-.1,2.91-.29,3.68s-.6,1.49-1.21,2.15c-.61.67-1.35,1.15-2.22,1.44-.87.29-1.84.44-2.91.44-1.41,0-2.59-.15-3.52-.46-.94-.31-1.68-.78-2.24-1.43-.55-.65-.95-1.33-1.18-2.05-.23-.72-.35-1.86-.35-3.42v-7.75c0-2.04.19-3.57.56-4.58.37-1.01,1.12-1.83,2.24-2.44,1.11-.61,2.47-.92,4.05-.92,1.3,0,2.45.21,3.48.64,1.02.43,1.79.94,2.29,1.56.51.61.85,1.3,1.03,2.07.18.77.27,1.99.27,3.68ZM88.2,40.31c0-1.18-.06-1.92-.18-2.22-.12-.3-.41-.45-.85-.45s-.73.16-.87.47-.21,1.04-.21,2.19v10.84c0,1.29.07,2.07.2,2.33.13.27.42.4.85.4s.73-.15.86-.47c.14-.31.2-1.01.2-2.1v-11Z"/>
          <path class="cls-withdraw-2" d="M110.05,41.13h-5.9v-.92c0-.98-.07-1.62-.2-1.92s-.43-.45-.88-.45c-.36,0-.63.13-.81.39-.18.26-.27.65-.27,1.17,0,.87.19,1.48.56,1.82.36.35,1.42,1.02,3.18,2.03,1.5.85,2.52,1.5,3.07,1.96.54.45,1.01,1.09,1.38,1.92.37.83.56,1.86.56,3.09,0,1.98-.51,3.53-1.52,4.65s-2.53,1.82-4.56,2.09v2.09h-2.72v-2.15c-1.58-.15-2.96-.72-4.13-1.71-1.18-.99-1.77-2.72-1.77-5.19v-1.08h5.9v1.36c0,1.49.06,2.42.18,2.78.12.36.42.54.88.54.4,0,.7-.13.89-.38s.29-.62.29-1.12c0-1.24-.09-2.13-.28-2.67-.19-.53-.82-1.12-1.9-1.75-1.8-1.06-3.03-1.84-3.67-2.34-.65-.5-1.21-1.2-1.68-2.11-.47-.91-.71-1.93-.71-3.07,0-1.66.5-2.95,1.5-3.9,1-.94,2.5-1.52,4.49-1.74v-1.77h2.72v1.77c1.82.22,3.18.79,4.09,1.72.91.93,1.36,2.21,1.36,3.85,0,.23-.02.58-.06,1.04Z"/>
        </g>
      </g>
    </g>
  </g>
</svg>